<svg width="3460" height="1365" viewBox="0 0 3460 1365" fill="none" xmlns="http://www.w3.org/2000/svg">
<path d="M1021.75 1120.19L1022.32 1104.76C1022.32 1092.94 1021.37 1079.79 1019.46 1065.31C1017.94 1050.83 1017.17 1040.73 1017.17 1035.01C1017.17 1028.92 1019.65 1023.01 1024.6 1017.29C1029.94 1011.2 1036.61 1008.15 1044.61 1008.15C1052.62 1008.15 1059.09 1011.2 1064.05 1017.29C1069.38 1023.01 1072.05 1028.92 1072.05 1035.01C1072.05 1040.73 1071.1 1050.83 1069.19 1065.31C1067.67 1079.79 1066.91 1092.94 1066.91 1104.76C1066.91 1116.57 1067.67 1129.72 1069.19 1144.2C1071.1 1158.68 1072.05 1168.97 1072.05 1175.07C1072.05 1180.78 1069.38 1186.69 1064.05 1192.79C1059.09 1198.51 1052.62 1201.36 1044.61 1201.36C1036.61 1201.36 1029.94 1198.51 1024.6 1192.79C1019.65 1186.69 1017.17 1179.83 1017.17 1172.21V1160.2C982.493 1187.64 945.718 1201.36 906.846 1201.36C857.303 1201.36 815.573 1183.64 781.655 1148.2C748.119 1112.38 731.35 1069.12 731.35 1018.44C731.35 955.175 750.215 902.964 787.943 861.806C826.053 820.647 874.452 800.068 933.141 800.068C967.059 800.068 998.118 806.737 1026.32 820.076C1054.9 833.414 1069.19 848.848 1069.19 866.379C1069.19 874.382 1066.53 881.051 1061.19 886.386C1056.24 891.722 1050.14 894.389 1042.9 894.389C1035.66 894.389 1028.42 891.531 1021.17 885.815C1013.93 880.098 1006.88 873.81 1000.02 866.95C993.545 859.71 983.065 853.231 968.583 847.515C954.483 841.798 937.714 838.94 918.279 838.94C874.452 838.94 840.154 852.85 815.382 880.67C790.611 908.49 778.225 945.266 778.225 990.998C778.225 1036.73 791.754 1076.74 818.812 1111.04C846.251 1145.34 881.884 1162.49 925.71 1162.49C958.865 1162.49 990.878 1148.39 1021.75 1120.19ZM1185.47 1034.44L1188.9 1173.92C1188.9 1181.93 1186.61 1188.6 1182.04 1193.93C1177.47 1198.89 1171.56 1201.36 1164.32 1201.36C1157.08 1201.36 1150.79 1198.89 1145.45 1193.93C1140.5 1188.6 1138.02 1181.93 1138.02 1173.92L1142.02 1060.74C1142.02 1060.74 1140.69 1028.92 1138.02 965.274C1138.02 957.271 1140.5 950.601 1145.45 945.266C1150.79 939.931 1157.08 937.263 1164.32 937.263C1171.56 937.263 1177.47 939.931 1182.04 945.266C1186.61 950.22 1188.9 956.508 1188.9 964.13C1188.9 971.752 1188.71 977.469 1188.33 981.28C1209.67 951.935 1234.25 937.263 1262.07 937.263C1302.09 937.263 1327.81 964.13 1339.24 1017.87L1360.96 1116.19C1363.25 1124.95 1367.82 1134.48 1374.68 1144.77C1381.93 1154.68 1385.55 1163.63 1385.55 1171.64C1385.55 1191.45 1376.02 1201.36 1356.96 1201.36C1337.91 1201.36 1325.52 1186.31 1319.81 1156.2L1298.08 1036.73C1290.84 998.62 1271.22 979.565 1239.2 979.565C1222.82 979.565 1210.05 985.091 1200.9 996.143C1191.76 1007.19 1186.61 1019.96 1185.47 1034.44ZM1612.35 1125.33L1611.2 1205.36C1611.2 1242.71 1594.82 1278.35 1562.04 1312.26C1529.27 1346.56 1492.68 1363.71 1452.29 1363.71C1432.09 1363.71 1414.56 1357.99 1399.69 1346.56C1384.83 1335.13 1377.4 1322.74 1377.4 1309.4C1377.4 1302.54 1379.69 1296.45 1384.26 1291.11C1389.21 1285.78 1394.93 1283.11 1401.41 1283.11C1408.27 1283.11 1414.37 1285.01 1419.7 1288.83C1425.42 1292.64 1430.56 1296.83 1435.14 1301.4C1440.09 1305.97 1447.33 1310.17 1456.86 1313.98C1466.77 1317.79 1477.82 1319.69 1490.01 1319.69C1514.02 1319.69 1534.6 1310.74 1551.75 1292.83C1568.9 1275.3 1577.48 1254.34 1577.48 1229.95C1577.48 1196.41 1577.29 1172.59 1576.9 1158.49C1559.37 1187.07 1537.46 1201.36 1511.16 1201.36C1489.44 1201.36 1472.1 1193.55 1459.15 1177.93C1446.57 1162.3 1437.8 1143.25 1432.85 1120.76L1411.13 1022.44C1408.84 1011.39 1403.7 1001.67 1395.69 993.284C1388.07 984.519 1384.26 975.754 1384.26 966.989C1384.26 958.223 1387.31 951.173 1393.41 945.838C1399.5 940.121 1406.17 937.263 1413.41 937.263C1420.65 937.263 1426.56 938.597 1431.13 941.264C1435.71 943.932 1439.52 947.934 1442.57 953.269C1446.76 961.272 1450 970.99 1452.29 982.423L1477.44 1101.9C1481.63 1120.57 1487.16 1134.86 1494.02 1144.77C1501.26 1154.3 1512.31 1159.06 1527.17 1159.06C1542.03 1159.06 1553.85 1153.54 1562.61 1142.48C1571.76 1131.05 1576.33 1116.95 1576.33 1100.18L1572.33 971.562C1572.33 961.272 1574.81 953.079 1579.76 946.981C1585.1 940.502 1591.39 937.263 1598.63 937.263C1605.87 937.263 1611.77 940.312 1616.35 946.409C1620.92 952.126 1623.21 960.129 1623.21 970.418C1623.21 980.327 1622.06 994.428 1619.78 1012.72C1614.82 1052.35 1612.35 1089.89 1612.35 1125.33ZM1870.29 1121.33C1872.96 1128.19 1878.49 1137.53 1886.87 1149.34C1895.64 1160.78 1900.02 1170.11 1900.02 1177.35C1900.02 1184.6 1898.11 1190.5 1894.3 1195.08C1890.49 1199.27 1885.35 1201.36 1878.87 1201.36C1863.24 1201.36 1849.33 1185.17 1837.14 1152.77L1832.56 1140.2C1813.13 1180.97 1783.97 1201.36 1745.1 1201.36C1725.67 1201.36 1709.47 1195.27 1696.51 1183.07C1683.94 1170.49 1677.65 1154.87 1677.65 1136.2C1677.65 1107.23 1687.56 1082.27 1707.37 1061.31C1727.19 1040.35 1753.11 1029.11 1785.12 1027.58C1777.5 1014.24 1768.92 1004.34 1759.39 997.857C1750.25 990.998 1741.86 986.996 1734.24 985.853C1726.62 984.71 1719.38 984.138 1712.52 984.138C1706.04 983.757 1700.89 982.232 1697.08 979.565C1693.27 976.897 1691.37 971.752 1691.37 964.13C1691.37 956.127 1694.42 949.649 1700.51 944.694C1706.99 939.74 1714.61 937.263 1723.38 937.263C1748.15 937.263 1772.54 949.649 1796.55 974.42C1820.56 999.191 1841.52 1038.06 1859.43 1091.04L1870.29 1121.33ZM1770.83 1057.88C1757.11 1057.88 1744.72 1062.45 1733.67 1071.6C1723 1080.75 1717.66 1092.56 1717.66 1107.04C1717.66 1121.52 1722.43 1133.72 1731.95 1143.63C1741.86 1153.15 1753.68 1157.92 1767.4 1157.92C1781.12 1157.92 1792.93 1153.15 1802.84 1143.63C1812.75 1133.72 1817.7 1122.1 1817.7 1108.76C1817.7 1099.23 1815.99 1090.46 1812.56 1082.46C1809.13 1074.08 1807.03 1068.93 1806.27 1067.03C1796.36 1060.93 1784.55 1057.88 1770.83 1057.88ZM1981.75 1363.71C1974.51 1363.71 1968.04 1360.85 1962.32 1355.14C1956.98 1349.8 1954.32 1341.99 1954.32 1331.7C1954.32 1329.79 1956.03 1317.22 1959.46 1293.97C1963.27 1270.72 1965.18 1231.85 1965.18 1177.35C1965.18 1122.86 1964.22 1072.93 1962.32 1027.58C1961.94 1018.82 1958.51 1008.72 1952.03 997.286C1945.93 985.853 1942.88 975.754 1942.88 966.989C1942.88 958.223 1945.74 951.173 1951.46 945.838C1957.17 940.121 1963.65 937.263 1970.89 937.263C1989.95 937.263 1999.48 952.316 1999.48 982.423V1009.29C2015.48 987.187 2034.73 969.656 2057.21 956.699C2080.08 943.742 2101.23 937.263 2120.66 937.263C2146.2 937.263 2166.78 946.79 2182.4 965.845C2198.03 984.519 2205.84 1006.43 2205.84 1031.58C2205.84 1056.74 2200.89 1080.17 2190.98 1101.9C2181.07 1123.62 2168.49 1141.53 2153.25 1155.63C2138 1169.73 2121.81 1180.97 2104.66 1189.36C2087.51 1197.36 2071.12 1201.36 2055.5 1201.36C2037.2 1201.36 2028.06 1192.41 2028.06 1174.5C2028.06 1166.49 2030.92 1160.59 2036.63 1156.78C2042.35 1152.96 2048.07 1151.06 2053.78 1151.06C2059.5 1151.06 2065.41 1152.01 2071.5 1153.92C2077.98 1155.82 2083.89 1156.78 2089.22 1156.78C2112.09 1156.78 2131.34 1148.39 2146.96 1131.62C2162.59 1114.47 2170.4 1093.7 2170.4 1069.31C2170.4 1044.92 2162.59 1024.34 2146.96 1007.58C2131.34 990.807 2112.09 982.423 2089.22 982.423C2059.5 982.423 2037.59 994.428 2023.48 1018.44C2009.77 1042.45 2002.91 1075.22 2002.91 1116.76C2002.91 1138.86 2004.43 1173.73 2007.48 1221.37C2010.53 1269.01 2012.05 1301.4 2012.05 1318.55C2012.05 1348.66 2001.95 1363.71 1981.75 1363.71ZM2438.59 1121.33C2441.26 1128.19 2446.78 1137.53 2455.17 1149.34C2463.93 1160.78 2468.31 1170.11 2468.31 1177.35C2468.31 1184.6 2466.41 1190.5 2462.6 1195.08C2458.79 1199.27 2453.64 1201.36 2447.16 1201.36C2431.54 1201.36 2417.63 1185.17 2405.43 1152.77L2400.86 1140.2C2381.42 1180.97 2352.27 1201.36 2313.4 1201.36C2293.96 1201.36 2277.77 1195.27 2264.81 1183.07C2252.23 1170.49 2245.94 1154.87 2245.94 1136.2C2245.94 1107.23 2255.85 1082.27 2275.67 1061.31C2295.49 1040.35 2321.4 1029.11 2353.41 1027.58C2345.79 1014.24 2337.22 1004.34 2327.69 997.857C2318.54 990.998 2310.16 986.996 2302.54 985.853C2294.92 984.71 2287.67 984.138 2280.81 984.138C2274.34 983.757 2269.19 982.232 2265.38 979.565C2261.57 976.897 2259.66 971.752 2259.66 964.13C2259.66 956.127 2262.71 949.649 2268.81 944.694C2275.29 939.74 2282.91 937.263 2291.68 937.263C2316.45 937.263 2340.84 949.649 2364.85 974.42C2388.86 999.191 2409.82 1038.06 2427.73 1091.04L2438.59 1121.33ZM2339.12 1057.88C2325.4 1057.88 2313.02 1062.45 2301.97 1071.6C2291.3 1080.75 2285.96 1092.56 2285.96 1107.04C2285.96 1121.52 2290.72 1133.72 2300.25 1143.63C2310.16 1153.15 2321.97 1157.92 2335.69 1157.92C2349.41 1157.92 2361.23 1153.15 2371.13 1143.63C2381.04 1133.72 2386 1122.1 2386 1108.76C2386 1099.23 2384.28 1090.46 2380.85 1082.46C2377.42 1074.08 2375.33 1068.93 2374.56 1067.03C2364.66 1060.93 2352.84 1057.88 2339.12 1057.88ZM2567.77 796.638L2562.63 980.708V1015.58C2578.63 991.95 2599.02 973.086 2623.79 958.986C2648.56 944.504 2670.29 937.263 2688.96 937.263C2724.02 937.263 2741.55 947.362 2741.55 967.56C2741.55 975.944 2738.89 982.804 2733.55 988.139C2728.6 993.094 2723.45 995.571 2718.12 995.571C2713.16 995.571 2704.78 993.284 2692.96 988.711C2681.15 984.138 2669.53 981.851 2658.09 981.851C2627.22 981.851 2603.4 994.618 2586.64 1020.15C2624.37 1056.36 2660.95 1087.8 2696.39 1114.47C2725.74 1136.58 2742.7 1150.87 2747.27 1157.35C2751.84 1163.83 2754.13 1170.49 2754.13 1177.35C2754.13 1184.21 2751.84 1189.93 2747.27 1194.5C2742.7 1199.08 2736.6 1201.36 2728.98 1201.36C2721.74 1201.36 2713.35 1197.36 2703.82 1189.36C2694.68 1180.97 2677.15 1164.4 2651.23 1139.63C2625.32 1114.47 2596.35 1089.13 2564.34 1063.6C2566.63 1111.62 2567.77 1148.39 2567.77 1173.92C2567.77 1181.93 2565.49 1188.6 2560.91 1193.93C2556.34 1198.89 2550.43 1201.36 2543.19 1201.36C2535.95 1201.36 2529.66 1198.89 2524.33 1193.93C2519.37 1188.6 2516.9 1180.02 2516.9 1168.21C2516.9 1156.39 2517.85 1128.38 2519.75 1084.18C2521.66 1039.59 2522.61 1005.1 2522.61 980.708C2522.61 956.318 2521.66 923.543 2519.75 882.385C2517.85 841.226 2516.9 814.74 2516.9 802.926C2516.9 791.112 2519.37 782.537 2524.33 777.202C2529.66 771.867 2535.95 769.199 2543.19 769.199C2550.43 769.199 2556.34 771.867 2560.91 777.202C2565.49 782.156 2567.77 788.635 2567.77 796.638ZM2984 1121.33C2986.67 1128.19 2992.19 1137.53 3000.58 1149.34C3009.34 1160.78 3013.72 1170.11 3013.72 1177.35C3013.72 1184.6 3011.82 1190.5 3008.01 1195.08C3004.2 1199.27 2999.05 1201.36 2992.57 1201.36C2976.95 1201.36 2963.04 1185.17 2950.84 1152.77L2946.27 1140.2C2926.83 1180.97 2897.68 1201.36 2858.81 1201.36C2839.37 1201.36 2823.17 1195.27 2810.22 1183.07C2797.64 1170.49 2791.35 1154.87 2791.35 1136.2C2791.35 1107.23 2801.26 1082.27 2821.08 1061.31C2840.9 1040.35 2866.81 1029.11 2898.82 1027.58C2891.2 1014.24 2882.63 1004.34 2873.1 997.857C2863.95 990.998 2855.57 986.996 2847.95 985.853C2840.32 984.71 2833.08 984.138 2826.22 984.138C2819.74 983.757 2814.6 982.232 2810.79 979.565C2806.98 976.897 2805.07 971.752 2805.07 964.13C2805.07 956.127 2808.12 949.649 2814.22 944.694C2820.7 939.74 2828.32 937.263 2837.08 937.263C2861.86 937.263 2886.25 949.649 2910.26 974.42C2934.26 999.191 2955.22 1038.06 2973.14 1091.04L2984 1121.33ZM2884.53 1057.88C2870.81 1057.88 2858.43 1062.45 2847.37 1071.6C2836.7 1080.75 2831.37 1092.56 2831.37 1107.04C2831.37 1121.52 2836.13 1133.72 2845.66 1143.63C2855.57 1153.15 2867.38 1157.92 2881.1 1157.92C2894.82 1157.92 2906.63 1153.15 2916.54 1143.63C2926.45 1133.72 2931.41 1122.1 2931.41 1108.76C2931.41 1099.23 2929.69 1090.46 2926.26 1082.46C2922.83 1074.08 2920.74 1068.93 2919.97 1067.03C2910.06 1060.93 2898.25 1057.88 2884.53 1057.88ZM3066.31 1060.74L3062.3 965.274C3062.3 957.271 3064.78 950.601 3069.74 945.266C3075.07 939.931 3081.36 937.263 3088.6 937.263C3095.84 937.263 3101.75 939.931 3106.32 945.266C3110.89 950.22 3113.18 956.508 3113.18 964.13C3113.18 971.752 3112.99 977.469 3112.61 981.28C3134.71 951.935 3158.15 937.263 3182.92 937.263C3211.88 937.263 3232.65 954.603 3245.23 989.283C3269.62 954.603 3295.92 937.263 3324.12 937.263C3360.32 937.263 3383.76 964.13 3394.43 1017.87L3414.44 1116.19C3416.34 1125.33 3420.92 1135.05 3428.16 1145.34C3435.4 1155.25 3439.02 1164.78 3439.02 1173.92C3439.02 1182.69 3436.16 1189.55 3430.44 1194.5C3425.11 1199.08 3418.63 1201.36 3411.01 1201.36C3393.48 1201.36 3382.04 1186.31 3376.71 1156.2L3355.56 1036.73C3352.89 1019.96 3347.37 1006.24 3338.98 995.571C3330.6 984.9 3319.74 979.565 3306.4 979.565C3288.49 979.565 3271.34 994.999 3254.95 1025.87L3273.24 1116.19C3275.15 1125.33 3279.72 1135.05 3286.96 1145.34C3294.2 1155.25 3297.82 1164.78 3297.82 1173.92C3297.82 1182.69 3294.96 1189.55 3289.25 1194.5C3283.91 1199.08 3277.43 1201.36 3269.81 1201.36C3252.28 1201.36 3240.85 1186.31 3235.51 1156.2L3214.36 1036.73C3211.69 1021.1 3205.22 1007.77 3194.93 996.714C3184.64 985.281 3172.25 979.565 3157.77 979.565C3143.67 979.565 3132.24 985.091 3123.47 996.143C3115.09 1007.19 3110.51 1018.25 3109.75 1029.3C3109.37 1039.97 3109.18 1050.45 3109.18 1060.74L3113.18 1173.92C3113.18 1181.93 3110.89 1188.6 3106.32 1193.93C3101.75 1198.89 3095.84 1201.36 3088.6 1201.36C3081.36 1201.36 3075.07 1198.89 3069.74 1193.93C3064.78 1188.6 3062.3 1181.93 3062.3 1173.92L3066.31 1060.74Z" fill="#141414"/>
<path opacity="0.8" d="M644.597 1187.22L635.604 1186.7C631.63 1186.39 628.389 1183.98 628.493 1181.16L628.911 1160.77C629.016 1157.94 632.153 1155.85 636.022 1156.06L644.597 1156.58L644.597 1141.21C629.016 1140.48 613.434 1139.33 597.958 1137.45C594.088 1137.03 590.219 1136.5 586.35 1135.98C582.481 1135.46 578.611 1134.94 574.742 1134.31L563.239 1132.43L551.736 1130.33C536.468 1127.41 521.201 1123.96 506.247 1119.88C491.188 1115.8 476.339 1111.3 461.698 1106.18C459.92 1105.55 458.247 1104.82 456.679 1103.98C455.11 1103.15 453.646 1102.2 452.287 1101.16C449.568 1099.07 447.267 1096.77 445.594 1094.26C442.143 1089.24 440.993 1083.49 442.77 1078.47L530.194 827.803C531.972 822.784 535.109 818.705 538.769 815.986C540.547 814.627 542.534 813.581 544.416 813.058C545.357 812.745 546.298 812.64 547.344 812.535C548.285 812.431 549.226 812.535 550.272 812.745C558.01 814.418 565.958 815.673 573.801 816.823C581.644 817.973 589.592 818.601 597.435 819.124L603.395 819.437L609.356 819.542C611.343 819.647 613.33 819.646 615.317 819.646C617.304 819.646 619.291 819.646 621.278 819.646C629.121 819.542 637.068 819.124 644.911 818.496L644.911 803.019L640.833 803.333C639.055 803.438 637.591 801.346 637.696 798.523L638.218 778.131C638.323 775.307 639.682 772.902 641.251 772.693L644.911 772.275L644.911 756.902C629.121 759.203 613.121 760.144 597.016 759.517C580.912 758.994 564.808 756.902 548.808 753.242C532.808 749.687 516.808 744.563 501.227 737.765C485.646 731.073 470.482 722.811 455.947 713.086L447.058 723.125C448.104 723.857 449.149 724.694 450.3 725.426C451.764 726.367 451.659 728.772 450.091 730.654L438.483 744.458C436.914 746.34 434.3 746.968 432.731 745.922C431.581 745.085 430.431 744.249 429.28 743.412L420.287 753.556C423.633 756.066 426.98 758.471 430.431 760.876L435.555 764.327C437.228 765.477 439.006 766.523 440.783 767.673C447.79 772.17 454.796 776.353 462.117 780.222C469.332 784.091 476.652 787.856 484.077 791.098C491.502 794.444 499.031 797.581 506.665 800.196C508.443 800.928 510.011 801.974 511.266 803.438C512.521 804.902 513.358 806.679 513.88 808.666C515.031 812.64 514.717 817.555 512.73 822.47L412.967 1065.71C410.98 1070.62 406.483 1073.86 400.732 1074.91C397.908 1075.43 394.771 1075.43 391.425 1074.91C388.183 1074.39 384.732 1073.34 381.49 1071.56C367.791 1064.56 354.406 1056.92 341.334 1048.98C328.262 1041.03 315.504 1032.45 303.06 1023.57C290.616 1014.68 278.59 1005.26 266.878 995.539C263.949 993.134 261.021 990.729 258.198 988.115L249.623 980.585C243.976 975.461 238.433 970.337 232.996 965.004L224.107 975.043C226.094 976.925 228.081 978.912 230.068 980.794C232.787 983.304 233.728 986.964 232.159 988.847L220.551 1002.65C218.983 1004.53 215.323 1003.91 212.499 1001.19C210.408 999.199 208.316 997.108 206.329 995.121L197.336 1005.26C226.303 1034.02 257.989 1060.27 291.975 1083.59C325.962 1106.91 362.458 1127.2 400.627 1144.14C438.797 1161.08 478.744 1174.67 519.737 1184.5C560.729 1194.33 602.768 1200.4 644.911 1202.7L644.911 1187.22L644.597 1187.22ZM460.757 763.804C458.247 762.445 455.738 760.876 453.332 759.412C451.659 758.471 451.555 755.961 453.123 753.974L464.103 739.438C465.567 737.452 468.077 736.51 469.646 737.347C471.946 738.602 474.247 739.961 476.548 741.112C478.116 741.948 478.221 744.249 476.757 746.34L466.404 761.504C464.94 763.804 462.43 764.745 460.757 763.804ZM490.561 778.654C487.946 777.503 485.332 776.353 482.822 775.098C481.149 774.262 480.731 771.856 482.09 769.66L491.711 753.765C493.07 751.569 495.371 750.314 496.939 751.046C499.345 752.092 501.75 753.033 504.155 754.079C505.724 754.706 506.037 757.111 504.782 759.307L495.894 775.83C494.639 778.131 492.234 779.386 490.561 778.654ZM521.305 790.157C518.691 789.216 515.972 788.484 513.253 787.542C511.475 786.915 510.952 784.51 512.103 782.105L520.155 764.954C521.305 762.549 523.501 761.085 525.07 761.608C527.475 762.445 529.985 763.072 532.39 763.804C534.063 764.222 534.586 766.523 533.54 769.033L526.22 786.706C525.383 789.216 523.083 790.68 521.305 790.157ZM553.2 798.313C551.841 798.104 550.481 797.791 549.122 797.477L545.043 796.64C543.266 796.222 542.534 793.817 543.37 791.307L549.645 773.007C550.481 770.497 552.573 768.824 554.246 769.033L558.01 769.765C559.265 769.974 560.52 770.288 561.775 770.392C563.448 770.706 564.18 773.007 563.344 775.516L557.906 794.235C557.069 796.954 554.978 798.732 553.2 798.313ZM576.834 802.183C574.951 801.974 574.01 799.673 574.638 796.954L579.134 777.817C579.762 775.203 581.644 773.216 583.213 773.32C585.722 773.53 588.128 773.843 590.637 773.843C592.311 773.948 593.252 776.248 592.729 778.863L589.173 798.418C588.651 801.137 586.768 803.124 584.991 803.019C582.272 802.81 579.553 802.496 576.834 802.183ZM608.729 804.274C606.846 804.274 605.696 801.974 606.01 799.255L608.52 779.386C608.833 776.667 610.506 774.366 612.18 774.366L615.84 774.366L619.604 774.262C621.278 774.157 622.428 776.353 622.219 779.176L620.65 799.359C620.441 802.183 618.768 804.379 616.99 804.379L612.912 804.379L608.729 804.274ZM264.054 1045.94C259.348 1042.39 254.747 1038.62 250.25 1034.86C247.218 1032.35 245.963 1028.69 247.531 1026.7L258.512 1012.17C259.976 1010.18 263.531 1010.49 266.459 1012.79C270.851 1016.35 275.243 1019.9 279.845 1023.36C282.773 1025.66 284.132 1029.21 282.668 1031.3L272.315 1046.47C270.851 1048.66 267.087 1048.35 264.054 1045.94ZM320.628 1085.58C315.609 1082.44 310.589 1079.2 305.57 1075.85C302.328 1073.66 300.655 1070.1 302.014 1067.9L311.635 1052.01C312.995 1049.81 316.55 1049.71 319.792 1051.8C324.498 1054.94 329.413 1057.97 334.223 1061C337.36 1062.99 339.033 1066.44 337.883 1068.74L328.994 1085.26C327.739 1087.56 323.975 1087.67 320.628 1085.58ZM381.386 1119.35C376.052 1116.64 370.615 1114.02 365.386 1111.2C361.83 1109.32 359.948 1105.86 361.098 1103.56L369.151 1086.41C370.301 1084.01 373.856 1083.59 377.307 1085.37C382.431 1087.98 387.556 1090.49 392.68 1093C396.131 1094.68 398.117 1097.92 397.072 1100.32L389.752 1118C388.706 1120.5 385.046 1121.13 381.386 1119.35ZM446.849 1147.17C444.025 1146.13 441.202 1145.08 438.378 1144.03L429.908 1140.79C426.143 1139.33 423.843 1135.98 424.784 1133.58L431.163 1115.28C431.999 1112.77 435.659 1111.93 439.215 1113.29L447.267 1116.32C449.986 1117.37 452.705 1118.31 455.424 1119.25C458.979 1120.5 461.385 1123.64 460.548 1126.26L455.005 1144.97C454.273 1147.48 450.613 1148.53 446.849 1147.17ZM514.09 1167.67C508.233 1166.2 502.377 1164.63 496.521 1163.07C492.652 1162.02 490.038 1158.99 490.665 1156.27L495.162 1137.13C495.789 1134.52 499.24 1133.16 503.005 1134.2C508.547 1135.67 514.194 1137.24 519.841 1138.49C523.606 1139.43 526.22 1142.26 525.697 1144.97L522.142 1164.53C521.619 1167.25 518.063 1168.71 514.09 1167.67ZM583.422 1181.26L574.428 1179.9L565.435 1178.44C561.461 1177.81 558.533 1174.99 558.847 1172.27L561.357 1152.4C561.67 1149.68 565.017 1147.9 568.886 1148.53L577.461 1149.89L586.036 1151.14C589.801 1151.67 592.729 1154.28 592.52 1157.11L590.951 1177.29C590.847 1180.01 587.5 1181.78 583.422 1181.26Z" fill="#141414"/>
<path opacity="0.8" d="M206.012 995.022L199.842 988.957C197.123 986.133 196.286 982.473 197.959 980.591L210.09 967.519C211.763 965.742 215.214 966.474 217.828 969.088L223.789 974.944L232.678 964.905C227.24 959.676 221.907 954.238 216.574 948.801C211.345 943.258 206.221 937.82 201.201 932.069C196.182 926.526 191.267 920.67 186.456 914.919C181.646 909.063 176.94 903.207 172.339 897.246C163.136 885.324 154.352 873.089 146.195 860.436C137.934 847.887 130.091 835.025 122.771 821.953C121.934 820.384 121.098 818.816 120.47 817.142C119.843 815.574 119.425 813.901 119.006 812.332C118.274 809.195 117.961 806.058 118.274 803.234C118.693 797.587 121.098 792.881 125.176 790.685L325.958 677.85C330.036 675.55 334.533 675.027 338.716 675.759C340.807 676.073 342.794 676.805 344.572 677.85C345.408 678.373 346.245 679.001 346.977 679.628C347.709 680.256 348.441 680.988 349.068 681.824C354.088 688.726 359.421 695.314 364.859 701.693C370.297 708.177 376.048 714.347 382.009 720.307C384.937 723.34 388.074 726.163 391.002 729.091C394.14 731.915 397.172 734.843 400.414 737.562C403.551 740.385 406.793 743 410.035 745.614C413.381 748.228 416.518 750.843 419.969 753.248L428.963 743.104L425.512 740.595C424.048 739.444 424.152 737.039 425.825 735.157L437.956 722.085C439.629 720.307 442.139 719.68 443.603 720.726L446.845 722.922L455.733 712.883C441.302 703.157 427.499 691.968 414.741 679.524C401.983 667.079 390.27 653.276 379.813 638.426C369.356 623.577 360.153 607.577 352.415 590.741C344.781 573.904 338.506 556.127 333.905 537.617L322.507 538.977C322.82 540.336 323.134 541.696 323.552 543.16C324.075 545.042 322.716 546.82 320.624 547.133L305.357 549.329C303.265 549.643 301.174 548.284 300.651 546.297C300.337 544.833 299.919 543.369 299.71 541.8L288.207 543.16C291.657 560.414 296.363 577.251 302.324 593.564C305.252 601.721 308.494 609.773 312.049 617.616C315.605 625.459 319.369 633.197 323.448 640.727C323.971 641.668 324.284 642.609 324.598 643.55C324.912 644.491 325.016 645.433 325.121 646.374C325.226 648.256 324.912 650.243 324.284 652.021C322.925 655.681 320.101 659.027 316.023 661.014L111.791 761.718C107.712 763.705 102.798 762.973 98.3008 759.941C96.0002 758.477 93.9088 756.385 91.9219 753.875C90.9807 752.62 90.0394 751.261 89.2029 749.797C88.3663 748.333 87.6343 746.764 87.0068 745.091C81.569 731.183 76.7586 717.065 72.3665 702.843C67.9744 688.621 64.2098 674.295 60.968 659.759C54.3798 630.897 50.0923 601.512 47.8963 572.231L36.4979 573.591C36.707 576.205 36.9161 578.924 37.1253 581.643C37.439 585.198 35.975 588.44 33.8835 588.754L18.6157 590.95C16.5242 591.263 14.5373 588.44 14.2236 584.675C14.0145 581.956 13.8054 579.133 13.5962 576.414L2.09311 577.773C4.4983 616.884 10.4589 655.994 20.0797 694.478C29.7005 732.961 42.8767 770.712 59.3994 807.208C76.0266 843.6 95.8956 878.736 119.006 911.886C142.117 945.036 168.261 976.199 197.227 1004.85L206.012 995.022ZM418.924 701.379C420.91 703.262 423.106 704.935 425.093 706.713C426.453 707.863 426.139 710.164 424.466 711.837L411.708 724.072C409.93 725.745 407.316 726.163 405.852 724.804C403.656 722.817 401.46 720.935 399.368 718.948C397.904 717.588 398.218 715.288 400.1 713.615L413.277 702.111C415.054 700.438 417.564 700.125 418.924 701.379ZM396.231 679.105L399.055 682.138L401.878 685.066C403.133 686.321 402.61 688.621 400.728 690.085L387.133 700.752C385.251 702.216 382.636 702.216 381.382 700.752L378.349 697.51L375.421 694.164C374.061 692.7 374.584 690.399 376.571 689.04L390.48 679.105C392.362 677.746 394.976 677.746 396.231 679.105ZM310.167 580.806C309.644 579.342 309.121 577.878 308.703 576.414L307.344 572.022C306.716 570.035 307.971 568.153 310.062 567.734L325.435 564.597C327.526 564.179 329.722 565.329 330.35 567.107L331.709 571.185C332.127 572.545 332.65 573.904 333.173 575.264C333.801 577.041 332.65 578.924 330.559 579.447L315.187 583.316C313.095 583.839 310.794 582.793 310.167 580.806ZM323.239 613.747L321.356 609.564C320.729 608.204 320.206 606.74 319.579 605.381C318.742 603.499 319.892 601.512 321.984 600.884L337.252 596.074C339.343 595.446 341.748 596.283 342.48 597.956C343.108 599.211 343.631 600.571 344.258 601.825L346.14 605.59C346.977 607.263 345.931 609.25 343.84 609.982L328.676 615.525C326.48 616.466 324.075 615.525 323.239 613.747ZM339.552 644.805L337.252 640.936C336.52 639.681 335.683 638.322 335.056 636.962C334.114 635.184 334.951 633.093 337.042 632.152L352.101 625.668C354.192 624.727 356.598 625.354 357.539 626.923C358.271 628.178 359.003 629.328 359.735 630.479L361.931 634.034C362.872 635.603 362.14 637.694 360.049 638.635L345.199 645.955C343.108 647.106 340.598 646.583 339.552 644.805ZM359.212 674.19C357.434 671.785 355.761 669.38 353.983 666.975C352.833 665.406 353.565 663.106 355.552 661.955L370.192 653.694C372.179 652.544 374.689 652.857 375.839 654.321C377.512 656.517 379.186 658.713 380.859 660.909C382.009 662.374 381.382 664.465 379.395 665.72L365.068 674.713C362.977 676.073 360.467 675.759 359.212 674.19ZM22.5895 650.557C22.0666 647.733 21.5438 644.91 21.1255 642.191L19.7661 633.72C19.1386 629.956 20.3935 626.609 22.5895 626.191L37.9618 623.054C40.0533 622.636 42.2494 625.145 42.8768 628.805L44.2362 636.962C44.6545 639.681 45.282 642.4 45.7003 645.014C46.3277 648.57 45.282 651.916 43.0859 652.439L27.7136 656.308C25.5176 656.831 23.217 654.217 22.5895 650.557ZM37.9618 715.288L35.5567 707.026C34.7201 704.307 34.0927 701.484 33.3606 698.765C32.4195 695.105 33.3606 691.55 35.4521 690.922L50.7198 686.112C52.8113 685.484 55.321 687.785 56.2622 691.34C56.9942 693.955 57.7263 696.674 58.4583 699.288L60.8634 707.236C61.9092 710.687 61.0727 714.242 58.9812 714.974L43.818 720.621C41.622 721.248 39.0075 718.843 37.9618 715.288ZM60.236 778.346L56.9943 770.293C55.9485 767.575 54.7982 764.96 53.857 762.241C52.4976 758.686 53.125 755.026 55.2164 754.189L70.2751 747.706C72.3665 746.764 75.0855 748.856 76.3404 752.307C77.2815 754.921 78.3273 757.431 79.373 760.045L82.5102 767.784C83.8697 771.13 83.4514 774.686 81.4645 775.731L66.615 783.051C64.5235 783.888 61.5955 781.901 60.236 778.346ZM89.4121 839.94C86.5886 834.815 84.0787 829.691 81.3598 824.567C79.5821 821.116 79.8958 817.456 81.8827 816.306L96.523 808.045C98.5099 806.894 101.438 808.672 103.216 811.914C105.83 816.829 108.34 821.744 111.059 826.659C112.837 829.9 112.732 833.456 110.745 834.711L96.4185 843.704C94.4316 845.064 91.2944 843.39 89.4121 839.94ZM124.653 897.56C122.98 895.154 121.412 892.749 119.738 890.344L115.033 883.024C112.941 879.782 112.837 876.017 114.719 874.658L128.732 864.723C130.614 863.364 133.856 864.723 135.843 867.861L140.444 874.867C142.013 877.168 143.581 879.468 145.15 881.769C147.241 884.802 147.45 888.462 145.568 889.926L131.973 900.592C130.091 902.161 126.849 900.801 124.653 897.56ZM165.751 951.624C161.986 947.127 158.222 942.735 154.666 938.134C152.261 935.101 151.738 931.337 153.62 929.768L166.797 918.265C168.574 916.697 171.921 917.742 174.326 920.67C177.777 925.062 181.437 929.245 185.097 933.533C187.502 936.356 188.13 940.016 186.352 941.69L173.594 953.925C171.712 955.598 168.261 954.552 165.751 951.624Z" fill="#141414"/>
<path opacity="0.8" d="M13.3866 576.722L12.8638 568.356C12.6546 564.591 14.2233 561.454 16.3147 561.245L31.5825 559.781C33.6739 559.571 35.4517 562.29 35.7654 565.95L36.2883 574.003L47.6868 572.643L46.9549 561.663C46.7457 558.003 46.6411 554.343 46.432 550.683L46.2228 545.14L46.1182 539.598C46.1182 535.938 46.0137 532.278 46.0137 528.618C46.0137 521.298 46.1183 513.977 46.432 506.762C46.6411 499.651 47.164 491.808 47.6868 484.278C49.9874 453.848 55.007 423.626 62.6409 394.241C64.6278 387.13 67.9741 381.169 71.7388 377.195C75.7126 373.326 80.0001 371.444 83.7647 372.489L271.893 423.835C275.657 424.881 278.69 427.495 280.677 430.737C282.768 434.083 283.814 437.952 283.291 441.926C281.2 458.344 280.572 474.867 281.409 491.389C281.723 499.337 282.559 508.644 283.605 517.324C283.919 519.52 284.232 521.716 284.546 523.912L284.964 527.154L285.487 530.395L286.638 536.879L287.892 543.363L299.395 542.003L298.454 537.506C298.036 535.52 299.396 533.637 301.592 533.533L316.755 532.069C318.846 531.859 320.833 533.219 321.251 535.101L322.193 539.284L333.591 537.925C331.29 528.722 329.408 519.206 327.944 509.69L327.63 507.912L327.421 506.134L327.003 502.474L326.794 500.697L326.689 499.755C326.689 499.442 326.585 499.232 326.585 498.919L326.271 495.677C326.062 493.586 325.853 491.39 325.539 489.298C325.539 488.775 325.434 488.252 325.33 487.729L325.225 486.161L325.016 482.919C323.97 465.769 324.807 448.514 327.63 431.26C330.558 414.005 335.578 396.855 342.584 380.228C344.153 375.94 346.349 371.966 348.231 367.783C349.173 365.692 350.323 363.705 351.369 361.718L354.61 355.653C355.761 353.666 357.016 351.679 358.166 349.692L359.944 346.66L360.78 345.196L361.721 343.732L365.591 337.98C366.218 337.039 366.846 335.993 367.473 335.052L369.564 332.228L362.558 325.64C361.721 326.791 360.885 327.836 360.048 328.987C359.002 330.555 357.016 330.869 355.761 329.719L346.14 321.144C344.78 319.993 344.676 317.693 345.826 316.02C346.767 314.869 347.709 313.719 348.65 312.464L341.643 305.876C319.892 333.065 303.578 363.81 293.435 395.809C292.284 399.678 289.775 402.606 286.638 404.28C283.605 406.057 279.84 406.476 276.285 405.221L94.4312 342.268C90.7711 341.013 88.4706 337.143 87.8431 331.915C87.3203 326.686 88.5751 320.098 91.5032 313.51C116.81 258.713 152.051 209.25 194.404 167.943L187.397 161.355C185.41 163.237 183.423 165.12 181.541 167.002C179.031 169.616 175.894 170.767 174.535 169.616L164.809 161.041C163.45 159.891 164.496 156.754 167.215 154.035C169.201 152.048 171.293 150.166 173.28 148.283L166.273 141.695L160.835 146.819C159.058 148.493 157.385 150.27 155.607 152.048L145.254 162.715L142.64 165.434L140.13 168.152L135.215 173.695C131.973 177.459 128.627 181.12 125.385 184.884L115.973 196.492C112.836 200.361 109.699 204.23 106.771 208.309C100.915 216.361 94.8495 224.413 89.5163 232.883C67.3467 266.347 48.7326 302.53 34.5106 340.699C20.3931 378.868 10.4586 418.92 5.22997 459.599L4.18423 467.233L3.66136 470.998C3.45221 472.253 3.45219 473.507 3.24304 474.867L1.98821 490.239L1.36066 497.978L1.25612 499.86L1.15157 501.638L0.942471 505.298L0.628699 512.513L0.419602 516.173L0.314927 519.833C-0.312516 539.18 0.00122954 558.735 1.25611 578.29L13.3866 576.722ZM311.735 497.978C313.827 497.978 315.5 499.337 315.814 501.324L316.336 505.716L316.65 507.912L316.964 510.108C317.278 512.095 315.814 513.664 313.722 513.768L298.663 514.396C296.572 514.5 294.69 512.932 294.481 510.84L294.167 508.54L293.958 506.239L293.435 501.533C293.226 499.337 294.794 497.978 296.886 497.978L311.735 497.978ZM295.945 464.932L310.376 466.919C312.363 467.233 313.931 468.802 313.931 470.579L313.827 474.553C313.827 475.913 313.931 477.167 314.036 478.527C314.14 480.305 312.572 481.56 310.48 481.455L295.84 480.409C293.853 480.305 292.18 478.631 292.075 476.645C292.075 475.181 291.971 473.717 291.971 472.357L292.18 468.07C292.285 465.978 293.958 464.619 295.945 464.932ZM299.291 431.887L312.99 435.547C314.872 436.07 316.127 437.848 315.918 439.626C315.709 442.344 315.395 444.959 315.081 447.573C314.872 449.351 313.095 450.397 311.212 449.978L297.095 447.05C295.108 446.632 293.853 444.854 294.062 442.867C294.481 440.044 294.794 437.116 295.213 434.188C295.526 432.41 297.409 431.364 299.291 431.887ZM338.611 357.744L327.63 350.32C326.062 349.274 325.748 347.078 326.689 345.405L331.29 337.562C332.336 335.889 334.428 335.366 335.892 336.516L346.244 344.464C347.709 345.614 348.022 347.705 347.081 349.274C345.722 351.784 344.362 354.189 343.003 356.699C342.062 358.267 340.075 358.79 338.611 357.744ZM325.33 387.652L313.095 381.483C311.422 380.646 310.689 378.45 311.421 376.672L313.095 372.489C313.618 371.13 314.35 369.77 314.977 368.411C315.814 366.633 317.801 365.901 319.369 366.842L330.977 373.64C332.545 374.581 333.277 376.672 332.545 378.345C332.022 379.6 331.395 380.855 330.872 382.11L329.513 385.979C328.885 387.757 327.003 388.489 325.33 387.652ZM302.951 400.724C303.474 398.842 305.356 397.901 307.134 398.633L319.892 403.966C321.67 404.698 322.715 406.685 322.297 408.463C321.67 411.077 320.833 413.691 320.206 416.306C319.892 418.083 318.114 418.92 316.232 418.397L303.056 413.796C301.173 413.168 300.128 411.077 300.546 409.195C301.278 406.371 302.114 403.548 302.951 400.724ZM132.705 218.452L121.725 211.028C120.156 209.982 120.888 206.74 123.294 203.707L134.065 190.217C136.574 187.289 139.712 185.93 141.176 186.976L151.528 194.923C152.993 196.074 152.156 199.211 149.751 201.93L139.503 215.001C137.306 217.929 134.169 219.498 132.705 218.452ZM97.0455 272.935L84.8105 266.765C83.1373 265.929 83.3464 262.582 85.3333 259.236L89.7254 251.707C91.1894 249.197 92.8626 246.792 94.4312 244.387C96.5227 241.145 99.5553 239.262 101.124 240.204L112.732 247.001C114.3 247.942 113.987 251.184 112 254.321C110.536 256.726 108.967 259.027 107.503 261.432L103.32 268.648C101.647 271.785 98.7187 273.772 97.0455 272.935ZM68.497 332.019L55.3208 327.418C53.543 326.791 53.2292 323.34 54.6932 319.784C56.9938 314.451 59.5036 309.118 61.9088 303.784C63.582 300.229 66.3009 298.033 68.0787 298.765L80.8366 304.098C82.6144 304.83 82.719 308.177 81.2549 311.523C78.9543 316.647 76.6537 321.771 74.3531 326.895C72.9936 330.346 70.3793 332.647 68.497 332.019ZM47.4777 395.6L33.3603 392.672C31.3734 392.254 30.746 388.907 31.7917 385.143L36.7066 368.202C37.8569 364.437 40.4713 361.927 42.3536 362.45L56.0527 366.11C57.935 366.633 58.458 369.875 57.4122 373.535L52.811 389.849C51.7652 393.404 49.3601 396.018 47.4777 395.6ZM20.4977 459.704C18.5108 459.599 17.2559 456.253 17.7788 452.383C18.1971 449.455 18.5108 446.527 19.0336 443.599L20.6022 434.815C21.3343 430.946 23.5304 428.018 25.5173 428.332L39.9484 430.318C41.9353 430.632 42.981 433.769 42.3536 437.534L40.8895 445.9C40.3667 448.723 40.1576 451.547 39.7393 454.266C39.2164 458.031 37.2294 460.854 35.2425 460.749L20.4977 459.704ZM12.2363 519.833L12.3409 515.651L12.5501 511.468L12.9684 503.102C13.073 499.442 15.0599 496.2 17.1514 496.2L32.1053 496.304C34.1968 496.304 35.5563 499.442 35.4518 502.997L35.138 511.049L35.0334 515.128L34.9289 519.206C34.9289 522.762 33.1511 525.794 31.0596 525.899L16.001 526.526C13.8049 526.526 12.2363 523.598 12.2363 519.833Z" fill="#141414"/>
<path opacity="0.8" d="M408.149 290.296C422.685 277.852 438.789 266.872 456.149 257.669L459.39 255.892L462.737 254.323L469.429 251.186L471.103 250.349L472.776 249.617L476.227 248.153L483.129 245.225L490.135 242.715L493.691 241.46L495.468 240.833L497.246 240.31L504.462 238.114L508.017 236.964L511.677 236.127L519.102 234.349L520.984 233.827C521.612 233.722 522.239 233.617 522.867 233.513L526.631 232.781L534.16 231.317C536.67 230.899 539.18 230.585 541.794 230.271L545.664 229.748L547.546 229.435C548.173 229.33 548.905 229.225 549.428 229.225C551.729 229.016 554.03 228.807 556.33 228.493C558.631 228.18 560.931 228.18 563.232 228.075L566.787 227.866C567.938 227.761 569.088 227.657 570.238 227.761L571.075 220.127C569.716 220.023 568.252 220.127 566.892 220.232C565.01 220.337 563.546 219.186 563.65 217.827L564.382 207.474C564.487 206.01 566.16 204.86 568.252 204.86C569.716 204.86 571.284 204.755 572.748 204.86L573.585 197.226L572.016 197.121L570.343 197.121L567.101 197.121L560.618 197.121L554.134 197.54L550.892 197.644C549.846 197.749 548.801 197.749 547.546 197.853C542.945 198.376 538.344 198.794 533.742 199.213L520.148 201.304C502.056 204.441 484.488 209.147 467.547 215.422C465.456 216.154 463.469 216.572 461.586 216.677C459.6 216.781 457.822 216.677 456.253 216.258C453.011 215.422 450.397 213.435 449.351 210.402L398.11 61.803C397.064 58.7704 398.842 55.3194 402.502 52.0776C404.385 50.509 406.685 48.8359 409.509 47.581C412.332 46.3261 415.469 45.2804 418.816 44.4438C446.946 37.8556 475.599 33.7773 504.252 32.4178C511.363 32.2087 518.579 31.9995 525.69 31.8949L547.023 32.4178C548.801 32.4178 550.683 32.627 552.461 32.7315L558.003 33.1498C561.663 33.4636 565.428 33.6727 569.088 33.9864L580.173 35.3459L585.715 36.0779L588.434 36.3916L591.153 36.8099L591.99 29.176C589.271 28.6532 586.657 28.3394 583.938 28.0257C580.382 27.5029 577.454 26.0388 577.559 24.5748L578.291 14.222C578.395 12.758 581.532 12.026 585.297 12.5488C588.12 12.9671 590.839 13.2808 593.663 13.8037L594.5 6.16984C592.094 5.64697 589.585 5.33325 587.179 5.01953L579.859 3.9738C574.944 3.34635 570.029 2.61434 565.114 2.30062L550.265 1.04573C549.01 0.94116 547.86 0.94116 546.709 0.836586L543.154 0.732014L536.147 0.418289C531.442 0.313716 526.736 -2.96205e-06 522.03 -3.16775e-06L507.913 0.209144L500.802 0.313716C499.651 0.313716 498.396 0.313714 497.246 0.418288L493.691 0.627436L479.469 1.5686L472.357 2.09147L465.247 2.92805L451.024 4.60123L447.469 5.01953L443.914 5.54239L436.802 6.6927L422.685 9.0979C417.979 10.0391 413.273 11.0848 408.672 12.1305L401.666 13.6991L398.11 14.5357L394.659 15.4769L380.751 19.2415L373.745 21.1239L366.843 23.3199C330.033 34.9276 294.373 50.8228 260.7 70.5872C227.132 90.4562 195.656 114.299 166.898 141.383L173.904 147.972L180.074 142.22C182.793 139.606 186.035 138.56 187.29 139.815L196.283 148.808C197.538 150.063 196.388 153.096 193.773 155.606L187.917 161.148L194.924 167.736C216.152 147.135 239.158 128.416 263.524 112.103C287.89 95.7894 313.719 81.672 340.595 70.1689C342.163 69.4369 343.836 68.914 345.405 68.3911C346.974 67.9728 348.542 67.5545 350.111 67.2408C353.144 66.6134 356.072 66.4042 358.581 66.5088C363.706 66.718 367.366 68.3911 368.621 71.4238L430.423 218.873C431.678 221.801 431.155 225.356 429.587 228.702C428.75 230.376 427.6 231.944 426.241 233.408C425.509 234.14 424.777 234.768 423.94 235.395C423.103 236.023 422.162 236.545 421.326 237.173C405.953 246.062 391.522 256.519 378.137 268.022C364.856 279.525 352.621 292.283 341.745 305.773L348.752 312.361L351.575 308.806C352.83 307.237 354.817 306.924 356.072 308.178L365.065 317.172C366.32 318.427 366.424 320.623 365.274 322.191L362.764 325.538L369.771 332.126C380.856 316.963 393.718 302.845 408.149 290.296ZM520.148 8.15674C522.867 8.05216 525.585 8.15674 528.304 8.26131L536.461 8.57503C540.017 8.67961 543.049 9.93449 543.049 11.3985L543.154 21.9605C543.154 23.4245 540.33 24.4702 536.879 24.3656L528.932 24.1565C526.317 24.0519 523.703 24.0519 520.984 24.1565C517.533 24.2611 514.605 23.1108 514.501 21.6467L513.769 10.9802C513.664 9.51619 516.488 8.26131 520.148 8.15674ZM450.397 15.7906C450.083 14.3266 452.802 12.758 456.462 12.2351L472.88 10.3528C476.54 10.0391 479.678 11.0848 479.887 12.5488L481.455 23.3199C481.665 24.7839 478.946 26.248 475.495 26.5617L459.6 28.5486C456.149 28.9669 453.011 28.1303 452.698 26.6663L450.397 15.7906ZM393.195 24.6794C395.914 23.9473 398.529 23.2153 401.247 22.4833L409.404 20.601C412.96 19.7644 416.202 20.3918 416.62 21.8559L419.652 32.7315C420.071 34.1956 417.561 36.0779 414.11 36.9145L406.267 38.7968C403.653 39.4242 401.143 40.2608 398.529 40.8883C395.078 41.8294 391.94 41.4111 391.417 39.9471L387.757 29.0715C387.13 27.712 389.64 25.6205 393.195 24.6794ZM331.079 61.4893L325.85 50.9273C325.118 49.4633 327.314 47.0581 330.765 45.5941L346.451 39.5288C349.902 38.1694 353.248 38.3785 353.876 39.8425L358.372 50.6136C359 52.0776 356.804 54.2737 353.457 55.6331L338.399 61.5938C335.052 62.9533 331.811 63.0579 331.079 61.4893ZM238.426 99.3449L246.06 109.07C247.106 110.43 245.537 113.149 242.609 115.345L235.917 120.05L229.433 125.07C226.61 127.266 223.368 128.103 222.217 126.743L213.956 117.332C212.806 116.077 214.27 113.149 217.302 110.848L224.1 105.724L231.002 100.809C234.034 98.6129 237.381 97.9855 238.426 99.3449ZM300.438 76.1296C301.275 77.5936 299.393 79.9988 296.151 81.672C291.445 84.2863 286.739 87.0052 282.034 89.7241C278.896 91.5019 275.655 91.8156 274.713 90.4562L267.916 80.3125C266.975 78.9531 268.857 76.3387 272.099 74.4564C277.014 71.7375 281.929 68.914 286.844 66.1951C290.19 64.5219 293.537 64.3128 294.373 65.6722L300.438 76.1296ZM531.546 207.683C533.115 207.369 534.788 207.265 536.357 207.056L541.272 206.533C543.468 206.324 545.245 207.265 545.245 208.729L545.35 219.291C545.35 220.755 543.677 222.114 541.69 222.428L537.089 223.056C535.52 223.265 533.951 223.369 532.487 223.683C530.5 224.101 528.723 223.16 528.618 221.696L527.886 211.03C527.781 209.566 529.35 208.101 531.546 207.683ZM491.494 219.082C491.181 217.618 492.645 215.944 494.632 215.422L503.939 212.912C506.03 212.494 507.913 213.33 508.122 214.794L509.586 225.565C509.795 227.029 508.331 228.598 506.344 229.121L497.56 231.631C495.677 232.153 493.795 231.421 493.481 229.957L491.494 219.082ZM456.985 231.944C456.462 230.48 457.613 228.598 459.6 227.761C461.064 227.134 462.528 226.402 463.992 225.879L468.488 224.206C470.475 223.474 472.358 224.101 472.776 225.565L475.808 236.441C476.227 237.905 475.076 239.787 473.194 240.519L469.011 242.192C467.652 242.715 466.292 243.447 464.933 244.075C463.155 244.911 461.273 244.389 460.75 242.924L456.985 231.944ZM426.241 244.389L434.502 239.787C436.384 238.742 438.266 239.055 438.894 240.624L443.391 251.29C444.018 252.754 443.181 254.741 441.404 255.787C438.894 257.356 436.28 258.82 433.77 260.284C432.097 261.329 430.214 261.12 429.482 259.656L424.254 249.094C423.626 247.63 424.463 245.539 426.241 244.389ZM401.666 279.944L394.868 269.8C393.927 268.44 394.555 266.244 396.123 264.99C398.633 263.107 401.038 261.12 403.548 259.238C405.221 258.088 407.313 258.297 408.149 259.656L414.215 270.009C415.051 271.473 414.424 273.565 412.855 274.61L406.058 280.153C404.594 281.512 402.607 281.303 401.666 279.944ZM377.091 303.577L368.83 294.166C367.679 292.806 367.888 290.61 369.352 289.146L372.594 285.8L375.941 282.662C377.405 281.303 379.496 281.198 380.542 282.558L388.176 292.283C389.221 293.643 388.908 295.839 387.548 297.198L384.411 300.231L381.483 303.473C380.124 304.727 378.241 304.832 377.091 303.577Z" fill="#141414"/>
<path opacity="0.8" d="M765.696 348.334L763.814 344.046C762.873 342.164 762.873 340.386 763.814 339.968L771.029 337.144C772.075 336.726 773.644 338.085 774.585 340.072L776.572 344.569L782.01 342.687C778.454 334.007 774.062 325.641 769.565 317.484C769.043 316.439 768.415 315.498 767.788 314.452L766.01 311.419L764.232 308.387C763.605 307.445 763.082 306.4 762.35 305.458L758.376 299.707L756.389 296.779C755.762 295.838 755.03 294.897 754.298 293.955C743.317 279.001 730.664 265.407 716.86 253.381C713.409 250.662 711.004 247.316 709.854 244.388C708.599 241.459 708.599 238.741 710.168 236.858L790.376 144.938C791.944 143.056 795.395 143.265 799.787 145.252C803.97 147.343 808.99 151.108 813.8 156.127C833.146 177.356 849.878 200.676 863.786 225.46C864.623 227.028 865.564 228.492 866.401 230.061L868.806 234.767L873.616 244.178C874.453 245.747 875.185 247.42 875.917 248.989L878.113 253.799L880.309 258.61C881.041 260.178 881.773 261.851 882.4 263.525C887.734 276.596 892.649 289.877 896.413 303.472L901.851 301.589L899.76 294.165C898.714 290.923 898.609 287.89 899.655 287.472L906.871 284.648C907.812 284.23 909.589 286.74 910.635 290.086L912.727 297.72L918.165 295.838L916.282 289.145C915.655 286.949 914.923 284.753 914.191 282.557L909.903 269.276C906.661 260.596 903.524 251.812 899.655 243.342L896.831 236.963C896.309 235.917 895.89 234.871 895.367 233.721L893.799 230.584L887.524 218.035C885.328 213.852 883.028 209.878 880.727 205.695C879.577 203.708 878.427 201.617 877.276 199.525L873.616 193.565L869.851 187.604C868.597 185.617 867.342 183.63 865.982 181.643L857.93 170.036C856.571 168.049 855.107 166.166 853.747 164.389L849.46 158.742L845.172 153.095C843.708 151.212 842.14 149.435 840.676 147.657C828.65 133.017 815.369 119.318 801.251 106.455C797.696 103.318 794.14 100.076 790.48 96.9387L779.709 88.1546C776.049 85.1219 772.075 82.2984 768.206 79.475C764.337 76.6515 760.467 73.7234 756.389 71.1091L744.259 63.1615C740.18 60.6517 735.997 58.1419 731.814 55.7367C729.723 54.4819 727.631 53.227 725.54 52.0767L719.056 48.6257L712.573 45.2794C710.377 44.1291 708.285 42.9788 705.985 42.0376L692.704 35.8678C690.508 34.822 688.207 33.8809 686.011 32.9397L679.214 30.1162L672.417 27.3973C670.116 26.5607 667.815 25.7241 665.515 24.8875C660.914 23.3189 656.208 21.6457 651.606 20.0771C642.195 17.3582 632.783 14.3256 623.162 12.1295L615.947 10.4564L612.391 9.72435C611.136 9.41063 609.986 9.20148 608.731 8.99234L594.195 6.27342L593.359 13.9073L601.62 15.3713C605.28 15.9988 608.208 17.7765 607.999 19.136L606.535 29.175C606.326 30.5345 603.293 31.1619 599.738 30.5345L591.79 29.175L590.954 36.8089C620.234 41.4102 648.888 49.3578 676.077 60.338C677.75 60.9654 679.528 61.6974 681.201 62.3249L686.22 64.5209L696.259 69.0176C699.606 70.5862 702.847 72.2594 706.089 73.9325L711.004 76.4423C712.573 77.2789 714.246 78.1155 715.815 79.0567L725.331 84.4945L730.037 87.2134C731.605 88.1546 733.174 89.0957 734.638 90.1415L743.84 95.9976C744.572 96.5205 745.409 96.9387 746.141 97.4616L748.337 99.0302L752.834 102.167C755.657 104.154 758.271 106.35 760.467 108.442C762.559 110.638 764.337 112.939 765.696 114.925C768.311 119.108 769.147 122.559 767.683 124.651L693.854 224.937C692.39 226.924 689.462 227.865 686.011 227.656C684.338 227.551 682.456 227.237 680.573 226.61C678.586 226.087 676.704 225.355 674.717 224.309C658.927 215.839 642.299 209.146 625.254 204.65C608.208 200.153 590.849 197.643 573.49 197.016L572.653 204.65L577.15 204.859C579.137 204.963 580.601 206.114 580.392 207.473L578.928 217.512C578.719 218.872 577.045 220.022 575.163 220.022L570.98 219.917L570.144 227.551C572.444 227.551 574.745 227.551 577.15 227.551C577.777 227.551 578.3 227.551 578.928 227.551L580.705 227.656L584.156 227.865C588.862 227.969 593.463 228.702 598.169 229.015L605.176 230.166C606.326 230.375 607.581 230.479 608.731 230.688L612.182 231.42L615.633 232.152C616.783 232.362 618.038 232.571 619.189 232.884C621.489 233.512 623.79 234.139 626.09 234.662C627.241 234.976 628.391 235.29 629.541 235.708L632.992 236.754L636.443 237.799C637.594 238.113 638.744 238.636 639.894 239.054L646.691 241.564C648.888 242.505 651.188 243.551 653.384 244.492C655.685 245.329 657.776 246.584 660.077 247.629C662.273 248.78 664.574 249.721 666.665 250.976C668.861 252.126 670.952 253.381 673.253 254.531L679.632 258.4C687.998 263.734 696.364 269.59 703.998 276.178C704.939 277.014 705.985 277.747 706.926 278.583L709.749 281.197L712.573 283.812C713.514 284.648 714.455 285.485 715.396 286.426L720.834 291.864C721.775 292.805 722.612 293.746 723.448 294.687L726.063 297.615L728.677 300.544C729.514 301.485 730.246 302.53 731.082 303.576C732.651 305.563 734.429 307.55 735.997 309.641L740.599 315.916L741.749 317.484C742.167 318.007 742.481 318.53 742.795 319.158L744.991 322.399C748.023 326.687 750.428 331.288 753.252 335.785L756.912 342.791C757.539 343.942 758.167 345.092 758.69 346.347L760.363 349.902L765.696 348.334ZM888.047 232.048C890.557 236.858 892.649 241.878 894.845 246.793C896.309 250.035 896.622 253.172 895.681 253.59L888.57 257.146C887.629 257.564 885.642 255.472 884.178 252.231C882.087 247.42 879.995 242.61 877.485 238.009C875.917 234.871 875.394 231.943 876.44 231.316L883.446 227.237C884.283 226.715 886.479 228.806 888.047 232.048ZM855.839 177.67L860.545 184.362L862.845 187.709L865.041 191.16C867.028 194.192 867.76 197.225 866.819 197.852L860.022 202.663C859.08 203.29 856.78 201.512 854.898 198.48L852.701 195.133L850.401 191.892L845.8 185.408C843.813 182.585 842.871 179.656 843.708 178.924L850.296 173.487C851.342 172.859 853.747 174.742 855.839 177.67ZM661.123 46.9526C655.998 45.1748 650.77 43.3971 645.646 41.7239C642.195 40.6781 639.58 38.7958 639.894 37.5409L642.195 27.8156C642.508 26.4561 645.646 26.247 649.306 27.2927C654.744 28.9659 660.077 30.9528 665.41 32.7305C667.188 33.358 668.757 34.1946 669.698 35.0312C670.743 35.8678 671.266 36.8089 671.057 37.4364L668.129 46.7434C667.92 47.3709 667.083 47.6846 665.828 47.6846C664.469 47.7892 662.796 47.4754 661.123 46.9526ZM718.743 72.7822C717.592 72.0502 716.338 71.4228 715.187 70.8999L711.632 69.0176L704.416 65.3575C702.847 64.5209 701.488 63.5798 700.547 62.6386C699.606 61.6974 699.187 60.8609 699.501 60.2334L703.161 51.3447C703.475 50.7172 704.311 50.5081 705.566 50.6126C706.821 50.7172 708.39 51.3447 710.063 52.1812L717.488 56.0505L721.252 58.0374C722.507 58.6648 723.762 59.3968 724.912 60.0243C728.154 61.9066 730.246 64.3118 729.618 65.5667L725.331 74.0371C724.912 75.0829 721.88 74.56 718.743 72.7822ZM770.925 107.292L764.65 102.272L758.167 97.5662C755.239 95.4747 753.461 92.965 754.089 91.9192L759.003 84.0762C759.631 83.0305 762.664 83.8671 765.592 86.0631L772.284 90.9781L778.768 96.2067C781.696 98.5074 783.369 101.226 782.637 102.167L777.304 109.488C776.572 110.533 773.748 109.592 770.925 107.292ZM803.029 132.389L808.885 125.696C809.722 124.755 812.441 126.115 815.055 128.625C818.82 132.598 822.584 136.677 826.349 140.651C828.859 143.265 830.009 146.297 829.172 147.134L823.003 153.199C822.166 154.036 819.656 152.467 817.251 149.958C813.591 146.088 809.931 142.219 806.271 138.35C803.656 136.049 802.192 133.33 803.029 132.389ZM608.208 223.577C605.385 223.159 602.561 222.636 599.738 222.218C597.856 222.009 596.601 220.754 596.914 219.394L599.215 209.669C599.529 208.31 601.411 207.473 603.503 207.787C606.535 208.31 609.568 208.937 612.6 209.46C613.646 209.669 614.483 210.087 615.006 210.61C615.528 211.238 615.738 211.865 615.528 212.493L612.6 221.8C612.391 222.427 611.868 222.95 611.136 223.264C610.091 223.577 609.15 223.787 608.208 223.577ZM640.94 232.362C640.312 232.048 639.58 231.839 638.848 231.63L636.757 230.898L632.574 229.538C631.633 229.224 630.901 228.701 630.483 228.074C630.064 227.551 629.855 226.819 630.169 226.296L633.829 217.408C634.038 216.78 634.77 216.362 635.502 216.153C636.339 215.944 637.28 216.048 638.221 216.362L642.613 217.93L644.809 218.662C645.541 218.872 646.273 219.185 647.005 219.499C648.887 220.336 650.038 221.904 649.41 223.055L645.123 231.42C644.705 232.675 642.822 233.094 640.94 232.362ZM672.417 246.793L668.547 244.597L664.469 242.61C662.691 241.773 661.855 240.1 662.482 239.054L667.397 231.211C668.129 230.166 670.116 230.061 671.998 231.002L676.286 233.198L680.364 235.603C682.246 236.649 683.083 238.427 682.351 239.368L677.018 246.688C676.181 247.734 674.194 247.734 672.417 246.793ZM702.115 266.662L694.9 261.015C693.227 259.864 692.495 258.191 693.331 257.25L699.187 250.557C700.024 249.616 702.011 249.93 703.789 251.185L711.318 257.25C712.991 258.61 713.619 260.492 712.677 261.328L706.508 267.394C705.671 268.335 703.789 267.917 702.115 266.662ZM728.259 291.341L726.69 289.563L725.017 287.89L721.775 284.544C720.311 283.08 719.997 281.302 720.834 280.465L727.422 275.028C728.363 274.296 730.246 274.923 731.71 276.596L735.056 280.152L736.729 281.929L738.298 283.812C739.657 285.485 740.076 287.367 739.134 287.995L732.337 292.805C731.501 293.642 729.618 292.91 728.259 291.341ZM750.324 320.203C748.546 317.589 746.978 314.87 745.095 312.36C743.84 310.687 743.736 308.805 744.677 308.282L751.683 304.204C752.624 303.576 754.402 304.622 755.657 306.4C757.644 309.119 759.213 311.942 760.99 314.766C762.141 316.648 762.35 318.53 761.304 319.053L754.089 322.504C753.252 323.027 751.474 321.981 750.324 320.203Z" fill="#141414"/>
<path opacity="0.8" d="M816.725 646.893C820.176 643.965 823.627 641.142 827.077 638.214L837.012 629.011L846.528 619.286C849.665 616.044 852.593 612.593 855.626 609.142C879.469 581.639 898.71 549.431 911.782 514.503C918.37 497.039 923.285 478.843 926.632 460.334C927.573 455.733 928.2 451.027 928.828 446.321L929.769 439.314C929.978 437.014 930.187 434.609 930.396 432.308C931.442 422.687 931.546 413.903 931.965 404.805C932.069 402.505 931.965 400.309 931.965 398.008L931.86 391.211L931.756 384.413C931.756 382.113 931.546 379.917 931.442 377.616L930.605 363.917L929.037 350.322C928.723 348.022 928.514 345.721 928.2 343.525L927.05 336.728L925.9 329.931C925.481 327.63 925.167 325.329 924.645 323.133L921.717 309.643C921.507 308.493 921.194 307.343 920.985 306.297L920.148 302.951L918.37 296.258L912.932 298.14L915.024 305.774C915.442 307.447 915.651 309.12 915.547 310.375C915.442 311.63 915.128 312.467 914.71 312.571L907.39 314.767C906.867 314.976 906.24 314.349 905.717 313.408C905.194 312.362 904.567 311.003 904.044 309.33L901.952 301.905L896.514 303.787C904.253 330.872 908.959 358.584 910.423 386.296L910.736 396.648L910.841 401.877C910.841 402.714 910.946 403.655 910.841 404.491L910.736 407.106L910.527 417.459L910.423 422.583L910.109 427.916C909.795 431.471 909.586 435.027 909.272 438.582L907.913 449.249C907.495 452.804 906.867 456.36 906.24 459.811L905.298 465.04C904.985 466.817 904.671 468.491 904.253 470.268C902.684 476.961 900.697 482.922 898.188 486.895C895.782 490.974 893.482 493.17 891.808 492.752L805.012 471.209C803.235 470.791 801.98 468.491 801.352 465.353C800.725 462.216 800.307 458.033 800.829 453.537C801.039 452.386 801.039 451.236 801.143 450.086L801.352 446.635C801.457 444.334 801.666 442.033 801.562 439.733L801.562 432.831L801.248 425.929L801.039 422.478L800.725 418.818L799.993 411.602L799.784 409.825C799.679 409.197 799.575 408.674 799.575 408.047L799.052 404.491L798.006 397.38C794.764 378.453 789.222 360.152 781.902 342.793L776.464 344.675L778.451 349.172C778.869 350.218 779.078 351.159 778.974 351.996C778.869 352.832 778.555 353.355 778.137 353.46L770.817 355.656C770.294 355.76 769.667 355.551 769.144 355.028C768.621 354.505 767.993 353.669 767.575 352.728L765.588 348.44L760.15 350.322L761.824 353.878L762.66 355.656C762.974 356.283 763.183 356.911 763.392 357.538L766.425 364.963C766.948 366.218 767.366 367.472 767.784 368.727L769.144 372.492L770.503 376.257C770.921 377.511 771.235 378.871 771.653 380.126L773.954 387.864L775.836 395.812C776.15 397.171 776.568 398.426 776.777 399.786L777.51 403.759L778.242 407.838C778.451 409.197 778.764 410.557 778.974 411.916C780.542 423.21 781.483 432.936 781.483 443.288C781.483 453.537 780.542 463.889 778.66 474.138C774.791 494.634 767.157 514.817 755.967 533.431C754.503 535.731 753.144 538.032 751.575 540.333L746.869 547.025L741.85 553.613C740.072 555.705 738.294 557.796 736.517 559.992C729.196 568.358 721.04 576.097 712.256 583.103L714.347 586.345L718.321 583.312C719.994 581.848 721.772 581.116 722.086 581.744L725.118 586.031C725.537 586.659 724.386 588.332 722.608 589.796L718.425 592.933L720.517 596.175C724.491 593.351 728.255 590.11 732.02 587.077C733.902 585.508 735.68 583.731 737.458 582.162C738.399 581.325 739.34 580.593 740.177 579.652L742.791 577.038L745.405 574.424L746.66 573.169L747.915 571.809L752.83 566.476C754.399 564.594 755.967 562.711 757.536 560.934C758.268 559.992 759.105 559.051 759.837 558.11L762.033 555.182L764.229 552.254L765.274 550.79L766.32 549.326L770.399 543.365C771.758 541.378 772.908 539.287 774.163 537.3C774.791 536.254 775.418 535.313 776.046 534.267L777.719 531.13L779.392 527.993C780.019 526.947 780.542 525.901 781.065 524.856L784.202 518.477C784.725 517.431 785.143 516.281 785.666 515.235L787.026 511.993L788.385 508.751L789.64 505.405C790.372 503.314 791.313 501.327 792.254 499.653C793.091 497.876 794.137 496.412 795.078 495.157C797.065 492.752 799.156 491.497 800.725 492.124L882.292 521.718C883.965 522.346 884.384 525.379 883.652 529.771C883.233 531.967 882.606 534.581 881.665 537.405C880.619 540.123 879.364 543.156 877.796 546.084L875.39 550.79L872.776 555.391L870.162 559.992C869.221 561.456 868.489 563.025 867.443 564.489L861.796 573.273C860.855 574.737 859.809 576.201 858.868 577.561L855.835 581.848L852.803 586.136C851.757 587.495 850.607 588.855 849.561 590.214C847.365 592.933 845.273 595.757 843.077 598.371L836.28 606.214L834.607 608.201L832.829 610.083L829.274 613.848L825.718 617.612C824.463 618.867 823.208 620.018 821.953 621.273C819.444 623.678 816.934 626.083 814.424 628.384L806.581 635.181L804.594 636.854L802.607 638.423L798.529 641.56L794.45 644.697C793.091 645.743 791.627 646.684 790.267 647.73C787.444 649.717 784.725 651.703 781.797 653.69C776.046 657.35 770.294 661.115 764.333 664.461L766.425 667.703L772.908 664.043C775.732 662.265 778.346 661.324 778.764 661.847L781.797 666.135C782.215 666.762 780.228 668.644 777.3 670.422L770.608 674.187L772.699 677.429C787.758 668.226 802.712 658.187 816.725 646.893ZM914.606 368.204L914.396 366.322L914.187 364.44L913.664 360.571L912.723 352.937C912.305 349.486 912.723 346.662 913.664 346.453L920.88 344.989C921.926 344.78 923.076 347.394 923.494 350.95L924.436 358.897L924.854 362.871L925.063 364.858L925.167 366.845C925.377 370.4 924.854 373.329 923.808 373.433L916.592 374.374C915.86 374.27 914.815 371.655 914.606 368.204ZM916.592 434.295C915.651 434.295 915.128 431.367 915.338 427.916C915.86 422.583 915.86 417.563 916.07 412.439C916.174 409.093 917.011 406.269 917.952 406.269L924.958 405.956C925.9 405.956 926.632 408.674 926.527 412.125C926.318 417.354 926.213 422.478 925.69 428.021C925.377 431.681 924.331 434.504 923.39 434.504L916.592 434.295ZM779.706 388.073L779.392 386.923L779.078 385.773L778.451 383.472L777.091 378.766C776.568 376.675 776.882 374.897 777.823 374.688L785.039 373.224C786.085 373.015 787.34 374.583 787.862 376.779L789.117 381.694L789.745 384.204L790.058 385.459L790.268 386.714C790.686 388.91 790.267 390.792 789.326 391.002L782.111 391.943C781.274 391.838 780.124 390.269 779.706 388.073ZM787.862 429.38C786.921 429.38 785.98 427.602 785.875 425.615C785.771 422.687 785.248 419.236 784.83 415.995C784.516 413.799 785.143 412.021 786.085 412.021L793.091 411.707C794.032 411.707 795.078 413.485 795.287 415.785C795.601 419.236 796.124 422.687 796.228 425.929C796.333 428.125 795.705 429.798 794.764 429.798L787.862 429.38ZM792.673 467.34L786.398 465.772C785.562 465.562 785.039 463.68 785.248 461.693C785.771 458.661 785.875 455.419 786.085 452.386C786.189 451.34 786.398 450.504 786.817 449.876C787.13 449.249 787.549 448.935 787.967 448.935L794.555 449.876C794.973 449.981 795.392 450.399 795.705 451.236C795.915 451.968 796.019 453.014 795.915 454.059C795.601 457.301 795.392 460.648 794.869 463.889C794.555 465.981 793.614 467.549 792.673 467.34ZM748.961 553.3L753.039 557.169C753.562 557.692 752.83 559.574 751.471 561.352C750.425 562.711 749.275 563.966 748.124 565.326L744.673 569.195C743.941 570.032 743.105 570.659 742.373 571.077C741.641 571.391 741.118 571.496 740.909 571.182L737.353 567.103C737.144 566.79 737.249 566.267 737.562 565.535C737.876 564.803 738.504 563.966 739.236 563.13L742.477 559.365C743.523 558.11 744.673 556.855 745.719 555.6C746.869 553.823 748.333 552.777 748.961 553.3ZM769.353 520.882L774.372 524.019C775.104 524.437 774.791 526.424 773.745 528.411L772.595 530.712L771.967 531.862L771.34 532.908L768.725 537.3C768.098 538.241 767.471 539.078 766.948 539.496C766.32 540.019 765.797 540.123 765.484 539.914L760.882 536.463C760.569 536.254 760.569 535.627 760.673 534.895C760.778 534.058 761.196 533.117 761.719 532.176L764.124 527.888L764.752 526.843L765.274 525.797L766.425 523.601C767.261 521.719 768.621 520.464 769.353 520.882ZM788.699 492.333L787.235 497.144C786.712 498.712 786.085 500.281 785.562 501.849C784.83 503.941 783.575 505.405 782.843 504.987L777.3 502.372C776.568 501.954 776.464 500.072 777.091 498.085C777.614 496.621 778.137 495.052 778.555 493.588L779.81 488.987C780.333 487 781.483 485.536 782.32 485.85L788.281 488.046C789.222 488.255 789.326 490.242 788.699 492.333ZM911.259 496.307L904.88 494.739C904.044 494.529 904.044 491.601 905.089 488.255C906.658 483.235 907.704 478.111 908.854 472.987C909.272 471.314 909.795 469.745 910.318 468.7C910.841 467.654 911.364 467.026 911.782 467.026L918.37 467.968C918.788 468.072 919.102 468.804 919.207 469.955C919.207 471.105 918.998 472.778 918.684 474.556C917.429 479.889 916.279 485.118 914.606 490.346C913.664 493.902 912.096 496.516 911.259 496.307ZM886.684 554.555L881.142 551.94C880.41 551.627 881.037 548.803 882.606 545.77C883.756 543.47 885.011 541.169 886.162 538.764L889.403 531.653C890.867 528.516 892.645 526.215 893.482 526.529L899.442 528.725C900.279 529.039 899.756 531.862 898.188 535.104L894.737 542.424C893.482 544.829 892.227 547.234 890.972 549.535C889.403 552.672 887.416 554.868 886.684 554.555ZM851.652 605.168L847.051 601.717C846.737 601.508 846.946 600.776 847.469 599.73C847.992 598.685 848.829 597.43 849.874 596.07L854.685 590.005L855.94 588.436L857.09 586.868L859.391 583.731C861.378 581.012 863.574 579.025 864.306 579.443L869.325 582.58C870.057 582.999 868.907 585.718 866.815 588.541L864.515 591.783L863.364 593.351L862.11 594.92L857.09 601.09C855.94 602.449 854.894 603.6 853.953 604.332C852.698 605.064 851.966 605.377 851.652 605.168ZM807.731 647.102L804.176 643.024C803.967 642.71 804.28 642.083 804.908 641.246C805.64 640.41 806.79 639.364 808.045 638.214L813.797 633.299C815.679 631.625 817.666 630.057 819.548 628.279C821.953 625.978 824.463 624.514 824.986 625.037L829.064 628.906C829.587 629.429 828.019 631.834 825.509 634.135C823.627 635.913 821.64 637.586 819.548 639.364L813.587 644.383C812.228 645.534 810.869 646.37 809.823 646.893C808.777 647.207 808.045 647.416 807.731 647.102Z" fill="#141414"/>
<path opacity="0.8" d="M673.978 710.512L680.461 709.466C682.658 709.048 684.749 708.839 686.945 708.316L699.808 705.597L712.566 702.251C716.749 700.996 720.932 699.636 725.114 698.277C741.846 692.63 758.055 685.414 773.741 676.839L771.65 673.598C769.454 674.853 767.258 676.107 764.957 677.258C761.924 678.826 759.101 679.558 758.787 678.931L756.277 674.539C755.964 673.911 758.055 672.238 760.983 670.774C763.179 669.624 765.271 668.369 767.467 667.114L765.375 663.872C759.519 667.323 753.349 670.356 747.284 673.388C741.114 676.212 734.944 679.14 728.565 681.441C722.291 684.055 715.807 686.146 709.428 688.238C706.187 689.284 702.945 690.12 699.703 691.061C698.03 691.48 696.461 692.003 694.788 692.421L689.873 693.571L684.958 694.721C683.285 695.14 681.716 695.453 680.043 695.767L670.109 697.545C668.436 697.859 666.762 698.068 665.089 698.277L660.07 698.904L655.05 699.532C653.377 699.741 651.704 699.846 650.031 699.95L639.992 700.682L629.952 700.996C628.279 700.996 626.606 701.1 624.933 701.1L619.913 700.996L614.894 700.891L612.384 700.787C611.547 700.787 610.711 700.787 609.874 700.682C606.633 700.473 603.495 700.055 600.672 699.636C597.848 699.218 595.339 698.486 593.247 697.963C591.156 697.336 589.482 696.708 588.332 696.081C587.182 695.454 586.659 694.826 586.659 694.199L592.515 640.343C592.515 639.82 593.143 639.297 594.084 638.879C595.025 638.461 596.384 638.043 597.953 637.624C599.522 637.311 601.404 637.101 603.495 636.788C605.587 636.474 607.783 636.265 610.188 636.16C630.58 634.801 650.658 630.827 669.377 623.821L672.932 622.566C674.083 622.147 675.233 621.625 676.383 621.102C678.684 620.161 680.984 619.219 683.285 618.174C687.782 615.978 692.278 613.991 696.67 611.585C701.062 609.389 705.245 606.671 709.533 604.161C713.611 601.337 717.794 598.828 721.664 595.69L719.572 592.448C718.213 593.494 716.853 594.54 715.389 595.586C713.507 596.841 711.624 597.468 711.311 596.841L708.801 592.448C708.487 591.821 709.638 590.357 711.52 588.998C712.879 588.056 714.134 586.906 715.494 585.965L713.402 582.723C704.618 589.73 695.102 596.004 684.958 601.442C682.448 602.697 679.834 604.056 677.324 605.416L669.481 608.971L661.429 612.213C660.07 612.84 658.71 613.154 657.351 613.677L653.272 615.036C642.188 618.592 630.685 621.206 618.868 622.879L614.371 623.402C612.907 623.611 611.338 623.821 609.979 623.925L605.691 624.239L603.6 624.448C602.868 624.448 602.136 624.448 601.508 624.553C598.685 624.553 595.757 624.762 592.933 624.657L588.646 624.553C587.182 624.553 585.822 624.343 584.358 624.239C572.96 623.402 561.457 621.311 550.267 617.964C539.078 614.514 528.098 609.703 517.745 603.847C507.392 597.886 497.458 590.775 488.464 582.409C479.471 574.148 471.314 564.736 464.099 554.488L462.426 555.429L465.563 559.926C467.027 561.913 468.073 563.586 467.759 563.795L465.563 565.259C465.249 565.468 463.785 564.004 462.321 562.018L459.184 557.416L457.511 558.358C463.262 567.246 469.746 575.508 476.857 583.037C484.072 590.671 491.811 597.468 500.177 603.638C516.804 615.873 535.313 624.971 554.66 630.409C556.96 631.036 559.156 631.664 561.143 632.396C563.13 633.023 564.908 633.65 566.372 634.278C569.3 635.637 570.973 636.788 570.764 637.833L558.529 687.924C558.32 688.97 555.496 689.179 551.313 688.447C549.222 688.133 546.712 687.61 543.993 686.774C541.274 685.937 538.451 684.892 535.418 683.741C510.634 673.388 487.941 658.644 468.7 640.657C459.079 631.664 450.295 621.834 442.452 611.376C434.714 600.919 427.916 589.73 422.165 578.122L420.492 579.063L423.629 585.337C425.197 588.161 426.138 590.462 425.825 590.671L423.629 592.135C423.315 592.344 421.746 590.252 420.282 587.429L417.145 581.05L415.472 581.991C422.583 596.945 431.472 611.272 441.825 624.553C452.177 637.833 464.203 649.964 477.38 660.84C490.66 671.611 505.092 681.127 520.673 688.865C536.255 696.604 552.777 702.669 569.927 706.852C572.019 707.375 574.215 708.002 576.411 708.316L582.894 709.571C587.286 710.512 591.574 711.035 595.966 711.662C597.012 711.872 598.162 711.976 599.208 712.081L602.554 712.394L609.142 713.022C611.338 713.231 613.43 713.336 615.626 713.44L622.005 713.754C639.364 713.963 656.723 713.022 673.978 710.512ZM703.259 699.741L701.795 695.244C701.585 694.617 703.991 693.467 707.232 692.525C709.638 691.898 712.043 691.061 714.343 690.329L721.454 687.924C723.023 687.401 724.487 686.983 725.637 686.774C726.683 686.565 727.52 686.669 727.624 686.878L729.611 691.375C729.716 691.689 729.193 692.212 728.252 692.735C727.311 693.362 725.951 693.989 724.278 694.512L716.958 696.918C714.552 697.754 712.147 698.486 709.638 699.114C706.187 700.159 703.468 700.368 703.259 699.741ZM675.651 616.605L674.187 612.108C673.978 611.481 675.547 610.226 677.638 609.285C679.207 608.657 680.775 607.821 682.344 607.089L686.945 604.788C687.991 604.265 688.932 603.952 689.664 603.742C690.396 603.533 690.919 603.638 691.024 603.952L693.01 608.344C693.115 608.657 692.801 609.18 692.278 609.703C691.651 610.331 690.814 610.958 689.769 611.376L684.958 613.677C683.39 614.514 681.716 615.246 680.148 615.873C677.847 616.919 675.86 617.128 675.651 616.605ZM491.811 593.913C490.347 592.762 488.987 591.507 487.628 590.252C486.268 588.998 484.804 587.743 483.549 586.488C481.772 584.71 480.621 583.141 480.935 582.828L483.131 580.945C483.445 580.736 485.118 581.887 486.791 583.56C488.046 584.815 489.51 585.965 490.87 587.22C492.229 588.37 493.589 589.625 495.053 590.775C496.935 592.239 498.19 593.703 497.981 594.017L495.889 596.213C495.471 596.527 493.693 595.481 491.811 593.913ZM635.39 624.448C635.286 623.821 637.168 622.984 639.364 622.461L641.978 621.938C642.815 621.729 643.652 621.415 644.488 621.206L649.508 619.847C651.704 619.324 653.586 619.115 653.795 619.742L654.736 624.134C654.841 624.762 653.168 625.807 650.763 626.33L645.534 627.69C644.697 627.899 643.756 628.213 642.92 628.317L640.305 628.84C637.9 629.363 636.018 629.258 635.913 628.631L635.39 624.448ZM527.679 617.232C524.333 615.768 521.196 613.886 517.954 612.213C515.863 611.063 514.399 609.599 514.608 609.285L516.49 606.671C516.804 606.252 518.582 606.984 520.673 608.135C523.81 609.808 526.947 611.481 530.189 612.945C532.281 613.886 533.849 615.036 533.64 615.455L532.072 618.383C531.862 618.801 529.876 618.278 527.679 617.232ZM567.522 630.513L562.293 629.468L557.065 628.108C555.914 627.794 554.869 627.481 554.241 627.062C553.509 626.644 553.195 626.33 553.3 626.121L554.555 622.775C554.66 622.566 555.182 622.461 555.914 622.566C556.751 622.67 557.797 622.775 558.842 622.984L563.862 624.239L568.986 625.18C570.136 625.389 571.078 625.703 571.81 626.017C572.542 626.33 572.96 626.54 572.855 626.853L571.914 630.513C571.81 630.722 571.287 630.932 570.555 630.932C569.718 630.827 568.672 630.722 567.522 630.513ZM598.58 633.546C596.175 633.546 594.397 633.128 594.397 632.605L594.816 628.631C594.92 628.108 596.803 627.585 598.999 627.585C600.672 627.481 602.45 627.585 604.123 627.481L609.247 627.167C611.443 627.062 613.43 627.271 613.43 627.794L613.43 631.873C613.43 632.396 611.443 633.128 609.142 633.232L603.809 633.546C602.136 633.546 600.358 633.441 598.58 633.546ZM452.805 633.755C451.132 631.977 449.563 629.99 447.994 628.213C446.426 626.33 444.753 624.448 443.289 622.566C441.302 619.951 439.942 617.651 440.256 617.442L442.452 615.559C442.766 615.35 444.543 617.128 446.53 619.638C447.994 621.52 449.668 623.298 451.132 625.18C452.7 626.958 454.269 628.84 455.942 630.618C458.138 632.918 459.707 635.115 459.393 635.428L457.301 637.624C457.092 637.833 455.001 636.16 452.805 633.755ZM496.412 671.402C492.229 668.683 488.151 665.65 484.177 662.722C481.563 660.735 479.68 658.644 479.889 658.33L481.772 655.716C482.085 655.297 484.281 656.761 486.896 658.644C490.87 661.467 494.739 664.395 498.922 667.009C501.641 668.787 503.732 670.565 503.418 670.983L501.85 673.911C501.641 674.434 499.131 673.284 496.412 671.402ZM553.091 698.591C552.045 698.382 550.477 697.963 548.908 697.44L541.692 694.931L534.581 692.003C533.013 691.375 531.653 690.748 530.712 690.12C529.771 689.493 529.248 688.97 529.353 688.761L530.608 685.414C530.712 685.205 531.34 685.205 532.385 685.519C533.431 685.833 534.791 686.251 536.359 686.878L543.261 689.597L550.267 692.003C551.836 692.525 553.195 693.153 554.241 693.676C555.287 694.094 555.81 694.512 555.81 694.826L554.869 698.486C554.973 698.695 554.241 698.8 553.091 698.591ZM671.364 701.833L672.305 706.225C672.409 706.852 669.9 707.793 666.553 708.107L659.024 708.944C657.769 709.048 656.514 709.257 655.259 709.362L651.495 709.571C648.148 709.78 645.429 709.466 645.325 708.839L644.802 704.551C644.697 703.924 647.312 703.296 650.553 703.087L654.214 702.774C655.468 702.669 656.619 702.46 657.874 702.355L665.194 701.414C668.54 701.205 671.259 701.205 671.364 701.833ZM608.097 709.571L600.463 708.944C597.953 708.734 595.339 708.316 592.829 707.898C589.483 707.375 586.764 706.643 586.868 706.015L587.286 702.042C587.391 701.519 590.005 701.414 593.352 701.937C595.861 702.251 598.267 702.669 600.776 702.878L608.306 703.506C611.652 703.819 614.266 704.342 614.266 704.865L614.266 708.944C614.162 709.571 611.548 709.989 608.097 709.571Z" fill="#141414"/>
<path opacity="0.8" d="M570.659 314.45C568.253 314.24 565.744 314.136 563.338 314.031C563.652 314.031 564.07 314.031 564.384 314.136L568.149 314.345C567.103 314.345 566.057 314.24 565.012 314.24L570.659 314.45ZM415.89 580.798L414.321 577.557L412.857 574.315C411.602 571.387 410.766 568.877 411.079 568.772L413.275 567.727C413.589 567.622 414.844 569.818 416.099 572.642L417.563 575.884L419.131 579.021L420.805 578.08C409.302 554.864 402.086 529.767 399.576 504.564C399.262 501.427 399.053 498.185 398.844 495.048C398.74 493.48 398.74 491.911 398.635 490.342L398.53 485.637C398.426 482.499 398.635 479.362 398.635 476.225C398.635 474.656 398.74 473.088 398.844 471.519L399.262 466.709C400.308 453.951 402.713 441.402 406.583 429.376C407.628 426.448 408.57 423.729 409.511 421.324C410.556 418.919 411.498 416.723 412.439 414.945C414.217 411.389 415.576 409.298 415.994 409.402L433.563 416.513C433.876 416.618 433.563 418.814 432.726 422.265C432.412 423.938 431.994 426.03 431.471 428.226C431.053 430.422 430.53 432.931 430.007 435.441C427.916 446.108 427.184 456.879 427.497 467.65L427.602 471.624C427.707 472.983 427.811 474.343 427.916 475.702C428.229 478.421 428.334 481.14 428.752 483.859L429.275 487.937C429.484 489.297 429.589 490.656 429.903 491.911L431.471 499.859C436.072 520.982 444.543 540.851 456.046 558.524L457.719 557.583L456.151 555.283L454.686 552.877C453.432 550.681 452.595 548.799 452.909 548.694L455.105 547.649C455.418 547.544 456.778 549.113 458.033 551.204L459.497 553.505L461.066 555.701L462.739 554.76C448.412 534.263 438.687 510.107 434.608 484.382C433.981 481.14 433.667 477.898 433.354 474.656L433.04 472.251L432.831 469.846L432.517 465.036L432.412 460.225L432.412 457.82L432.517 455.415L432.726 450.604L433.144 445.794C433.249 444.225 433.458 442.552 433.667 440.984C433.876 439.415 434.086 437.742 434.399 436.173C435.027 432.931 435.549 429.794 436.386 426.552C437.118 423.311 438.059 420.278 439 417.036C439.523 415.468 440.046 413.899 440.569 412.33L441.406 410.03L442.347 407.729C452.072 383.05 469.222 360.567 491.601 344.044C492.96 342.998 494.424 342.057 495.888 341.011C497.353 339.965 498.712 339.024 500.281 338.083L504.777 335.364L509.379 332.75C510.111 332.332 510.947 331.913 511.679 331.495L514.084 330.345C515.653 329.613 517.222 328.776 518.895 328.044C522.136 326.685 525.378 325.221 528.725 323.966C540.855 319.365 553.613 316.436 566.789 315.077L564.489 315.286C563.757 315.391 563.129 315.391 562.502 315.495C561.875 315.6 561.352 315.704 560.933 315.704C559.992 315.809 559.469 315.914 559.469 315.914L559.469 315.809C559.469 315.809 559.992 315.704 560.933 315.6C561.352 315.495 561.979 315.495 562.502 315.391C563.129 315.286 563.757 315.286 564.489 315.182L570.763 314.659C547.339 316.018 524.542 322.711 504.464 333.796C494.425 339.338 485.222 346.031 476.752 353.56C468.386 361.089 460.752 369.455 454.373 378.658C451.236 383.05 448.621 387.128 446.739 390.056C444.857 392.984 443.497 394.762 443.288 394.553L429.38 386.082C429.066 385.873 430.216 383.782 432.412 380.54C434.608 377.298 437.85 373.011 441.824 368.514C450.085 359.312 459.288 351.155 469.327 344.148C479.261 337.142 489.928 331.181 501.117 326.58C521.509 318.214 543.469 314.136 565.012 314.554L564.593 314.554C563.861 314.554 563.234 314.45 562.607 314.45C561.979 314.45 561.456 314.45 560.933 314.45C559.992 314.45 559.469 314.45 559.469 314.45L559.469 314.345C559.469 314.345 560.097 314.345 561.038 314.345L562.607 314.345C550.79 314.031 538.868 314.868 527.051 317.378C523.391 318.005 519.836 319.051 516.176 319.887C514.398 320.306 512.62 320.933 510.843 321.456L508.124 322.293C507.287 322.606 506.346 322.92 505.509 323.234L500.176 325.116L494.947 327.312C493.17 328.044 491.496 328.881 489.823 329.613C488.15 330.449 486.372 331.181 484.699 332.122C457.719 346.031 434.19 367.887 417.877 395.076L416.308 397.586L414.844 400.2C413.903 401.978 412.962 403.651 412.021 405.429C410.347 408.984 408.465 412.54 407.001 416.304C405.328 419.964 404.073 423.729 402.713 427.494C401.981 429.376 401.458 431.363 400.831 433.245C400.204 435.127 399.576 437.114 399.158 439.101L397.694 444.957C397.276 446.944 396.857 448.931 396.439 450.918L395.812 453.951L395.393 456.983L394.557 463.049L393.929 469.114L393.616 472.147L393.511 475.179C393.302 479.153 393.093 483.127 393.197 487.205C393.093 519.309 400.099 552.145 414.426 582.053L415.89 580.798ZM439.628 511.362L440.464 514.081L440.883 515.44L441.406 516.799L443.393 522.133C443.811 523.283 444.229 524.329 444.438 525.165C444.647 526.002 444.752 526.42 444.543 526.525L442.347 527.257C442.242 527.257 441.824 526.838 441.406 526.106C440.987 525.374 440.464 524.329 440.046 523.074L438.059 517.636L437.536 516.277L437.118 514.917L436.282 512.198C435.55 509.688 435.131 507.702 435.445 507.597L437.536 507.179C437.955 506.97 438.791 508.956 439.628 511.362ZM430.844 462.944C430.948 462.944 431.053 463.467 431.157 464.304C431.262 465.14 431.367 466.29 431.471 467.545L431.68 470.369L431.785 471.728L431.994 473.192L432.621 478.944C432.726 479.571 432.726 480.199 432.726 480.722C432.831 481.244 432.831 481.767 432.831 482.186C432.831 483.022 432.831 483.545 432.726 483.545L430.844 483.65C430.739 483.65 430.53 483.127 430.321 482.29C430.216 481.872 430.112 481.349 430.007 480.826C429.903 480.303 429.903 479.676 429.798 478.944L429.275 473.088L429.171 471.624L429.171 470.16L429.066 467.232C429.066 465.977 428.961 464.826 429.066 463.99C429.17 463.153 429.275 462.63 429.38 462.63L430.844 462.944ZM437.118 418.605C437.327 418.709 436.804 420.696 436.072 423.206L434.713 428.853C434.295 430.735 433.981 432.618 433.563 434.5C433.458 435.127 433.249 435.755 433.144 436.278C433.04 436.801 432.935 437.324 432.831 437.742C432.622 438.578 432.517 439.101 432.412 438.997L430.948 438.683C430.844 438.683 430.844 438.16 430.948 437.219C430.948 436.801 431.053 436.278 431.053 435.755C431.157 435.232 431.262 434.605 431.367 433.977C431.785 432.095 432.203 430.108 432.621 428.226L434.086 422.579C434.818 420.069 435.654 418.082 435.759 418.187L437.118 418.605ZM512.62 329.717C512.62 329.717 513.143 329.404 513.875 328.985C514.712 328.567 515.862 328.044 517.012 327.417C520.882 325.743 524.751 324.07 528.725 322.815C530.084 322.397 531.234 321.874 532.071 321.665C532.489 321.561 532.908 321.456 533.117 321.351C533.326 321.247 533.535 321.247 533.535 321.247L533.64 321.561C533.64 321.561 533.535 321.665 533.221 321.665C533.012 321.77 532.594 321.874 532.176 321.979C531.339 322.293 530.084 322.711 528.829 323.234C524.855 324.593 521.091 326.266 517.222 327.94C515.967 328.567 514.816 329.09 513.98 329.404C513.143 329.717 512.725 330.031 512.62 330.031L512.62 329.717ZM473.614 357.22C473.51 357.116 474.974 355.442 477.065 353.769C480.098 350.946 483.235 348.436 486.477 345.822C487.627 344.985 488.568 344.253 489.3 343.835C490.032 343.312 490.555 342.998 490.555 343.103L490.869 343.626C490.869 343.73 490.451 344.044 489.823 344.567C489.091 345.09 488.15 345.926 487.104 346.658C483.967 349.273 480.83 351.782 477.797 354.606C475.81 356.384 474.242 357.952 474.137 357.848L473.614 357.22ZM509.483 321.979C509.483 321.979 510.006 321.77 510.947 321.456C511.888 321.142 513.143 320.724 514.503 320.306C518.79 319.155 522.973 318.005 527.261 317.168C528.725 316.855 529.979 316.646 530.921 316.436C531.339 316.332 531.757 316.332 532.071 316.332C532.385 316.332 532.489 316.227 532.489 316.332L532.594 316.646C532.594 316.646 532.489 316.646 532.176 316.75C531.862 316.75 531.548 316.855 531.13 316.959C530.189 317.168 528.934 317.482 527.574 317.796C523.287 318.632 519.104 319.783 514.921 321.038C513.562 321.456 512.307 321.874 511.365 322.188C510.424 322.502 509.901 322.606 509.901 322.606L509.483 321.979ZM463.68 345.612C463.575 345.508 465.458 343.939 467.967 342.371C471.627 339.756 475.497 337.456 479.366 335.26C480.621 334.528 481.876 333.9 482.712 333.482C483.549 333.064 484.072 332.75 484.176 332.854L484.49 333.377C484.49 333.482 483.967 333.796 483.235 334.214C482.399 334.737 481.248 335.364 479.993 336.096C476.229 338.397 472.359 340.698 468.804 343.312C466.399 344.985 464.412 346.344 464.307 346.344L463.68 345.612ZM426.765 383.05C426.661 382.945 428.02 380.854 429.798 378.449C430.425 377.507 431.157 376.671 431.889 375.73L434.086 373.115C435.55 371.338 437.014 369.664 438.582 367.991C439.628 366.841 440.569 365.9 441.197 365.168C441.929 364.436 442.451 364.122 442.451 364.122L443.183 364.749C443.288 364.749 442.87 365.272 442.242 366.004C441.615 366.736 440.778 367.782 439.733 368.932C438.268 370.606 436.7 372.279 435.34 374.056L433.249 376.671C432.517 377.507 431.785 378.449 431.157 379.39C429.38 381.795 427.811 383.677 427.707 383.677L426.765 383.05ZM445.589 394.762C445.484 394.657 446.425 392.671 447.68 390.37C448.098 389.429 448.621 388.592 449.249 387.756L450.817 385.246C451.863 383.468 453.013 381.899 454.164 380.226C454.896 379.076 455.628 378.135 456.151 377.403C456.673 376.775 457.092 376.357 457.196 376.357L457.928 376.985C457.928 376.985 457.719 377.507 457.196 378.239C456.778 378.971 456.151 380.017 455.419 381.168C454.268 382.841 453.223 384.514 452.177 386.187L450.608 388.801C450.085 389.638 449.562 390.475 449.144 391.416C447.889 393.716 446.843 395.494 446.634 395.494L445.589 394.762ZM402.609 431.99C402.504 431.99 402.609 431.363 402.818 430.317C402.923 429.794 403.132 429.271 403.236 428.539C403.445 427.912 403.655 427.18 403.968 426.448C404.805 424.252 405.537 422.056 406.374 419.86L409.092 413.376C410.347 410.553 411.602 408.357 411.811 408.461L413.066 408.984C413.275 409.089 412.334 411.389 411.079 414.108L408.465 420.487C407.628 422.683 406.896 424.879 406.164 427.075C405.851 427.807 405.641 428.539 405.432 429.062C405.223 429.69 405.014 430.317 404.805 430.735C404.491 431.677 404.178 432.304 404.073 432.199L402.609 431.99ZM394.557 484.486C394.557 483.963 394.452 483.336 394.452 482.708C394.452 482.081 394.452 481.349 394.452 480.512L394.766 473.506L394.87 471.728L395.079 469.95L395.393 466.395C395.498 464.826 395.707 463.362 395.916 462.421C396.125 461.375 396.334 460.748 396.439 460.748L398.217 460.853C398.321 460.853 398.321 461.48 398.321 462.526C398.321 463.571 398.217 464.931 398.112 466.5L397.799 469.95L397.694 471.728L397.589 473.401L397.38 480.303C397.276 481.872 397.276 483.231 397.171 484.277C397.066 485.323 396.962 485.95 396.857 485.95L394.975 486.055C394.766 486.055 394.557 485.427 394.557 484.486ZM400.936 538.969C400.622 538.028 400.099 536.668 399.89 535.1L398.426 528.093L398.112 526.316L397.799 524.538L397.276 520.982C396.753 517.845 396.648 515.335 396.857 515.231L398.949 514.813C399.263 514.813 399.89 517.218 400.413 520.25L401.04 523.701L401.354 525.479L401.772 527.152L403.341 534.054C403.655 535.623 403.968 536.982 404.177 538.028C404.387 539.074 404.387 539.701 404.177 539.701L401.981 540.433C401.668 540.538 401.354 540.015 400.936 538.969Z" fill="#141414"/>
</svg>
