<svg width="3150" height="2392" viewBox="0 0 3150 2392" fill="none" xmlns="http://www.w3.org/2000/svg">
<path d="M1524.24 1014.7C1524.09 1014.5 1524.09 1014.5 1523.95 1014.29L1440.03 836.165C1439.8 835.404 1439.69 833.941 1440.01 833.095C1440.34 832.249 1441.43 831.173 1442.04 830.738L1620.17 746.818C1620.93 746.588 1622.39 746.479 1623.24 746.805C1624.09 747.132 1625.16 748.219 1625.6 748.836L1709.52 926.962C1710.41 929.101 1709.49 931.289 1707.71 932.244L1529.58 1016.16C1528.82 1016.39 1527.36 1016.5 1526.51 1016.18C1525.6 1016.2 1524.67 1015.32 1524.24 1014.7ZM1446.64 835.499L1528.42 1009.29L1702.21 927.507L1620.63 753.575L1446.64 835.499Z" fill="#141414"/>
<path d="M1507.95 1021.28C1507.8 1021.07 1507.51 1020.66 1507.57 1020.31L1433.51 819.52C1432.61 817.381 1433.74 815.048 1436.02 814.359L1636.81 740.297C1637.57 740.067 1639.18 740.163 1640.03 740.49C1640.87 740.816 1641.74 742.048 1642.18 742.665L1716.24 943.455C1717.14 945.595 1716.01 947.928 1713.73 948.617L1512.94 1022.68C1512.18 1022.91 1510.57 1022.81 1509.72 1022.49C1508.82 1022.51 1508.38 1021.89 1507.95 1021.28ZM1440.21 819.41L1512.48 1015.92L1708.99 943.65L1636.72 747.138L1440.21 819.41Z" fill="#141414"/>
<path d="M1489.53 1026.6C1489.24 1026.19 1488.95 1025.78 1489.01 1025.43L1427.91 800.701C1427.68 799.939 1427.77 798.332 1428.45 797.546C1428.98 796.555 1429.8 795.975 1430.98 795.455L1655.7 734.357C1656.46 734.127 1658.07 734.223 1658.86 734.9C1659.5 735.371 1660.57 736.459 1660.95 737.425L1722.05 962.15C1722.28 962.912 1722.18 964.519 1721.5 965.305C1721.03 965.946 1719.94 967.022 1718.98 967.397L1494.25 1028.49C1493.49 1028.72 1491.88 1028.63 1491.1 1027.95C1490.4 1027.83 1489.96 1027.21 1489.53 1026.6ZM1434.63 801.497L1494.7 1021.71L1714.91 961.644L1654.85 741.427L1434.63 801.497Z" fill="#141414"/>
<path d="M1469.27 1031.05C1468.84 1030.43 1468.4 1029.81 1468.32 1029.26L1423.31 780.235C1422.97 778.011 1424.45 775.738 1426.67 775.4L1675.69 730.396C1676.45 730.166 1678.21 730.467 1678.99 731.144C1679.98 731.676 1680.5 732.848 1680.67 733.96L1725.68 982.983C1725.91 983.744 1725.61 985.497 1725.13 986.137C1724.66 986.778 1723.22 987.794 1722.32 987.818L1473.3 1032.82C1472.53 1033.05 1470.78 1032.75 1470.14 1032.28C1469.85 1031.87 1469.56 1031.46 1469.27 1031.05ZM1430.18 781.237L1474.3 1025.96L1719.02 981.836L1674.9 737.116L1430.18 781.237Z" fill="#141414"/>
<path d="M1446.66 1033.47C1446.22 1032.86 1445.99 1032.1 1445.76 1031.33L1420.74 757.422C1420.61 755.053 1422.23 752.986 1424.6 752.852L1698.51 727.834C1700.88 727.7 1702.95 729.32 1703.08 731.689L1728.1 1005.6C1728.23 1007.97 1726.61 1010.04 1724.24 1010.17L1450.33 1035.19C1449.22 1035.36 1448.02 1034.97 1447.24 1034.3C1447.09 1034.09 1446.95 1033.88 1446.66 1033.47ZM1427.49 759.124L1452.18 1028.65L1721.7 1003.96L1697.01 734.434L1427.49 759.124Z" fill="#141414"/>
<path d="M1422.18 1034.12C1421.6 1033.3 1421.37 1032.54 1421.35 1031.63L1420.15 732.587C1420.18 731.33 1420.71 730.338 1421.39 729.553C1422.27 728.622 1423.24 728.247 1424.5 728.283L1723.54 727.082C1726.06 727.154 1727.92 728.918 1727.85 731.432L1729.05 1030.48C1728.98 1032.99 1727.01 1035 1724.7 1034.78L1425.65 1035.98C1424.39 1035.95 1423.4 1035.42 1422.62 1034.74C1422.47 1034.53 1422.33 1034.33 1422.18 1034.12ZM1426.62 734.785L1427.64 1029.65L1722.51 1028.63L1721.49 733.766L1426.62 734.785Z" fill="#141414"/>
<path d="M1395.55 1032.61C1394.97 1031.78 1394.6 1030.82 1394.64 1029.56L1421.52 705.754C1421.55 704.497 1422.09 703.506 1423.11 702.78C1424.14 702.055 1425.11 701.68 1426.36 701.716L1750.17 728.599C1751.43 728.635 1752.42 729.166 1753.14 730.194C1753.87 731.221 1754.24 732.188 1754.21 733.445L1727.32 1057.25C1727.29 1058.51 1726.76 1059.5 1725.73 1060.22C1724.7 1060.95 1723.74 1061.32 1722.48 1061.29L1398.67 1034.41C1397.42 1034.37 1396.28 1033.63 1395.55 1032.61ZM1428.14 708.158L1401.37 1028.19L1721.4 1054.97L1748.18 734.933L1428.14 708.158Z" fill="#141414"/>
<path d="M1366.9 1028.21C1366.17 1027.19 1365.86 1025.87 1366.04 1024.82L1425.97 676.746C1426.15 675.695 1426.89 674.558 1427.92 673.833C1428.94 673.108 1430.26 672.793 1431.31 672.974L1779.38 732.909C1781.84 733.331 1783.58 735.797 1783.16 738.25L1723.22 1086.32C1723.04 1087.37 1722.3 1088.51 1721.28 1089.23C1720.25 1089.96 1718.93 1090.27 1717.88 1090.09L1369.81 1030.16C1368.76 1029.98 1367.62 1029.24 1366.9 1028.21ZM1431.98 679.585L1372.65 1024.15L1717.21 1083.48L1776.54 738.917L1431.98 679.585Z" fill="#141414"/>
<path d="M1336.21 1020.94C1336.06 1020.74 1336.06 1020.74 1335.92 1020.53C1335.19 1019.5 1335.08 1018.04 1335.47 1016.84L1433.3 645.703C1433.93 643.104 1436.54 641.569 1439.14 642.197L1810.43 740.235C1811.62 740.622 1812.76 741.359 1813.28 742.531C1814 743.558 1814.11 745.021 1813.73 746.217L1715.89 1117.36C1715.27 1119.96 1712.66 1121.49 1710.06 1120.86L1338.77 1022.83C1337.93 1022.5 1336.79 1021.76 1336.21 1020.94ZM1439.05 649.038L1342.11 1017.08L1710.15 1114.02L1807.09 745.977L1439.05 649.038Z" fill="#141414"/>
<path d="M1303.6 1010.11C1303.46 1009.91 1303.31 1009.7 1303.17 1009.5C1302.65 1008.32 1302.54 1006.86 1302.93 1005.66L1444 612.916C1444.39 611.719 1445.27 610.788 1446.65 610.123C1447.82 609.603 1449.28 609.494 1450.48 609.881L1843.23 750.955C1844.42 751.342 1845.36 752.224 1846.02 753.601C1846.54 754.774 1846.65 756.236 1846.26 757.433L1705.19 1150.18C1704.8 1151.38 1703.92 1152.31 1702.54 1152.97C1701.37 1153.49 1699.91 1153.6 1698.71 1153.22L1305.96 1012.14C1305.18 1011.47 1304.19 1010.93 1303.6 1010.11ZM1449.68 616.601L1309.65 1006.46L1699.51 1146.5L1839.54 756.637L1449.68 616.601Z" fill="#141414"/>
<path d="M1269.5 995.395C1269.21 994.984 1269.07 994.778 1268.98 994.222C1268.46 993.05 1268.71 991.648 1269.09 990.451L1459.13 578.523C1460.31 575.84 1463.35 574.92 1465.69 576.044L1877.62 766.077C1878.96 766.669 1879.68 767.696 1880.2 768.868C1880.72 770.041 1880.48 771.443 1880.1 772.64L1690.06 1184.57C1688.88 1187.25 1685.83 1188.17 1683.5 1187.05L1271.57 997.014C1270.73 996.688 1269.94 996.011 1269.5 995.395ZM1464.4 582.499L1275.55 991.743L1684.79 1180.59L1873.64 771.348L1464.4 582.499Z" fill="#141414"/>
<path d="M1234.03 976.101C1233.74 975.69 1233.3 975.074 1233.22 974.518C1232.9 973.201 1233.14 971.798 1233.74 970.457L1478.67 542.538C1480 540.06 1483.4 539.201 1485.67 540.675L1913.59 785.614C1914.73 786.351 1915.8 787.439 1916.12 788.756C1916.43 790.073 1916.19 791.476 1915.6 792.817L1670.66 1220.74C1669.33 1223.21 1665.93 1224.07 1663.66 1222.6L1235.74 977.66C1235.1 977.189 1234.46 976.717 1234.03 976.101ZM1483.53 546.803L1239.86 972.595L1665.65 1216.27L1909.32 790.474L1483.53 546.803Z" fill="#141414"/>
<path d="M1197.23 951.905C1196.79 951.289 1196.56 950.527 1196.33 949.766C1196.02 948.449 1196.47 946.901 1197.2 945.765L1503.08 505.602C1503.82 504.465 1505.05 503.595 1506.51 503.486C1507.83 503.171 1509.38 503.618 1510.51 504.355L1950.74 809.882C1951.87 810.619 1952.74 811.851 1952.85 813.314C1953.17 814.631 1952.72 816.178 1951.98 817.315L1646.46 1257.54C1644.78 1259.96 1641.44 1260.46 1639.02 1258.78L1198.8 953.258C1198.16 952.787 1197.66 952.521 1197.23 951.905ZM1507.53 510.157L1203.21 948.604L1641.66 1252.92L1945.98 814.476L1507.53 510.157Z" fill="#141414"/>
<path d="M1159.94 922.205C1158.49 920.151 1158.41 917.431 1160.18 915.57L1532.7 467.753C1534.73 465.396 1538.21 465.093 1540.57 467.123L1988.38 839.644C1989.66 840.586 1990.33 841.964 1990.44 843.426C1990.55 844.889 1990.1 846.436 1989.22 847.367L1616.49 1295.33C1614.46 1297.69 1610.98 1297.99 1608.62 1295.96L1161.01 923.293C1160.52 923.027 1160.23 922.616 1159.94 922.205ZM1537.09 472.659L1165.71 919.049L1612.1 1290.42L1983.48 844.032L1537.09 472.659Z" fill="#141414"/>
<path d="M1122.21 886.642C1120.61 884.382 1120.8 881.167 1122.92 879.365L1568.8 429.925C1570.98 427.773 1574.6 427.676 1576.9 430.056L2026.34 875.943C2028.49 878.118 2028.59 881.744 2026.21 884.041L1580.32 1333.48C1579.24 1334.56 1577.86 1335.22 1576.25 1335.13C1574.79 1335.23 1573.3 1334.44 1572.23 1333.35L1122.99 887.318C1122.64 887.258 1122.35 886.847 1122.21 886.642ZM1572.84 434.771L1127.84 883.28L1576.35 1328.28L2021.35 879.775L1572.84 434.771Z" fill="#141414"/>
<path d="M1084.72 844.472C1083.85 843.239 1083.53 841.922 1083.77 840.52C1083.87 838.912 1084.67 837.425 1085.9 836.555L1611.4 392.162C1613.93 390.07 1617.84 390.384 1619.94 392.909L2064.33 918.411C2065.41 919.499 2065.86 921.021 2065.77 922.629C2065.67 924.236 2064.87 925.723 2063.64 926.594L1538.14 1370.99C1535.61 1373.08 1531.7 1372.77 1529.61 1370.24L1085.21 844.738C1085.01 844.883 1084.86 844.677 1084.72 844.472ZM2058.84 921.978L1614.74 396.887L1089.94 841.401L1534.45 1366.2L2058.84 921.978Z" fill="#141414"/>
<path d="M1479.71 1406.4L1048.23 795.416C1046.2 792.54 1046.86 788.684 1049.74 786.653L1660.72 355.174C1663.59 353.143 1667.45 353.807 1669.48 356.683L2100.96 967.664C2102.99 970.54 2102.33 974.396 2099.45 976.427L1488.47 1407.91C1485.8 1409.79 1481.74 1409.27 1479.71 1406.4ZM1664.14 360.455L1053.51 791.994L1485.05 1402.62L2095.47 971.231L1664.14 360.455Z" fill="#141414"/>
<path d="M1422.66 1441.14C1422.51 1440.94 1422.37 1440.73 1422.37 1440.73L1013.13 738.298C1011.3 735.277 1012.38 731.131 1015.55 729.511L1717.98 320.276C1721 318.45 1725.15 319.525 1726.77 322.691L2136 1025.12C2137.83 1028.15 2136.75 1032.29 2133.59 1033.91L1431.15 1443.15C1428.34 1444.83 1424.69 1444.02 1422.66 1441.14ZM1721.2 325.702L1018.56 735.082L1427.94 1437.72L2130.64 1027.99L1721.2 325.702Z" fill="#141414"/>
<path d="M1357.72 1473.45C1357.43 1473.04 1357.29 1472.83 1357 1472.42L980.325 673.093C979.515 671.51 979.466 669.697 980.119 668.005C980.771 666.312 981.919 664.886 983.647 664.281L1782.97 287.611C1786.49 286.051 1790.37 287.621 1791.99 290.787L2168.81 1090.32C2169.62 1091.9 2169.67 1093.72 2169.01 1095.41C2168.36 1097.1 2167.21 1098.53 2165.48 1099.13L1366.16 1475.8C1364.58 1476.61 1362.76 1476.66 1361.07 1476.01C1359.73 1475.42 1358.59 1474.68 1357.72 1473.45ZM1786.33 293.242L986.307 669.792L1362.71 1469.61L2162.74 1093.06C2162.95 1092.92 2162.95 1092.92 2162.8 1092.71L1786.33 293.242Z" fill="#141414"/>
<path d="M1284.18 1502.31C1283.89 1501.89 1283.46 1501.28 1283.37 1500.72L951.339 599.363C950.735 597.635 950.891 595.677 951.544 593.985C952.196 592.292 953.694 590.926 955.423 590.321L1856.78 258.289C1858.51 257.684 1860.47 257.841 1862.16 258.493C1864 259.351 1865.22 260.644 1865.82 262.372L2197.86 1163.73C2198.46 1165.46 2198.3 1167.42 2197.65 1169.11C2197 1170.8 2195.5 1172.17 2193.77 1172.77L1292.41 1504.81C1290.69 1505.41 1288.73 1505.25 1287.04 1504.6C1285.84 1504.21 1284.91 1503.33 1284.18 1502.31ZM1859.88 264.416C1859.73 264.21 1859.38 264.15 1859.03 264.09L957.612 596.473C957.406 596.618 957.14 597.114 957.285 597.319L1289.52 1498.53C1289.67 1498.74 1290.16 1499 1290.37 1498.86L2191.58 1166.62C2191.79 1166.48 2192.05 1165.98 2191.91 1165.77L1859.88 264.416Z" fill="#141414"/>
<path d="M1202.01 1526.76C1201.57 1526.14 1201.2 1525.17 1200.97 1524.41L926.72 516.968C925.776 513.016 927.903 509.051 931.915 507.757L1939.36 233.512C1941.23 233.112 1943.19 233.269 1945.03 234.127C1946.66 235.13 1948.03 236.628 1948.42 238.501L2222.67 1245.94C2223.61 1249.9 2221.49 1253.86 2217.47 1255.16L1210.03 1529.4C1206.99 1530.32 1203.75 1529.22 1202.01 1526.76ZM1941.98 240.279C1941.69 239.869 1941.34 239.808 1940.99 239.748L933.548 513.993C932.992 514.078 932.726 514.574 932.811 515.13L1207.06 1522.57C1207.14 1523.13 1207.64 1523.4 1208.19 1523.31L2215.64 1249.06C2216.19 1248.98 2216.46 1248.48 2216.37 1247.93L1941.98 240.279Z" fill="#141414"/>
<path d="M1110.6 1545.14C1110.02 1544.32 1109.5 1543.14 1109.33 1542.03L907.712 425.105C906.974 421.008 909.862 416.814 913.959 416.075L2030.89 214.459C2034.98 213.72 2039.18 216.608 2039.92 220.705L2241.53 1337.63C2241.93 1339.51 2241.36 1341.75 2240.36 1343.39C2239.15 1345.16 2237.37 1346.12 2235.29 1346.66L1118.36 1548.28C1115.37 1548.85 1112.34 1547.6 1110.6 1545.14ZM2033.45 221.577C2033.16 221.166 2032.66 220.9 2032.11 220.985L915.181 422.602C914.42 422.832 913.948 423.472 914.178 424.234L1115.79 1541.16C1116.02 1541.92 1116.67 1542.39 1117.43 1542.16L2234.35 1340.55C2234.91 1340.46 2235.59 1339.68 2235.36 1338.92L2033.74 221.988C2033.6 221.783 2033.45 221.577 2033.45 221.577Z" fill="#141414"/>
<path d="M1010.08 1556.7C1009.21 1555.46 1008.69 1554.29 1008.58 1552.83L896.004 324.37C895.677 319.983 898.915 315.849 903.302 315.521L2131.76 202.947C2133.78 202.753 2136.03 203.32 2137.74 204.879C2139.31 206.232 2140.42 208.227 2140.75 210.45L2253.33 1438.91C2253.52 1440.93 2252.96 1443.17 2251.4 1444.89C2250.04 1446.46 2248.05 1447.56 2245.83 1447.9L1017.43 1560.13C1015.41 1560.32 1013.16 1559.75 1011.44 1558.19C1010.8 1557.72 1010.37 1557.11 1010.08 1556.7ZM2134.12 210.21C2133.68 209.594 2133.19 209.328 2132.63 209.413L904.029 321.782C903.122 321.806 902.446 322.592 902.47 323.499L1015.04 1551.96C1015.13 1552.51 1015.27 1552.72 1015.56 1553.13C1015.86 1553.54 1016.41 1553.45 1016.76 1553.52L2245.22 1440.94C2245.78 1440.86 2245.98 1440.71 2246.39 1440.42C2246.8 1440.13 2246.72 1439.57 2246.78 1439.22L2134.35 210.972C2134.41 210.621 2134.26 210.416 2134.12 210.21Z" fill="#141414"/>
<path d="M1120.44 1652.48V1908.73H1062.19V1735.74L1038.93 1908.73H997.616L973.083 1739.69V1908.73H914.838V1652.48H1001.1C1003.63 1667.89 1006.32 1686.04 1009.17 1706.93L1018.35 1772.14L1033.54 1652.48H1120.44ZM1299.45 1802.53C1299.45 1828.27 1298.81 1846.53 1297.55 1857.29C1296.39 1867.95 1292.59 1877.71 1286.15 1886.57C1279.82 1895.44 1271.22 1902.24 1260.35 1906.99C1249.49 1911.74 1236.82 1914.11 1222.37 1914.11C1208.65 1914.11 1196.3 1911.9 1185.33 1907.46C1174.46 1902.93 1165.7 1896.17 1159.06 1887.2C1152.41 1878.24 1148.45 1868.48 1147.19 1857.92C1145.92 1847.37 1145.29 1828.91 1145.29 1802.53V1758.69C1145.29 1732.94 1145.87 1714.74 1147.03 1704.08C1148.29 1693.32 1152.09 1683.5 1158.42 1674.64C1164.86 1665.78 1173.51 1658.97 1184.38 1654.22C1195.25 1649.47 1207.91 1647.1 1222.37 1647.1C1236.08 1647.1 1248.38 1649.37 1259.25 1653.91C1270.22 1658.34 1279.03 1665.04 1285.68 1674.01C1292.33 1682.98 1296.28 1692.74 1297.55 1703.29C1298.81 1713.84 1299.45 1732.31 1299.45 1758.69V1802.53ZM1232.81 1718.32C1232.81 1706.4 1232.13 1698.8 1230.76 1695.53C1229.49 1692.16 1226.8 1690.47 1222.68 1690.47C1219.2 1690.47 1216.51 1691.84 1214.61 1694.58C1212.82 1697.22 1211.92 1705.14 1211.92 1718.32V1837.98C1211.92 1852.86 1212.5 1862.04 1213.66 1865.52C1214.93 1869 1217.78 1870.74 1222.21 1870.74C1226.75 1870.74 1229.65 1868.74 1230.91 1864.73C1232.18 1860.72 1232.81 1851.17 1232.81 1836.08V1718.32ZM1530.06 1652.48V1908.73H1471.81V1735.74L1448.54 1908.73H1407.23L1382.7 1739.69V1908.73H1324.46V1652.48H1410.72C1413.25 1667.89 1415.94 1686.04 1418.79 1706.93L1427.97 1772.14L1443.16 1652.48H1530.06ZM1556.8 1652.48H1667.91V1703.76H1623.44V1752.35H1665.06V1801.1H1623.44V1857.45H1672.34V1908.73H1556.8V1652.48ZM1840.43 1652.48V1908.73H1782.03L1747.37 1792.24V1908.73H1691.65V1652.48H1747.37L1784.72 1767.87V1652.48H1840.43ZM2001.56 1652.48V1703.76H1961.99V1908.73H1895.36V1703.76H1855.94V1652.48H2001.56ZM2083.39 1652.48V1908.73H2016.75V1652.48H2083.39ZM2244.35 1652.48V1703.76H2204.78V1908.73H2138.15V1703.76H2098.74V1652.48H2244.35Z" fill="#141414"/>
<path d="M1312.1 2155.63H1263.75V2140.79C1263.75 2133.87 1263.14 2129.46 1261.9 2127.56C1260.66 2125.67 1258.6 2124.72 1255.72 2124.72C1252.58 2124.72 1250.19 2125.99 1248.55 2128.55C1246.98 2131.11 1246.2 2134.98 1246.2 2140.17C1246.2 2146.85 1247.1 2151.88 1248.92 2155.26C1250.65 2158.64 1255.55 2162.72 1263.63 2167.5C1286.8 2181.27 1301.39 2192.56 1307.4 2201.38C1313.42 2210.2 1316.43 2224.42 1316.43 2244.04C1316.43 2258.3 1314.74 2268.81 1311.36 2275.57C1308.06 2282.33 1301.63 2288.02 1292.07 2292.64C1282.51 2297.17 1271.38 2299.44 1258.68 2299.44C1244.75 2299.44 1232.84 2296.8 1222.95 2291.52C1213.14 2286.25 1206.71 2279.53 1203.66 2271.37C1200.61 2263.21 1199.08 2251.63 1199.08 2236.62V2223.52H1247.43V2247.88C1247.43 2255.38 1248.09 2260.2 1249.41 2262.34C1250.81 2264.49 1253.24 2265.56 1256.71 2265.56C1260.17 2265.56 1262.72 2264.2 1264.37 2261.48C1266.1 2258.76 1266.97 2254.72 1266.97 2249.36C1266.97 2237.57 1265.36 2229.86 1262.15 2226.24C1258.85 2222.61 1250.73 2216.55 1237.79 2208.06C1224.84 2199.49 1216.27 2193.26 1212.07 2189.39C1207.86 2185.51 1204.36 2180.15 1201.56 2173.31C1198.84 2166.47 1197.48 2157.73 1197.48 2147.1C1197.48 2131.77 1199.41 2120.55 1203.29 2113.46C1207.25 2106.38 1213.59 2100.85 1222.33 2096.9C1231.07 2092.86 1241.62 2090.84 1253.99 2090.84C1267.51 2090.84 1279 2093.02 1288.48 2097.39C1298.05 2101.76 1304.35 2107.28 1307.4 2113.96C1310.54 2120.55 1312.1 2131.81 1312.1 2147.72V2155.63ZM1437.73 2095.04V2135.1H1406.82V2295.23H1354.76V2135.1H1323.97V2095.04H1437.73ZM1567.94 2095.04V2228.83C1567.94 2244 1567.45 2254.68 1566.46 2260.86C1565.47 2266.96 1562.54 2273.27 1557.68 2279.78C1552.81 2286.21 1546.38 2291.11 1538.39 2294.49C1530.47 2297.79 1521.12 2299.44 1510.32 2299.44C1498.37 2299.44 1487.81 2297.46 1478.66 2293.5C1469.51 2289.55 1462.67 2284.39 1458.14 2278.05C1453.6 2271.7 1450.92 2265.02 1450.1 2258.01C1449.27 2250.93 1448.86 2236.09 1448.86 2213.5V2095.04H1500.92V2245.15C1500.92 2253.89 1501.37 2259.5 1502.28 2261.97C1503.27 2264.36 1505.21 2265.56 1508.09 2265.56C1511.39 2265.56 1513.49 2264.24 1514.4 2261.6C1515.39 2258.88 1515.88 2252.53 1515.88 2242.56V2095.04H1567.94ZM1588.1 2095.04H1627.05C1652.19 2095.04 1669.17 2096.19 1677.99 2098.5C1686.89 2100.81 1693.65 2104.6 1698.27 2109.88C1702.89 2115.15 1705.77 2121.05 1706.93 2127.56C1708.08 2133.99 1708.66 2146.69 1708.66 2165.65V2235.76C1708.66 2253.73 1707.79 2265.76 1706.06 2271.86C1704.41 2277.88 1701.49 2282.62 1697.28 2286.08C1693.08 2289.46 1687.88 2291.85 1681.7 2293.26C1675.52 2294.57 1666.2 2295.23 1653.76 2295.23H1588.1V2095.04ZM1640.15 2129.29V2260.98C1647.66 2260.98 1652.27 2259.5 1654 2256.53C1655.73 2253.48 1656.6 2245.28 1656.6 2231.92V2154.15C1656.6 2145.08 1656.31 2139.27 1655.73 2136.71C1655.16 2134.16 1653.84 2132.3 1651.78 2131.15C1649.72 2129.91 1645.84 2129.29 1640.15 2129.29ZM1780.13 2095.04V2295.23H1728.07V2095.04H1780.13ZM1919.98 2212.26C1919.98 2232.38 1919.49 2246.64 1918.5 2255.05C1917.59 2263.37 1914.62 2271 1909.59 2277.92C1904.65 2284.85 1897.93 2290.16 1889.44 2293.87C1880.95 2297.58 1871.05 2299.44 1859.76 2299.44C1849.04 2299.44 1839.4 2297.71 1830.83 2294.25C1822.34 2290.7 1815.49 2285.42 1810.3 2278.42C1805.11 2271.41 1802.02 2263.79 1801.03 2255.54C1800.04 2247.3 1799.54 2232.87 1799.54 2212.26V2178.01C1799.54 2157.9 1800 2143.68 1800.9 2135.35C1801.89 2126.94 1804.86 2119.28 1809.81 2112.35C1814.83 2105.43 1821.59 2100.11 1830.08 2096.4C1838.58 2092.69 1848.47 2090.84 1859.76 2090.84C1870.48 2090.84 1880.08 2092.61 1888.57 2096.15C1897.15 2099.62 1904.03 2104.85 1909.22 2111.86C1914.42 2118.86 1917.51 2126.49 1918.5 2134.73C1919.49 2142.98 1919.98 2157.4 1919.98 2178.01V2212.26ZM1867.92 2146.48C1867.92 2137.16 1867.39 2131.23 1866.31 2128.67C1865.33 2126.04 1863.22 2124.72 1860.01 2124.72C1857.29 2124.72 1855.19 2125.79 1853.7 2127.93C1852.3 2129.99 1851.6 2136.18 1851.6 2146.48V2239.96C1851.6 2251.58 1852.05 2258.76 1852.96 2261.48C1853.95 2264.2 1856.18 2265.56 1859.64 2265.56C1863.18 2265.56 1865.45 2263.99 1866.44 2260.86C1867.43 2257.73 1867.92 2250.27 1867.92 2238.48V2146.48Z" fill="#141414"/>
<line x1="1346.53" y1="2009.63" x2="1815.03" y2="2009.63" stroke="#141414" stroke-width="11.3958"/>
<path d="M2028.85 1554.12H903.738L896.642 207.441H2244.25L2252.01 1554.12H2084.66" stroke="#141414" stroke-width="7.33494"/>
</svg>
