<svg width="3150" height="2392" viewBox="0 0 3150 2392" fill="none" xmlns="http://www.w3.org/2000/svg">
<path d="M1524.24 1014.7C1524.09 1014.49 1524.09 1014.49 1523.95 1014.29L1440.03 836.161C1439.8 835.4 1439.69 833.937 1440.01 833.091C1440.34 832.245 1441.43 831.169 1442.04 830.734L1620.17 746.814C1620.93 746.585 1622.39 746.475 1623.24 746.802C1624.09 747.128 1625.16 748.215 1625.6 748.832L1709.52 926.958C1710.41 929.097 1709.49 931.285 1707.71 932.24L1529.58 1016.16C1528.82 1016.39 1527.35 1016.5 1526.51 1016.17C1525.6 1016.2 1524.67 1015.31 1524.24 1014.7ZM1446.64 835.495L1528.42 1009.28L1702.2 927.503L1620.63 753.571L1446.64 835.495Z" fill="white"/>
<path d="M1507.95 1021.27C1507.8 1021.07 1507.51 1020.66 1507.57 1020.31L1433.51 819.516C1432.61 817.377 1433.74 815.044 1436.02 814.355L1636.81 740.293C1637.57 740.063 1639.18 740.159 1640.03 740.486C1640.87 740.812 1641.74 742.044 1642.18 742.661L1716.24 943.452C1717.14 945.591 1716.01 947.924 1713.73 948.613L1512.94 1022.67C1512.18 1022.9 1510.57 1022.81 1509.72 1022.48C1508.82 1022.51 1508.38 1021.89 1507.95 1021.27ZM1440.2 819.406L1512.48 1015.92L1708.99 943.647L1636.72 747.134L1440.2 819.406Z" fill="white"/>
<path d="M1489.53 1026.59C1489.24 1026.18 1488.95 1025.77 1489.01 1025.42L1427.91 800.697C1427.68 799.936 1427.77 798.328 1428.45 797.542C1428.98 796.551 1429.8 795.971 1430.98 795.451L1655.7 734.353C1656.46 734.123 1658.07 734.219 1658.86 734.896C1659.5 735.367 1660.57 736.455 1660.95 737.421L1722.05 962.147C1722.28 962.908 1722.18 964.516 1721.5 965.301C1721.03 965.942 1719.94 967.018 1718.98 967.393L1494.25 1028.49C1493.49 1028.72 1491.88 1028.62 1491.1 1027.95C1490.4 1027.83 1489.96 1027.21 1489.53 1026.59ZM1434.63 801.493L1494.7 1021.71L1714.91 961.64L1654.84 741.423L1434.63 801.493Z" fill="white"/>
<path d="M1469.27 1031.04C1468.83 1030.43 1468.4 1029.81 1468.31 1029.25L1423.31 780.231C1422.97 778.007 1424.44 775.735 1426.67 775.396L1675.69 730.392C1676.45 730.162 1678.21 730.464 1678.99 731.14C1679.98 731.672 1680.5 732.844 1680.67 733.956L1725.68 982.979C1725.91 983.74 1725.6 985.493 1725.13 986.133C1724.66 986.774 1723.22 987.79 1722.32 987.814L1473.29 1032.82C1472.53 1033.05 1470.78 1032.75 1470.14 1032.27C1469.85 1031.86 1469.56 1031.45 1469.27 1031.04ZM1430.17 781.233L1474.3 1025.95L1719.02 981.832L1674.9 737.112L1430.17 781.233Z" fill="white"/>
<path d="M1446.65 1033.47C1446.22 1032.85 1445.99 1032.09 1445.76 1031.33L1420.74 757.418C1420.61 755.049 1422.23 752.982 1424.6 752.848L1698.51 727.83C1700.88 727.697 1702.95 729.316 1703.08 731.685L1728.1 1005.6C1728.23 1007.97 1726.61 1010.03 1724.24 1010.17L1450.33 1035.19C1449.22 1035.36 1448.02 1034.97 1447.24 1034.29C1447.09 1034.09 1446.95 1033.88 1446.65 1033.47ZM1427.49 759.121L1452.18 1028.65L1721.7 1003.96L1697.01 734.43L1427.49 759.121Z" fill="white"/>
<path d="M1422.18 1034.12C1421.6 1033.3 1421.37 1032.54 1421.35 1031.63L1420.15 732.583C1420.18 731.326 1420.71 730.334 1421.39 729.549C1422.27 728.618 1423.24 728.243 1424.5 728.279L1723.54 727.078C1726.06 727.15 1727.92 728.914 1727.85 731.428L1729.05 1030.47C1728.97 1032.99 1727 1035 1724.7 1034.78L1425.65 1035.98C1424.39 1035.94 1423.4 1035.41 1422.62 1034.74C1422.47 1034.53 1422.33 1034.32 1422.18 1034.12ZM1426.62 734.781L1427.64 1029.65L1722.51 1028.63L1721.49 733.762L1426.62 734.781Z" fill="white"/>
<path d="M1395.55 1032.6C1394.97 1031.78 1394.6 1030.81 1394.63 1029.56L1421.52 705.75C1421.55 704.493 1422.09 703.502 1423.11 702.776C1424.14 702.051 1425.11 701.676 1426.36 701.712L1750.17 728.595C1751.43 728.631 1752.42 729.162 1753.14 730.19C1753.87 731.217 1754.24 732.184 1754.21 733.441L1727.32 1057.25C1727.29 1058.5 1726.76 1059.49 1725.73 1060.22C1724.7 1060.95 1723.74 1061.32 1722.48 1061.28L1398.67 1034.4C1397.42 1034.37 1396.28 1033.63 1395.55 1032.6ZM1428.14 708.154L1401.37 1028.19L1721.4 1054.96L1748.18 734.929L1428.14 708.154Z" fill="white"/>
<path d="M1366.89 1028.21C1366.17 1027.18 1365.85 1025.86 1366.04 1024.81L1425.97 676.742C1426.15 675.691 1426.89 674.555 1427.91 673.829C1428.94 673.104 1430.26 672.789 1431.31 672.97L1779.38 732.905C1781.84 733.327 1783.58 735.793 1783.15 738.246L1723.22 1086.32C1723.04 1087.37 1722.3 1088.51 1721.27 1089.23C1720.25 1089.96 1718.93 1090.27 1717.88 1090.09L1369.81 1030.15C1368.76 1029.97 1367.62 1029.24 1366.89 1028.21ZM1431.98 679.582L1372.65 1024.15L1717.21 1083.48L1776.54 738.913L1431.98 679.582Z" fill="white"/>
<path d="M1336.21 1020.94C1336.06 1020.73 1336.06 1020.73 1335.92 1020.53C1335.19 1019.5 1335.08 1018.04 1335.47 1016.84L1433.3 645.699C1433.93 643.1 1436.54 641.565 1439.14 642.193L1810.43 740.231C1811.62 740.618 1812.76 741.355 1813.28 742.527C1814 743.554 1814.11 745.017 1813.73 746.214L1715.89 1117.35C1715.26 1119.95 1712.65 1121.49 1710.06 1120.86L1338.77 1022.82C1337.92 1022.5 1336.79 1021.76 1336.21 1020.94ZM1439.04 649.034L1342.11 1017.08L1710.15 1114.02L1807.09 745.973L1439.04 649.034Z" fill="white"/>
<path d="M1303.6 1010.11C1303.46 1009.9 1303.31 1009.7 1303.17 1009.49C1302.65 1008.32 1302.54 1006.86 1302.93 1005.66L1444 612.912C1444.39 611.715 1445.27 610.784 1446.65 610.119C1447.82 609.599 1449.28 609.49 1450.48 609.877L1843.23 750.951C1844.42 751.338 1845.35 752.22 1846.02 753.598C1846.54 754.77 1846.65 756.232 1846.26 757.429L1705.19 1150.18C1704.8 1151.37 1703.92 1152.3 1702.54 1152.97C1701.37 1153.49 1699.91 1153.6 1698.71 1153.21L1305.96 1012.14C1305.18 1011.46 1304.18 1010.93 1303.6 1010.11ZM1449.68 616.597L1309.65 1006.46L1699.51 1146.49L1839.54 756.633L1449.68 616.597Z" fill="white"/>
<path d="M1269.5 995.391C1269.21 994.98 1269.07 994.775 1268.98 994.219C1268.46 993.046 1268.7 991.644 1269.09 990.448L1459.12 578.519C1460.31 575.836 1463.35 574.916 1465.69 576.04L1877.62 766.073C1878.96 766.665 1879.68 767.692 1880.2 768.865C1880.72 770.037 1880.48 771.439 1880.09 772.636L1690.06 1184.56C1688.88 1187.25 1685.83 1188.17 1683.5 1187.04L1271.57 997.01C1270.72 996.684 1269.94 996.007 1269.5 995.391ZM1464.39 582.495L1275.55 991.74L1684.79 1180.59L1873.64 771.344L1464.39 582.495Z" fill="white"/>
<path d="M1234.03 976.097C1233.74 975.686 1233.3 975.07 1233.22 974.514C1232.9 973.197 1233.14 971.795 1233.73 970.453L1478.67 542.534C1480 540.056 1483.4 539.197 1485.67 540.671L1913.59 785.61C1914.73 786.347 1915.8 787.435 1916.12 788.752C1916.43 790.07 1916.19 791.472 1915.6 792.813L1670.66 1220.73C1669.33 1223.21 1665.93 1224.07 1663.66 1222.59L1235.74 977.656C1235.1 977.185 1234.46 976.713 1234.03 976.097ZM1483.53 546.8L1239.86 972.591L1665.65 1216.26L1909.32 790.47L1483.53 546.8Z" fill="white"/>
<path d="M1197.23 951.901C1196.79 951.285 1196.56 950.523 1196.33 949.762C1196.02 948.445 1196.46 946.897 1197.2 945.761L1503.08 505.598C1503.82 504.461 1505.05 503.591 1506.51 503.482C1507.83 503.167 1509.37 503.614 1510.51 504.351L1950.74 809.878C1951.87 810.615 1952.74 811.847 1952.85 813.31C1953.17 814.627 1952.72 816.174 1951.98 817.311L1646.46 1257.53C1644.78 1259.95 1641.44 1260.46 1639.02 1258.78L1198.8 953.255C1198.16 952.783 1197.66 952.517 1197.23 951.901ZM1507.53 510.153L1203.21 948.6L1641.66 1252.92L1945.97 814.472L1507.53 510.153Z" fill="white"/>
<path d="M1159.94 922.201C1158.49 920.147 1158.41 917.428 1160.18 915.566L1532.7 467.749C1534.73 465.392 1538.21 465.089 1540.57 467.119L1988.38 839.64C1989.66 840.582 1990.33 841.96 1990.44 843.422C1990.55 844.885 1990.1 846.432 1989.22 847.363L1616.49 1295.32C1614.46 1297.68 1610.98 1297.98 1608.62 1295.95L1161.01 923.289C1160.52 923.023 1160.23 922.612 1159.94 922.201ZM1537.09 472.655L1165.71 919.046L1612.1 1290.42L1983.48 844.028L1537.09 472.655Z" fill="white"/>
<path d="M1122.21 886.638C1120.61 884.378 1120.8 881.163 1122.92 879.362L1568.8 429.921C1570.98 427.769 1574.6 427.672 1576.9 430.053L2026.34 875.939C2028.49 878.114 2028.59 881.74 2026.21 884.037L1580.32 1333.48C1579.24 1334.55 1577.86 1335.22 1576.25 1335.12C1574.79 1335.23 1573.3 1334.43 1572.23 1333.35L1122.99 887.314C1122.64 887.254 1122.35 886.843 1122.21 886.638ZM1572.84 434.767L1127.84 883.277L1576.35 1328.28L2021.35 879.771L1572.84 434.767Z" fill="white"/>
<path d="M1084.72 844.468C1083.85 843.235 1083.53 841.918 1083.77 840.516C1083.87 838.908 1084.67 837.422 1085.9 836.551L1611.4 392.158C1613.93 390.066 1617.84 390.38 1619.94 392.905L2064.33 918.407C2065.4 919.495 2065.86 921.018 2065.77 922.625C2065.67 924.233 2064.87 925.719 2063.64 926.59L1538.14 1370.98C1535.61 1373.07 1531.7 1372.76 1529.61 1370.24L1085.21 844.734C1085.01 844.879 1084.86 844.673 1084.72 844.468ZM2058.84 921.974L1614.74 396.883L1089.94 841.397L1534.45 1366.2L2058.84 921.974Z" fill="white"/>
<path d="M1479.71 1406.39L1048.23 795.412C1046.2 792.536 1046.86 788.68 1049.74 786.649L1660.72 355.17C1663.59 353.139 1667.45 353.803 1669.48 356.679L2100.96 967.66C2102.99 970.536 2102.33 974.392 2099.45 976.423L1488.47 1407.9C1485.8 1409.79 1481.74 1409.27 1479.71 1406.39ZM1664.14 360.451L1053.51 791.99L1485.05 1402.62L2095.47 971.227L1664.14 360.451Z" fill="white"/>
<path d="M1422.66 1441.14C1422.51 1440.93 1422.36 1440.73 1422.36 1440.73L1013.13 738.294C1011.3 735.273 1012.38 731.127 1015.54 729.507L1717.98 320.272C1721 318.446 1725.15 319.521 1726.77 322.687L2136 1025.12C2137.83 1028.14 2136.75 1032.29 2133.59 1033.91L1431.15 1443.14C1428.34 1444.82 1424.69 1444.01 1422.66 1441.14ZM1721.19 325.698L1018.56 735.078L1427.94 1437.72L2130.63 1027.99L1721.19 325.698Z" fill="white"/>
<path d="M1357.72 1473.44C1357.43 1473.03 1357.28 1472.83 1356.99 1472.42L980.324 673.089C979.514 671.506 979.465 669.693 980.117 668.001C980.77 666.308 981.918 664.882 983.646 664.277L1782.97 287.607C1786.49 286.047 1790.37 287.617 1791.99 290.783L2168.81 1090.32C2169.62 1091.9 2169.66 1093.71 2169.01 1095.4C2168.36 1097.1 2167.21 1098.52 2165.48 1099.13L1366.16 1475.8C1364.57 1476.61 1362.76 1476.66 1361.07 1476C1359.73 1475.41 1358.59 1474.68 1357.72 1473.44ZM1786.33 293.238L986.306 669.788L1362.71 1469.61L2162.74 1093.06C2162.94 1092.91 2162.94 1092.92 2162.8 1092.71L1786.33 293.238Z" fill="white"/>
<path d="M1284.18 1502.3C1283.89 1501.89 1283.46 1501.27 1283.37 1500.72L951.338 599.359C950.734 597.631 950.89 595.673 951.543 593.981C952.195 592.288 953.693 590.922 955.422 590.318L1856.78 258.285C1858.51 257.68 1860.47 257.837 1862.16 258.489C1864 259.347 1865.22 260.64 1865.82 262.368L2197.85 1163.73C2198.46 1165.46 2198.3 1167.41 2197.65 1169.11C2197 1170.8 2195.5 1172.16 2193.77 1172.77L1292.41 1504.8C1290.68 1505.41 1288.73 1505.25 1287.03 1504.6C1285.84 1504.21 1284.91 1503.33 1284.18 1502.3ZM1859.88 264.412C1859.73 264.207 1859.38 264.146 1859.03 264.086L957.611 596.469C957.405 596.614 957.139 597.11 957.284 597.315L1289.52 1498.53C1289.67 1498.73 1290.16 1499 1290.37 1498.86L2191.58 1166.62C2191.79 1166.47 2192.05 1165.98 2191.91 1165.77L1859.88 264.412Z" fill="white"/>
<path d="M1202 1526.75C1201.57 1526.14 1201.19 1525.17 1200.96 1524.41L926.719 516.964C925.776 513.012 927.902 509.047 931.914 507.753L1939.36 233.508C1941.23 233.108 1943.19 233.265 1945.03 234.123C1946.66 235.126 1948.02 236.624 1948.42 238.497L2222.67 1245.94C2223.61 1249.89 2221.49 1253.86 2217.47 1255.15L1210.03 1529.4C1206.99 1530.32 1203.75 1529.22 1202 1526.75ZM1941.98 240.276C1941.69 239.865 1941.34 239.804 1940.99 239.744L933.547 513.99C932.992 514.074 932.726 514.57 932.81 515.126L1207.06 1522.57C1207.14 1523.13 1207.64 1523.39 1208.19 1523.31L2215.64 1249.06C2216.19 1248.98 2216.46 1248.48 2216.37 1247.92L1941.98 240.276Z" fill="white"/>
<path d="M1110.6 1545.14C1110.02 1544.31 1109.5 1543.14 1109.33 1542.03L907.711 425.102C906.973 421.004 909.861 416.81 913.958 416.071L2030.89 214.455C2034.98 213.717 2039.18 216.604 2039.92 220.702L2241.53 1337.63C2241.93 1339.5 2241.36 1341.75 2240.36 1343.38C2239.15 1345.16 2237.36 1346.11 2235.29 1346.66L1118.36 1548.28C1115.37 1548.84 1112.34 1547.6 1110.6 1545.14ZM2033.45 221.573C2033.16 221.162 2032.66 220.896 2032.11 220.981L915.18 422.598C914.419 422.828 913.947 423.468 914.177 424.23L1115.79 1541.16C1116.02 1541.92 1116.66 1542.39 1117.43 1542.16L2234.35 1340.54C2234.91 1340.46 2235.59 1339.67 2235.36 1338.91L2033.74 221.984C2033.59 221.779 2033.45 221.573 2033.45 221.573Z" fill="white"/>
<path d="M1010.08 1556.69C1009.21 1555.46 1008.69 1554.29 1008.58 1552.82L896.004 324.366C895.677 319.979 898.915 315.845 903.302 315.517L2131.76 202.943C2133.78 202.749 2136.03 203.316 2137.74 204.875C2139.31 206.229 2140.42 208.223 2140.75 210.446L2253.33 1438.9C2253.52 1440.92 2252.96 1443.17 2251.4 1444.89C2250.04 1446.46 2248.05 1447.56 2245.83 1447.9L1017.43 1560.12C1015.41 1560.32 1013.16 1559.75 1011.44 1558.19C1010.8 1557.72 1010.37 1557.1 1010.08 1556.69ZM2134.12 210.206C2133.68 209.59 2133.19 209.324 2132.63 209.409L904.029 321.778C903.122 321.802 902.446 322.588 902.47 323.495L1015.04 1551.95C1015.13 1552.51 1015.27 1552.71 1015.56 1553.12C1015.85 1553.54 1016.41 1553.45 1016.76 1553.51L2245.22 1440.94C2245.78 1440.85 2245.98 1440.71 2246.39 1440.42C2246.8 1440.13 2246.72 1439.57 2246.78 1439.22L2134.35 210.968C2134.41 210.617 2134.26 210.412 2134.12 210.206Z" fill="white"/>
<path d="M1120.44 1652.49V1908.73H1062.19V1735.74L1038.92 1908.73H997.615L973.082 1739.7V1908.73H914.837V1652.49H1001.1C1003.63 1667.89 1006.32 1686.04 1009.17 1706.93L1018.35 1772.14L1033.54 1652.49H1120.44ZM1299.45 1802.53C1299.45 1828.28 1298.81 1846.53 1297.55 1857.29C1296.39 1867.95 1292.59 1877.71 1286.15 1886.58C1279.82 1895.44 1271.22 1902.25 1260.35 1906.99C1249.48 1911.74 1236.82 1914.12 1222.37 1914.12C1208.65 1914.12 1196.3 1911.9 1185.33 1907.47C1174.46 1902.93 1165.7 1896.18 1159.06 1887.21C1152.41 1878.24 1148.45 1868.48 1147.19 1857.93C1145.92 1847.38 1145.29 1828.91 1145.29 1802.53V1758.69C1145.29 1732.94 1145.87 1714.74 1147.03 1704.08C1148.29 1693.32 1152.09 1683.51 1158.42 1674.64C1164.86 1665.78 1173.51 1658.98 1184.38 1654.23C1195.25 1649.48 1207.91 1647.1 1222.37 1647.1C1236.08 1647.1 1248.38 1649.37 1259.24 1653.91C1270.22 1658.34 1279.03 1665.04 1285.68 1674.01C1292.32 1682.98 1296.28 1692.74 1297.55 1703.29C1298.81 1713.84 1299.45 1732.31 1299.45 1758.69V1802.53ZM1232.81 1718.33C1232.81 1706.41 1232.13 1698.81 1230.75 1695.54C1229.49 1692.16 1226.8 1690.47 1222.68 1690.47C1219.2 1690.47 1216.51 1691.84 1214.61 1694.59C1212.82 1697.23 1211.92 1705.14 1211.92 1718.33V1837.99C1211.92 1852.86 1212.5 1862.04 1213.66 1865.53C1214.93 1869.01 1217.78 1870.75 1222.21 1870.75C1226.75 1870.75 1229.65 1868.74 1230.91 1864.73C1232.18 1860.72 1232.81 1851.17 1232.81 1836.09V1718.33ZM1530.05 1652.49V1908.73H1471.81V1735.74L1448.54 1908.73H1407.23L1382.7 1739.7V1908.73H1324.45V1652.49H1410.71C1413.25 1667.89 1415.94 1686.04 1418.79 1706.93L1427.97 1772.14L1443.16 1652.49H1530.05ZM1556.8 1652.49H1667.91V1703.77H1623.44V1752.36H1665.06V1801.11H1623.44V1857.45H1672.34V1908.73H1556.8V1652.49ZM1840.43 1652.49V1908.73H1782.03L1747.37 1792.24V1908.73H1691.65V1652.49H1747.37L1784.72 1767.87V1652.49H1840.43ZM2001.56 1652.49V1703.77H1961.99V1908.73H1895.35V1703.77H1855.94V1652.49H2001.56ZM2083.39 1652.49V1908.73H2016.75V1652.49H2083.39ZM2244.35 1652.49V1703.77H2204.78V1908.73H2138.15V1703.77H2098.74V1652.49H2244.35Z" fill="white"/>
<path d="M1312.1 2155.63H1263.75V2140.79C1263.75 2133.87 1263.14 2129.46 1261.9 2127.56C1260.66 2125.67 1258.6 2124.72 1255.72 2124.72C1252.58 2124.72 1250.19 2125.99 1248.54 2128.55C1246.98 2131.11 1246.2 2134.98 1246.2 2140.17C1246.2 2146.85 1247.1 2151.88 1248.92 2155.26C1250.65 2158.64 1255.55 2162.72 1263.63 2167.5C1286.79 2181.27 1301.39 2192.56 1307.4 2201.38C1313.42 2210.2 1316.43 2224.42 1316.43 2244.04C1316.43 2258.3 1314.74 2268.81 1311.36 2275.57C1308.06 2282.33 1301.63 2288.02 1292.07 2292.64C1282.51 2297.17 1271.38 2299.44 1258.68 2299.44C1244.75 2299.44 1232.84 2296.8 1222.95 2291.52C1213.14 2286.25 1206.71 2279.53 1203.66 2271.37C1200.61 2263.21 1199.08 2251.63 1199.08 2236.62V2223.52H1247.43V2247.88C1247.43 2255.38 1248.09 2260.2 1249.41 2262.34C1250.81 2264.49 1253.24 2265.56 1256.71 2265.56C1260.17 2265.56 1262.72 2264.2 1264.37 2261.48C1266.1 2258.76 1266.97 2254.72 1266.97 2249.36C1266.97 2237.57 1265.36 2229.86 1262.15 2226.24C1258.85 2222.61 1250.73 2216.55 1237.79 2208.06C1224.84 2199.49 1216.27 2193.26 1212.07 2189.39C1207.86 2185.51 1204.36 2180.15 1201.56 2173.31C1198.84 2166.47 1197.48 2157.73 1197.48 2147.1C1197.48 2131.77 1199.41 2120.55 1203.29 2113.46C1207.24 2106.38 1213.59 2100.85 1222.33 2096.9C1231.07 2092.86 1241.62 2090.84 1253.99 2090.84C1267.5 2090.84 1279 2093.02 1288.48 2097.39C1298.05 2101.76 1304.35 2107.28 1307.4 2113.96C1310.54 2120.55 1312.1 2131.81 1312.1 2147.72V2155.63ZM1437.73 2095.04V2135.1H1406.82V2295.23H1354.76V2135.1H1323.97V2095.04H1437.73ZM1567.94 2095.04V2228.83C1567.94 2244 1567.45 2254.68 1566.46 2260.86C1565.47 2266.96 1562.54 2273.27 1557.68 2279.78C1552.81 2286.21 1546.38 2291.11 1538.39 2294.49C1530.47 2297.79 1521.12 2299.44 1510.32 2299.44C1498.36 2299.44 1487.81 2297.46 1478.66 2293.5C1469.51 2289.55 1462.67 2284.39 1458.14 2278.05C1453.6 2271.7 1450.92 2265.02 1450.1 2258.01C1449.27 2250.93 1448.86 2236.09 1448.86 2213.5V2095.04H1500.92V2245.15C1500.92 2253.89 1501.37 2259.5 1502.28 2261.97C1503.27 2264.36 1505.21 2265.56 1508.09 2265.56C1511.39 2265.56 1513.49 2264.24 1514.4 2261.6C1515.39 2258.88 1515.88 2252.53 1515.88 2242.56V2095.04H1567.94ZM1588.1 2095.04H1627.05C1652.19 2095.04 1669.17 2096.19 1677.99 2098.5C1686.89 2100.81 1693.65 2104.6 1698.27 2109.88C1702.89 2115.15 1705.77 2121.05 1706.93 2127.56C1708.08 2133.99 1708.66 2146.69 1708.66 2165.65V2235.76C1708.66 2253.73 1707.79 2265.76 1706.06 2271.86C1704.41 2277.88 1701.48 2282.62 1697.28 2286.08C1693.08 2289.46 1687.88 2291.85 1681.7 2293.26C1675.52 2294.57 1666.2 2295.23 1653.75 2295.23H1588.1V2095.04ZM1640.15 2129.29V2260.98C1647.65 2260.98 1652.27 2259.5 1654 2256.53C1655.73 2253.48 1656.6 2245.28 1656.6 2231.92V2154.15C1656.6 2145.08 1656.31 2139.27 1655.73 2136.71C1655.16 2134.16 1653.84 2132.3 1651.78 2131.15C1649.72 2129.91 1645.84 2129.29 1640.15 2129.29ZM1780.13 2095.04V2295.23H1728.07V2095.04H1780.13ZM1919.98 2212.26C1919.98 2232.38 1919.48 2246.64 1918.5 2255.05C1917.59 2263.37 1914.62 2271 1909.59 2277.92C1904.65 2284.85 1897.93 2290.16 1889.44 2293.87C1880.95 2297.58 1871.05 2299.44 1859.76 2299.44C1849.04 2299.44 1839.4 2297.71 1830.83 2294.25C1822.34 2290.7 1815.49 2285.42 1810.3 2278.42C1805.11 2271.41 1802.01 2263.79 1801.03 2255.54C1800.04 2247.3 1799.54 2232.87 1799.54 2212.26V2178.01C1799.54 2157.9 1800 2143.68 1800.9 2135.35C1801.89 2126.94 1804.86 2119.28 1809.8 2112.35C1814.83 2105.43 1821.59 2100.11 1830.08 2096.4C1838.57 2092.69 1848.47 2090.84 1859.76 2090.84C1870.48 2090.84 1880.08 2092.61 1888.57 2096.15C1897.14 2099.62 1904.03 2104.85 1909.22 2111.86C1914.42 2118.86 1917.51 2126.49 1918.5 2134.73C1919.48 2142.98 1919.98 2157.4 1919.98 2178.01V2212.26ZM1867.92 2146.48C1867.92 2137.16 1867.39 2131.23 1866.31 2128.67C1865.32 2126.04 1863.22 2124.72 1860.01 2124.72C1857.29 2124.72 1855.19 2125.79 1853.7 2127.93C1852.3 2129.99 1851.6 2136.18 1851.6 2146.48V2239.96C1851.6 2251.58 1852.05 2258.76 1852.96 2261.48C1853.95 2264.2 1856.17 2265.56 1859.64 2265.56C1863.18 2265.56 1865.45 2263.99 1866.44 2260.86C1867.43 2257.73 1867.92 2250.27 1867.92 2238.48V2146.48Z" fill="white"/>
<line x1="1346.53" y1="2009.63" x2="1815.03" y2="2009.63" stroke="white" stroke-width="11.3958"/>
<path d="M2028.85 1554.12H903.737L896.642 207.441H2244.25L2252.01 1554.12H2084.66" stroke="white" stroke-width="7.33494"/>
</svg>
