<svg width="544" height="168" viewBox="0 0 544 168" fill="none" xmlns="http://www.w3.org/2000/svg">
<path d="M18.1 102L2.6 32H17.5L27 79.4L40.6 32H54.3L67.9 79.3L77.4 32H91.8L76.4 102H61.1L47.3 53.2L33.3 102H18.1ZM101.834 102V32L115.534 29V54.2C119.467 50.6667 124.334 48.9 130.134 48.9C134.2 48.9 137.767 49.8 140.834 51.6C143.967 53.3333 146.4 55.7667 148.134 58.9C149.867 61.9667 150.734 65.5667 150.734 69.7V102H137.034V71.7C137.034 68.3 136.067 65.6333 134.134 63.7C132.2 61.7 129.567 60.7 126.234 60.7C123.9 60.7 121.834 61.1667 120.034 62.1C118.234 62.9667 116.734 64.2333 115.534 65.9V102H101.834ZM188.611 103C183.411 103 178.678 101.8 174.411 99.4C170.211 97 166.878 93.7667 164.411 89.7C161.944 85.6333 160.711 81.0667 160.711 76C160.711 70.9333 161.878 66.3667 164.211 62.3C166.611 58.2333 169.844 55 173.911 52.6C177.978 50.2 182.511 49 187.511 49C192.511 49 196.944 50.2333 200.811 52.7C204.678 55.1667 207.711 58.5 209.911 62.7C212.178 66.9 213.311 71.6667 213.311 77V80.6H174.711C175.311 82.6667 176.278 84.5333 177.611 86.2C179.011 87.8667 180.711 89.1667 182.711 90.1C184.778 91.0333 186.978 91.5 189.311 91.5C191.644 91.5 193.778 91.1333 195.711 90.4C197.711 89.6667 199.411 88.6333 200.811 87.3L209.811 95.5C206.611 98.1 203.311 100 199.911 101.2C196.578 102.4 192.811 103 188.611 103ZM174.511 70.8H199.811C199.344 68.7333 198.478 66.9333 197.211 65.4C196.011 63.8 194.544 62.5667 192.811 61.7C191.144 60.7667 189.278 60.3 187.211 60.3C185.078 60.3 183.144 60.7333 181.411 61.6C179.744 62.4667 178.311 63.7 177.111 65.3C175.911 66.8333 175.044 68.6667 174.511 70.8ZM249.595 103C244.395 103 239.662 101.8 235.395 99.4C231.195 97 227.862 93.7667 225.395 89.7C222.929 85.6333 221.695 81.0667 221.695 76C221.695 70.9333 222.862 66.3667 225.195 62.3C227.595 58.2333 230.829 55 234.895 52.6C238.962 50.2 243.495 49 248.495 49C253.495 49 257.929 50.2333 261.795 52.7C265.662 55.1667 268.695 58.5 270.895 62.7C273.162 66.9 274.295 71.6667 274.295 77V80.6H235.695C236.295 82.6667 237.262 84.5333 238.595 86.2C239.995 87.8667 241.695 89.1667 243.695 90.1C245.762 91.0333 247.962 91.5 250.295 91.5C252.629 91.5 254.762 91.1333 256.695 90.4C258.695 89.6667 260.395 88.6333 261.795 87.3L270.795 95.5C267.595 98.1 264.295 100 260.895 101.2C257.562 102.4 253.795 103 249.595 103ZM235.495 70.8H260.795C260.329 68.7333 259.462 66.9333 258.195 65.4C256.995 63.8 255.529 62.5667 253.795 61.7C252.129 60.7667 250.262 60.3 248.195 60.3C246.062 60.3 244.129 60.7333 242.395 61.6C240.729 62.4667 239.295 63.7 238.095 65.3C236.895 66.8333 236.029 68.6667 235.495 70.8ZM309.18 102.7C304.246 102.7 299.78 101.5 295.78 99.1C291.78 96.7 288.58 93.5 286.18 89.5C283.846 85.4333 282.68 80.9 282.68 75.9C282.68 70.9 283.846 66.4 286.18 62.4C288.58 58.3333 291.813 55.1333 295.88 52.8C299.946 50.4 304.513 49.2 309.58 49.2C312.18 49.2 314.68 49.5667 317.08 50.3C319.48 50.9667 321.713 51.9667 323.78 53.3V32L337.48 29.7V102H323.98V97.7C319.713 101.033 314.78 102.7 309.18 102.7ZM311.38 91C313.913 91 316.213 90.5667 318.28 89.7C320.413 88.8333 322.246 87.6 323.78 86V65.7C322.246 64.1667 320.413 62.9667 318.28 62.1C316.146 61.2333 313.846 60.8 311.38 60.8C308.513 60.8 305.913 61.4667 303.58 62.8C301.313 64.0667 299.513 65.8667 298.18 68.2C296.846 70.4667 296.18 73.0333 296.18 75.9C296.18 78.7667 296.846 81.3333 298.18 83.6C299.513 85.8667 301.313 87.6667 303.58 89C305.913 90.3333 308.513 91 311.38 91ZM350.263 102V32L363.963 29.7V102H350.263ZM402.177 103C396.977 103 392.244 101.8 387.977 99.4C383.777 97 380.444 93.7667 377.977 89.7C375.511 85.6333 374.277 81.0667 374.277 76C374.277 70.9333 375.444 66.3667 377.777 62.3C380.177 58.2333 383.411 55 387.477 52.6C391.544 50.2 396.077 49 401.077 49C406.077 49 410.511 50.2333 414.377 52.7C418.244 55.1667 421.277 58.5 423.477 62.7C425.744 66.9 426.877 71.6667 426.877 77V80.6H388.277C388.877 82.6667 389.844 84.5333 391.177 86.2C392.577 87.8667 394.277 89.1667 396.277 90.1C398.344 91.0333 400.544 91.5 402.877 91.5C405.211 91.5 407.344 91.1333 409.277 90.4C411.277 89.6667 412.977 88.6333 414.377 87.3L423.377 95.5C420.177 98.1 416.877 100 413.477 101.2C410.144 102.4 406.377 103 402.177 103ZM388.077 70.8H413.377C412.911 68.7333 412.044 66.9333 410.777 65.4C409.577 63.8 408.111 62.5667 406.377 61.7C404.711 60.7667 402.844 60.3 400.777 60.3C398.644 60.3 396.711 60.7333 394.977 61.6C393.311 62.4667 391.877 63.7 390.677 65.3C389.477 66.8333 388.611 68.6667 388.077 70.8ZM441.344 103C439.144 103 437.244 102.2 435.644 100.6C434.044 99 433.244 97.1 433.244 94.9C433.244 92.6333 434.044 90.7 435.644 89.1C437.244 87.5 439.144 86.7 441.344 86.7C443.544 86.7 445.444 87.5 447.044 89.1C448.644 90.7 449.444 92.6333 449.444 94.9C449.444 97.1 448.644 99 447.044 100.6C445.444 102.2 443.544 103 441.344 103ZM461.244 102V49.9H474.944V102H461.244ZM468.044 43.7C465.91 43.7 464.077 42.9333 462.544 41.4C461.01 39.8667 460.244 38.0333 460.244 35.9C460.244 33.7 461.01 31.8667 462.544 30.4C464.077 28.8667 465.91 28.1 468.044 28.1C470.244 28.1 472.077 28.8667 473.544 30.4C475.077 31.8667 475.844 33.7 475.844 35.9C475.844 38.0333 475.077 39.8667 473.544 41.4C472.077 42.9333 470.244 43.7 468.044 43.7ZM513.058 103C507.858 103 503.158 101.8 498.958 99.4C494.758 97 491.424 93.7667 488.958 89.7C486.491 85.6333 485.258 81.0667 485.258 76C485.258 70.9333 486.458 66.3667 488.858 62.3C491.324 58.1667 494.658 54.9 498.858 52.5C503.124 50.1 507.858 48.9 513.058 48.9C518.258 48.9 522.958 50.1 527.158 52.5C531.424 54.9 534.758 58.1667 537.158 62.3C539.624 66.3667 540.858 70.9333 540.858 76C540.858 81.0667 539.624 85.6333 537.158 89.7C534.758 93.7667 531.458 97 527.258 99.4C523.058 101.8 518.324 103 513.058 103ZM513.058 91.1C515.791 91.1 518.224 90.4333 520.358 89.1C522.558 87.7667 524.291 85.9667 525.558 83.7C526.891 81.3667 527.558 78.8 527.558 76C527.558 73.1333 526.891 70.5667 525.558 68.3C524.291 66.0333 522.558 64.2333 520.358 62.9C518.224 61.5 515.791 60.8 513.058 60.8C510.391 60.8 507.958 61.5 505.758 62.9C503.558 64.2333 501.824 66.0333 500.558 68.3C499.291 70.5667 498.658 73.1333 498.658 76C498.658 78.8 499.291 81.3667 500.558 83.7C501.824 85.9667 503.558 87.7667 505.758 89.1C507.958 90.4333 510.391 91.1 513.058 91.1Z" fill="#121212"/>
<path d="M279.414 158V134.2H289.716C291.28 134.2 292.64 134.461 293.796 134.982C294.952 135.503 295.847 136.24 296.482 137.192C297.117 138.121 297.434 139.221 297.434 140.49C297.434 141.646 297.139 142.666 296.55 143.55C295.961 144.434 295.133 145.137 294.068 145.658C295.405 146.134 296.448 146.859 297.196 147.834C297.967 148.786 298.352 149.908 298.352 151.2C298.352 152.583 298.012 153.784 297.332 154.804C296.652 155.824 295.7 156.617 294.476 157.184C293.252 157.728 291.813 158 290.158 158H279.414ZM282.984 144.298H289.512C290.849 144.298 291.915 143.981 292.708 143.346C293.501 142.711 293.898 141.85 293.898 140.762C293.898 139.674 293.501 138.813 292.708 138.178C291.915 137.543 290.849 137.226 289.512 137.226H282.984V144.298ZM282.984 154.974H289.886C291.382 154.974 292.561 154.623 293.422 153.92C294.306 153.217 294.748 152.265 294.748 151.064C294.748 149.885 294.306 148.945 293.422 148.242C292.561 147.517 291.382 147.154 289.886 147.154H282.984V154.974ZM312.501 158.306C310.801 158.306 309.259 157.909 307.877 157.116C306.517 156.323 305.429 155.246 304.613 153.886C303.819 152.526 303.423 151.007 303.423 149.33C303.423 147.675 303.808 146.179 304.579 144.842C305.349 143.482 306.392 142.405 307.707 141.612C309.021 140.796 310.483 140.388 312.093 140.388C313.702 140.388 315.13 140.796 316.377 141.612C317.623 142.405 318.609 143.493 319.335 144.876C320.083 146.236 320.457 147.777 320.457 149.5V150.452H306.823C307.004 151.404 307.355 152.254 307.877 153.002C308.421 153.75 309.101 154.339 309.917 154.77C310.755 155.201 311.662 155.416 312.637 155.416C313.475 155.416 314.28 155.291 315.051 155.042C315.844 154.77 316.501 154.385 317.023 153.886L319.199 156.028C318.179 156.799 317.125 157.377 316.037 157.762C314.971 158.125 313.793 158.306 312.501 158.306ZM306.857 147.902H317.091C316.955 146.995 316.637 146.202 316.139 145.522C315.663 144.819 315.062 144.275 314.337 143.89C313.634 143.482 312.863 143.278 312.025 143.278C311.163 143.278 310.37 143.471 309.645 143.856C308.919 144.241 308.307 144.785 307.809 145.488C307.333 146.168 307.015 146.973 306.857 147.902ZM327.073 165.31C326.71 165.31 326.37 165.287 326.053 165.242C325.735 165.219 325.475 165.174 325.271 165.106V162.114C325.679 162.205 326.177 162.25 326.767 162.25C328.353 162.25 329.498 161.4 330.201 159.7L330.949 158.034L324.013 140.694H327.787L332.819 153.886L338.395 140.694H342.067L333.703 160.142C333.159 161.366 332.581 162.352 331.969 163.1C331.357 163.871 330.654 164.426 329.861 164.766C329.067 165.129 328.138 165.31 327.073 165.31ZM354.628 158.34C352.951 158.34 351.421 157.943 350.038 157.15C348.678 156.357 347.602 155.28 346.808 153.92C346.015 152.56 345.618 151.041 345.618 149.364C345.618 147.687 346.015 146.168 346.808 144.808C347.602 143.448 348.678 142.371 350.038 141.578C351.421 140.762 352.951 140.354 354.628 140.354C356.328 140.354 357.858 140.762 359.218 141.578C360.578 142.371 361.655 143.448 362.448 144.808C363.242 146.168 363.638 147.687 363.638 149.364C363.638 151.041 363.242 152.56 362.448 153.92C361.655 155.28 360.578 156.357 359.218 157.15C357.858 157.943 356.328 158.34 354.628 158.34ZM354.628 155.348C355.694 155.348 356.657 155.087 357.518 154.566C358.38 154.022 359.06 153.297 359.558 152.39C360.057 151.483 360.306 150.463 360.306 149.33C360.306 148.219 360.046 147.222 359.524 146.338C359.026 145.431 358.346 144.706 357.484 144.162C356.646 143.618 355.694 143.346 354.628 143.346C353.563 143.346 352.6 143.618 351.738 144.162C350.9 144.706 350.22 145.431 349.698 146.338C349.2 147.222 348.95 148.219 348.95 149.33C348.95 150.463 349.2 151.483 349.698 152.39C350.197 153.297 350.877 154.022 351.738 154.566C352.6 155.087 353.563 155.348 354.628 155.348ZM369.573 158V140.694H372.973V142.462C374.311 141.057 376.045 140.354 378.175 140.354C379.513 140.354 380.68 140.637 381.677 141.204C382.697 141.771 383.491 142.564 384.057 143.584C384.647 144.604 384.941 145.783 384.941 147.12V158H381.541V147.698C381.541 146.338 381.156 145.273 380.385 144.502C379.637 143.709 378.583 143.312 377.223 143.312C376.317 143.312 375.501 143.505 374.775 143.89C374.05 144.275 373.449 144.831 372.973 145.556V158H369.573ZM399.541 158.272C397.931 158.272 396.458 157.875 395.121 157.082C393.783 156.289 392.729 155.223 391.959 153.886C391.188 152.526 390.803 151.007 390.803 149.33C390.803 147.653 391.188 146.145 391.959 144.808C392.752 143.471 393.817 142.405 395.155 141.612C396.492 140.819 397.977 140.422 399.609 140.422C400.561 140.422 401.479 140.569 402.363 140.864C403.247 141.159 404.063 141.589 404.811 142.156V134.2L408.211 133.554V158H404.845V156.334C403.371 157.626 401.603 158.272 399.541 158.272ZM399.983 155.314C400.98 155.314 401.887 155.133 402.703 154.77C403.541 154.407 404.244 153.886 404.811 153.206V145.42C404.244 144.785 403.541 144.287 402.703 143.924C401.887 143.539 400.98 143.346 399.983 143.346C398.895 143.346 397.909 143.607 397.025 144.128C396.141 144.649 395.438 145.363 394.917 146.27C394.395 147.154 394.135 148.163 394.135 149.296C394.135 150.429 394.395 151.449 394.917 152.356C395.438 153.263 396.141 153.988 397.025 154.532C397.909 155.053 398.895 155.314 399.983 155.314ZM424.782 158V140.694H428.182V158H424.782ZM426.482 137.906C425.916 137.906 425.428 137.702 425.02 137.294C424.612 136.863 424.408 136.365 424.408 135.798C424.408 135.209 424.612 134.721 425.02 134.336C425.428 133.928 425.916 133.724 426.482 133.724C427.072 133.724 427.57 133.928 427.978 134.336C428.386 134.721 428.59 135.209 428.59 135.798C428.59 136.365 428.386 136.863 427.978 137.294C427.57 137.702 427.072 137.906 426.482 137.906ZM434.907 158V140.694H438.307V142.36C439.599 141.023 441.219 140.354 443.169 140.354C444.347 140.354 445.39 140.615 446.297 141.136C447.226 141.657 447.963 142.36 448.507 143.244C449.232 142.292 450.082 141.578 451.057 141.102C452.031 140.603 453.131 140.354 454.355 140.354C455.647 140.354 456.769 140.637 457.721 141.204C458.695 141.771 459.455 142.564 459.999 143.584C460.565 144.604 460.849 145.783 460.849 147.12V158H457.449V147.698C457.449 146.338 457.086 145.273 456.361 144.502C455.658 143.709 454.695 143.312 453.471 143.312C452.632 143.312 451.873 143.505 451.193 143.89C450.513 144.275 449.923 144.865 449.425 145.658C449.47 145.885 449.504 146.123 449.527 146.372C449.549 146.621 449.561 146.871 449.561 147.12V158H446.195V147.698C446.195 146.338 445.832 145.273 445.107 144.502C444.404 143.709 443.441 143.312 442.217 143.312C441.401 143.312 440.664 143.493 440.007 143.856C439.349 144.196 438.783 144.717 438.307 145.42V158H434.907ZM467.476 164.936V140.694H470.842V142.36C472.293 141.068 474.061 140.422 476.146 140.422C477.778 140.422 479.252 140.819 480.566 141.612C481.904 142.405 482.958 143.471 483.728 144.808C484.499 146.145 484.884 147.653 484.884 149.33C484.884 151.007 484.488 152.526 483.694 153.886C482.924 155.223 481.87 156.289 480.532 157.082C479.218 157.875 477.733 158.272 476.078 158.272C475.126 158.272 474.208 158.125 473.324 157.83C472.44 157.513 471.624 157.071 470.876 156.504V164.936H467.476ZM475.704 155.314C476.815 155.314 477.801 155.053 478.662 154.532C479.546 154.011 480.249 153.308 480.77 152.424C481.292 151.517 481.552 150.497 481.552 149.364C481.552 148.231 481.292 147.211 480.77 146.304C480.249 145.397 479.546 144.683 478.662 144.162C477.801 143.641 476.815 143.38 475.704 143.38C474.73 143.38 473.823 143.561 472.984 143.924C472.146 144.287 471.443 144.797 470.876 145.454V153.274C471.443 153.909 472.146 154.407 472.984 154.77C473.846 155.133 474.752 155.314 475.704 155.314ZM496.489 158.306C495.242 158.306 494.143 158.091 493.191 157.66C492.239 157.207 491.491 156.583 490.947 155.79C490.403 154.997 490.131 154.079 490.131 153.036C490.131 151.404 490.754 150.123 492.001 149.194C493.247 148.242 494.959 147.766 497.135 147.766C498.835 147.766 500.41 148.095 501.861 148.752V146.916C501.861 145.669 501.498 144.74 500.773 144.128C500.07 143.516 499.027 143.21 497.645 143.21C496.851 143.21 496.024 143.335 495.163 143.584C494.301 143.811 493.338 144.173 492.273 144.672L491.015 142.122C492.329 141.51 493.553 141.068 494.687 140.796C495.82 140.501 496.965 140.354 498.121 140.354C500.365 140.354 502.099 140.887 503.323 141.952C504.569 143.017 505.193 144.536 505.193 146.508V158H501.861V156.504C501.09 157.116 500.263 157.569 499.379 157.864C498.495 158.159 497.531 158.306 496.489 158.306ZM493.395 152.968C493.395 153.807 493.746 154.487 494.449 155.008C495.174 155.529 496.115 155.79 497.271 155.79C498.177 155.79 499.005 155.654 499.753 155.382C500.523 155.11 501.226 154.691 501.861 154.124V151.2C501.203 150.815 500.512 150.543 499.787 150.384C499.084 150.203 498.291 150.112 497.407 150.112C496.16 150.112 495.174 150.373 494.449 150.894C493.746 151.393 493.395 152.084 493.395 152.968ZM519.956 158.306C518.302 158.306 516.794 157.909 515.434 157.116C514.074 156.323 512.998 155.246 512.204 153.886C511.434 152.526 511.048 151.007 511.048 149.33C511.048 147.653 511.445 146.145 512.238 144.808C513.032 143.448 514.097 142.371 515.434 141.578C516.794 140.762 518.302 140.354 519.956 140.354C521.271 140.354 522.529 140.603 523.73 141.102C524.954 141.601 526.008 142.303 526.892 143.21L524.784 145.556C524.127 144.831 523.39 144.287 522.574 143.924C521.758 143.561 520.908 143.38 520.024 143.38C518.982 143.38 518.03 143.641 517.168 144.162C516.33 144.683 515.661 145.397 515.162 146.304C514.664 147.211 514.414 148.219 514.414 149.33C514.414 150.441 514.664 151.449 515.162 152.356C515.661 153.263 516.341 153.988 517.202 154.532C518.064 155.053 519.027 155.314 520.092 155.314C520.976 155.314 521.804 155.144 522.574 154.804C523.345 154.441 524.07 153.92 524.75 153.24L526.824 155.416C525.918 156.345 524.864 157.059 523.662 157.558C522.484 158.057 521.248 158.306 519.956 158.306ZM540.025 158.306C538.347 158.306 537.067 157.921 536.183 157.15C535.299 156.357 534.857 155.212 534.857 153.716V143.55H531.185V140.694H534.857V136.274L538.223 135.458V140.694H543.323V143.55H538.223V152.934C538.223 153.818 538.415 154.453 538.801 154.838C539.209 155.201 539.866 155.382 540.773 155.382C541.249 155.382 541.668 155.348 542.031 155.28C542.416 155.212 542.824 155.11 543.255 154.974V157.83C542.801 157.989 542.269 158.102 541.657 158.17C541.067 158.261 540.523 158.306 540.025 158.306Z" fill="#121212"/>
<circle cx="468" cy="36" r="8" fill="#FC6A00"/>
<rect y="133" width="261" height="25" fill="#121212"/>
</svg>
