<svg width="1072" height="183" viewBox="0 0 1072 183" fill="none" xmlns="http://www.w3.org/2000/svg">
<path d="M233.828 80.3063C230.319 58.3425 209.136 39.1496 190.979 30.5827C173.814 22.4988 153.139 18.5332 127.76 18.4315C93.8108 18.3044 64.8968 24.9901 41.9844 38.4124C25.4294 48.1232 5.79745 61.7235 0.914884 81.0943C-1.19581 89.5087 0.355424 98.1264 5.46686 105.956C12.2312 116.404 24.87 124.615 37.6104 126.852C49.7914 128.988 61.9469 127.411 72.3732 125.759C74.4331 125.429 76.4929 125.098 78.5527 124.742C80.3837 124.437 82.2147 124.132 84.0711 123.827C98.5407 121.514 113.722 120.141 126.717 125.657C139.737 131.199 148.663 142.512 158.098 154.51C164.659 162.823 171.449 171.441 179.841 178.203C182.867 180.643 186.529 182.321 189.962 182.321C192.428 182.321 194.717 181.457 196.548 179.347C202.066 172.966 199.345 163.713 196.701 154.764C195.099 149.299 193.42 143.655 194.285 140.224C195.404 135.699 198.811 131.403 204.635 127.056C206.466 125.708 208.348 124.437 210.229 123.192C213.866 120.751 217.63 118.26 220.961 115.082C231.413 105.193 235.888 93.1439 233.828 80.3063ZM215.493 109.388C212.62 112.083 209.314 114.32 205.805 116.658C203.846 117.955 201.837 119.302 199.879 120.751C192.505 126.217 188.156 131.987 186.554 138.342C185.181 143.859 187.164 150.545 189.072 157.027C191.106 163.941 193.217 171.085 190.521 174.186C190.013 174.771 187.368 174.161 184.774 172.051C177.069 165.848 170.584 157.586 164.303 149.629C154.665 137.376 144.671 124.717 129.794 118.387C121.987 115.057 113.697 113.887 105.331 113.887C97.8033 113.887 90.2251 114.828 82.825 116.023C80.9686 116.328 79.1122 116.633 77.2558 116.938C75.2214 117.268 73.187 117.624 71.1526 117.929C58.9971 119.861 48.8759 120.777 38.9836 119.048C28.4302 117.218 17.6478 110.227 12.0787 101.685C9.38308 97.5163 6.58578 90.9322 8.56932 83.0263C12.7398 66.5026 30.7443 54.148 45.9515 45.2252C67.6433 32.5401 95.0823 26.1595 127.709 26.312C130.659 26.312 133.507 26.3882 136.304 26.5154C141.517 24.38 147.112 23.1598 152.758 23.1598C158.072 23.1598 163.057 24.1258 167.685 25.7781C182.841 26.7187 195.353 35.1585 202.728 47.2081C214.196 56.258 223.962 68.7143 225.996 81.5265C227.674 91.8474 224.114 101.228 215.493 109.388Z" fill="url(#paint0_linear_2173_377)"/>
<path d="M113.546 155.475C110.927 155.475 108.282 155.196 105.586 154.636C88.1158 150.823 76.7486 134.859 67.5938 122.021C56.8623 106.946 47.682 99.2692 33.7718 93.6512L33.3649 93.4732C23.5235 89.4821 3.07777 81.1694 0.712782 62.4596C-1.24533 47.0036 10.8339 32.6661 36.62 19.8285C89.6162 -6.55855 164.787 -6.6094 215.342 19.676C232.329 28.4971 251.046 51.1726 239.475 73.9244C235.381 81.9575 228.795 87.8552 222.946 92.7614C204.458 108.243 183.834 121.08 166.084 131.605C162.982 133.461 159.778 135.545 156.37 137.731C143.452 146.12 129.058 155.475 113.546 155.475ZM36.3148 86.1774L36.7217 86.3553C54.3447 93.4732 64.3641 103.947 74.0276 117.471C82.394 129.19 92.7949 143.781 107.265 146.934C122.624 150.264 137.577 140.528 152.072 131.122C155.531 128.885 158.811 126.749 162.066 124.817C179.537 114.471 199.804 101.837 217.885 86.7112C223.124 82.3134 229.024 77.0767 232.431 70.3655C241.561 52.4182 225.794 34.0388 211.706 26.7176C163.185 1.47449 91.0402 1.55076 40.1293 26.8955C17.6746 38.0808 7.04486 49.6982 8.54523 61.4936C10.1219 73.899 22.8115 80.6864 36.3148 86.1774Z" fill="url(#paint1_linear_2173_377)"/>
<path d="M233.828 80.3063C230.319 58.3425 209.136 39.1496 190.979 30.5827C173.814 22.4988 153.139 18.5332 127.76 18.4315C93.8108 18.3044 64.8968 24.9901 41.9844 38.4124C25.4294 48.1232 5.79745 61.7235 0.914884 81.0943C-1.19581 89.5087 0.355424 98.1264 5.46686 105.956C12.2312 116.404 24.87 124.615 37.6104 126.852C46.0023 128.327 54.3688 128.022 62.1758 127.157C61.4638 124.564 61.5146 121.768 62.2775 119.2C53.8602 120.192 46.3583 120.37 38.9582 119.073C28.4302 117.218 17.6478 110.227 12.0787 101.685C9.38308 97.5163 6.58578 90.9323 8.56932 83.0263C12.7398 66.5026 30.7443 54.148 45.9515 45.2252C67.6433 32.5401 95.0823 26.1595 127.709 26.312C130.659 26.312 133.507 26.3883 136.304 26.5154C141.517 24.38 147.112 23.1598 152.758 23.1598C158.072 23.1598 163.057 24.1258 167.685 25.7781C182.841 26.7187 195.353 35.1585 202.728 47.2081C214.196 56.258 223.962 68.7143 225.996 81.5265C227.649 91.8474 224.114 101.202 215.468 109.363C212.594 112.057 209.288 114.294 205.779 116.633C203.821 117.929 201.812 119.277 199.854 120.726C192.479 126.191 188.131 131.962 186.529 138.317C185.155 143.833 187.139 150.519 189.046 157.002C191.081 163.916 193.191 171.059 190.496 174.161C189.987 174.745 187.342 174.135 184.749 172.025C177.043 165.823 170.559 157.561 164.277 149.604C163.311 148.384 162.345 147.164 161.353 145.918C159.853 148.028 157.691 149.655 154.792 150.367C155.885 151.714 156.954 153.087 158.047 154.485C164.608 162.798 171.398 171.415 179.79 178.177C182.816 180.618 186.478 182.295 189.911 182.295C192.378 182.295 194.666 181.431 196.497 179.321C202.015 172.941 199.294 163.687 196.65 154.739C195.048 149.274 193.369 143.63 194.234 140.198C195.353 135.673 198.76 131.377 204.584 127.03C206.415 125.683 208.297 124.412 210.179 123.166C213.815 120.726 217.579 118.234 220.91 115.057C231.413 105.193 235.888 93.1439 233.828 80.3063Z" fill="url(#paint2_linear_2173_377)"/>
<path d="M144.371 127.587C140.022 123.901 135.242 120.723 129.799 118.41C121.992 115.08 113.702 113.91 105.336 113.91C98.2154 113.91 91.0187 114.774 84 115.868C85.4749 118.105 86.2378 120.799 86.2124 123.519C100.021 121.409 114.363 120.418 126.722 125.68C131.605 127.765 135.928 130.663 139.895 134.094C140.633 131.502 142.108 129.163 144.371 127.587Z" fill="url(#paint3_linear_2173_377)"/>
<path d="M109.424 99.6751C102.939 99.6751 97.0649 97.0059 92.4621 91.8962C84.9094 83.5073 82.2138 70.1104 85.9266 59.281C97.8024 24.4288 135.591 14.1078 167.76 19.3446C169.617 19.6496 171.473 20.0055 173.33 20.4123C183.934 22.751 192.122 26.4625 198.378 31.8009C208.423 40.3424 213.178 52.9766 210.152 63.2213C208.703 68.1784 204.1 76.8215 189.757 78.7535C184.29 79.4908 178.492 79.7958 172.872 80.1009C159.953 80.7872 146.603 81.499 136.024 87.4475C135.642 87.6509 135.286 87.8797 134.905 88.1085C133.226 89.1253 131.599 90.2439 129.87 91.4386C125.394 94.54 120.766 97.7431 115.044 99.0395C113.162 99.4717 111.28 99.6751 109.424 99.6751ZM151.943 25.9541C127.098 25.9541 102.075 36.3513 93.403 61.8231C90.682 69.8053 92.7927 80.4568 98.3364 86.6086C101.108 89.6846 105.965 92.9893 113.34 91.3115C117.587 90.3455 121.376 87.7018 125.419 84.9054C127.174 83.6852 128.98 82.4396 130.861 81.2956C131.294 81.0414 131.751 80.7618 132.184 80.533C144.365 73.6693 158.656 72.9067 172.49 72.1695C178.187 71.8644 183.578 71.5848 188.715 70.8984C196.166 69.8816 200.972 66.4498 202.574 60.9842C204.685 53.7901 200.845 44.2572 193.267 37.8257C188.028 33.377 180.933 30.1994 171.626 28.1403C169.922 27.7589 168.218 27.4285 166.489 27.1488C161.733 26.3608 156.851 25.9541 151.943 25.9541Z" fill="url(#paint4_linear_2173_377)"/>
<path d="M345.758 86.0146C345.758 56.3996 365.638 36.6562 395.665 36.6562C425.554 36.6562 445.571 56.3996 445.571 86.0146C445.571 115.63 425.554 135.373 395.665 135.373C365.638 135.373 345.758 115.63 345.758 86.0146ZM358.783 86.0146C358.783 108.774 373.59 123.719 395.665 123.719C417.739 123.719 432.546 108.774 432.546 86.0146C432.546 63.1178 417.739 48.3103 395.665 48.3103C373.59 48.3103 358.783 63.1178 358.783 86.0146ZM420.892 142.365C420.892 137.43 424.457 134.276 429.804 134.276C435.014 134.276 438.579 137.43 438.579 142.365C438.579 147.164 435.014 150.455 429.804 150.455C424.457 150.455 420.892 147.164 420.892 142.365Z" fill="white"/>
<path d="M469.777 101.919C469.777 114.533 478.689 123.17 491.44 123.17C504.602 123.17 513.377 114.67 513.377 101.919V65.4486H526.539V100.822C526.539 121.525 512.691 135.373 491.988 135.373C470.6 135.373 456.752 121.525 456.752 100.822V65.4486H469.777V101.919Z" fill="white"/>
<path d="M608.638 101.233H550.916C551.19 114.259 560.24 123.445 574.224 123.445C585.33 123.445 592.871 117.412 595.339 108.089H608.638C605.622 125.227 592.871 135.373 573.95 135.373C552.287 135.373 537.891 121.114 537.891 99.7252C537.891 78.3366 552.287 64.0775 573.95 64.0775C594.653 64.0775 608.775 76.6913 608.638 97.3944V101.233ZM551.876 91.2246H595.065C593.008 81.2159 585.33 75.1832 574.087 75.1832C562.845 75.1832 554.618 81.9014 551.876 91.2246Z" fill="white"/>
<path d="M619.292 84.0951C619.292 70.5216 629.986 63.9404 650.415 63.9404C660.561 63.9404 668.65 65.0373 676.054 67.7794V79.9819C671.255 78.1995 661.109 75.1832 649.044 75.1832C637.801 75.1832 632.317 77.9253 632.317 83.1354C632.317 96.9831 678.933 89.3051 678.933 113.984C678.933 127.421 668.376 135.51 647.81 135.51C637.664 135.51 629.575 134.413 622.171 131.671V119.469C626.97 121.251 637.253 124.267 649.181 124.267C660.424 124.267 665.771 120.154 665.771 114.944C665.771 101.233 619.292 108.774 619.292 84.0951Z" fill="white"/>
<path d="M687.175 84.0951C687.175 70.5216 697.87 63.9404 718.299 63.9404C728.445 63.9404 736.534 65.0373 743.938 67.7794V79.9819C739.139 78.1995 728.993 75.1832 716.928 75.1832C705.685 75.1832 700.201 77.9253 700.201 83.1354C700.201 96.9831 746.817 89.3051 746.817 113.984C746.817 127.421 736.26 135.51 715.694 135.51C705.548 135.51 697.458 134.413 690.055 131.671V119.469C694.853 121.251 705.136 124.267 717.065 124.267C728.307 124.267 733.655 120.154 733.655 114.944C733.655 101.233 687.175 108.774 687.175 84.0951Z" fill="white"/>
<path d="M826.884 101.233H769.162C769.436 114.259 778.485 123.445 792.47 123.445C803.576 123.445 811.117 117.412 813.584 108.089H826.884C823.867 125.227 811.117 135.373 792.196 135.373C770.533 135.373 756.137 121.114 756.137 99.7252C756.137 78.3366 770.533 64.0775 792.196 64.0775C812.899 64.0775 827.021 76.6913 826.884 97.3944V101.233ZM770.122 91.2246H813.31C811.254 81.2159 803.576 75.1832 792.333 75.1832C781.09 75.1832 772.864 81.9014 770.122 91.2246Z" fill="white"/>
<path d="M851.238 97.5315V134.002H838.213V98.6284C838.213 77.9253 852.061 64.0775 873.45 64.0775C894.153 64.0775 908 77.9253 908 98.6284V134.002H894.838V97.5315C894.838 84.7806 886.063 76.28 872.901 76.28C860.15 76.28 851.238 84.9177 851.238 97.5315Z" fill="white"/>
<path d="M932.378 99.7252C932.378 113.71 941.564 123.17 955.411 123.17C966.791 123.17 974.195 116.864 976.8 107.266H990.099C987.083 124.404 974.332 135.373 955.411 135.373C933.749 135.373 919.352 121.114 919.352 99.7252C919.352 78.3366 933.749 64.0775 955.411 64.0775C974.332 64.0775 987.083 75.0461 990.099 92.1844H976.8C974.195 82.5869 966.791 76.28 955.411 76.28C941.564 76.28 932.378 85.7404 932.378 99.7252Z" fill="white"/>
<path d="M1071.64 101.233H1013.92C1014.19 114.259 1023.24 123.445 1037.23 123.445C1048.33 123.445 1055.87 117.412 1058.34 108.089H1071.64C1068.62 125.227 1055.87 135.373 1036.95 135.373C1015.29 135.373 1000.89 121.114 1000.89 99.7252C1000.89 78.3366 1015.29 64.0775 1036.95 64.0775C1057.66 64.0775 1071.78 76.6913 1071.64 97.3944V101.233ZM1014.88 91.2246H1058.07C1056.01 81.2159 1048.33 75.1832 1037.09 75.1832C1025.85 75.1832 1017.62 81.9014 1014.88 91.2246Z" fill="white"/>
<defs>
<linearGradient id="paint0_linear_2173_377" x1="-0.000596767" y1="100.38" x2="234.309" y2="100.38" gradientUnits="userSpaceOnUse">
<stop stop-color="#39C1F0"/>
<stop offset="1" stop-color="#403E98"/>
</linearGradient>
<linearGradient id="paint1_linear_2173_377" x1="125.467" y1="155.055" x2="119.5" y2="0.12082" gradientUnits="userSpaceOnUse">
<stop stop-color="#EA3560"/>
<stop offset="0.4536" stop-color="#F37A5E"/>
<stop offset="1" stop-color="#FFCA05"/>
</linearGradient>
<linearGradient id="paint2_linear_2173_377" x1="-0.000596767" y1="100.38" x2="234.309" y2="100.38" gradientUnits="userSpaceOnUse">
<stop stop-color="#39C1F0"/>
<stop offset="1" stop-color="#403E98"/>
</linearGradient>
<linearGradient id="paint3_linear_2173_377" x1="0.00462686" y1="124.003" x2="234.315" y2="124.003" gradientUnits="userSpaceOnUse">
<stop stop-color="#39C1F0"/>
<stop offset="1" stop-color="#403E98"/>
</linearGradient>
<linearGradient id="paint4_linear_2173_377" x1="83.4109" y1="64.1708" x2="210.355" y2="49.2625" gradientUnits="userSpaceOnUse">
<stop stop-color="#F0656F"/>
<stop offset="1" stop-color="#DE1669"/>
</linearGradient>
</defs>
</svg>
