<svg width="1072" height="183" viewBox="0 0 1072 183" fill="none" xmlns="http://www.w3.org/2000/svg">
<path d="M233.828 80.3063C230.319 58.3425 209.136 39.1496 190.979 30.5827C173.814 22.4988 153.139 18.5332 127.76 18.4315C93.8108 18.3044 64.8968 24.9901 41.9844 38.4124C25.4294 48.1232 5.79745 61.7235 0.914884 81.0943C-1.19581 89.5087 0.355424 98.1264 5.46686 105.956C12.2312 116.404 24.87 124.615 37.6104 126.852C49.7914 128.988 61.9469 127.411 72.3732 125.759C74.4331 125.429 76.4929 125.098 78.5527 124.742C80.3837 124.437 82.2147 124.132 84.0711 123.827C98.5407 121.514 113.722 120.141 126.717 125.657C139.737 131.199 148.663 142.512 158.098 154.51C164.659 162.823 171.449 171.441 179.841 178.203C182.867 180.643 186.529 182.321 189.962 182.321C192.428 182.321 194.717 181.457 196.548 179.347C202.066 172.966 199.345 163.713 196.701 154.764C195.099 149.299 193.42 143.655 194.285 140.224C195.404 135.699 198.811 131.403 204.635 127.056C206.466 125.708 208.348 124.437 210.229 123.192C213.866 120.751 217.63 118.26 220.961 115.082C231.413 105.193 235.888 93.1439 233.828 80.3063ZM215.493 109.388C212.62 112.083 209.314 114.32 205.805 116.658C203.846 117.955 201.837 119.302 199.879 120.751C192.505 126.217 188.156 131.987 186.554 138.342C185.181 143.859 187.164 150.545 189.072 157.027C191.106 163.941 193.217 171.085 190.521 174.186C190.013 174.771 187.368 174.161 184.774 172.051C177.069 165.848 170.584 157.586 164.303 149.629C154.665 137.376 144.671 124.717 129.794 118.387C121.987 115.057 113.697 113.887 105.331 113.887C97.8033 113.887 90.2251 114.828 82.825 116.023C80.9686 116.328 79.1122 116.633 77.2558 116.938C75.2214 117.268 73.187 117.624 71.1526 117.929C58.9971 119.861 48.8759 120.777 38.9836 119.048C28.4302 117.218 17.6478 110.227 12.0787 101.685C9.38308 97.5163 6.58578 90.9322 8.56932 83.0263C12.7398 66.5026 30.7443 54.148 45.9515 45.2252C67.6433 32.5401 95.0823 26.1595 127.709 26.312C130.659 26.312 133.507 26.3882 136.304 26.5154C141.517 24.38 147.112 23.1598 152.758 23.1598C158.072 23.1598 163.057 24.1258 167.685 25.7781C182.841 26.7187 195.353 35.1585 202.728 47.2081C214.196 56.258 223.962 68.7143 225.996 81.5265C227.674 91.8474 224.114 101.228 215.493 109.388Z" fill="url(#paint0_linear_2173_376)"/>
<path d="M113.546 155.475C110.927 155.475 108.282 155.196 105.586 154.636C88.1158 150.823 76.7486 134.859 67.5938 122.021C56.8623 106.946 47.682 99.2692 33.7718 93.6512L33.3649 93.4732C23.5235 89.4821 3.07777 81.1694 0.712782 62.4596C-1.24533 47.0036 10.8339 32.6661 36.62 19.8285C89.6162 -6.55855 164.787 -6.6094 215.342 19.676C232.329 28.4971 251.046 51.1726 239.475 73.9244C235.381 81.9575 228.795 87.8552 222.946 92.7614C204.458 108.243 183.834 121.08 166.084 131.605C162.982 133.461 159.778 135.545 156.37 137.731C143.452 146.12 129.058 155.475 113.546 155.475ZM36.3148 86.1774L36.7217 86.3553C54.3447 93.4732 64.3641 103.947 74.0276 117.471C82.394 129.19 92.7949 143.781 107.265 146.934C122.624 150.264 137.577 140.528 152.072 131.122C155.531 128.885 158.811 126.749 162.066 124.817C179.537 114.471 199.804 101.837 217.885 86.7112C223.124 82.3134 229.024 77.0767 232.431 70.3655C241.561 52.4182 225.794 34.0388 211.706 26.7176C163.185 1.47449 91.0402 1.55076 40.1293 26.8955C17.6746 38.0808 7.04486 49.6982 8.54523 61.4936C10.1219 73.899 22.8115 80.6864 36.3148 86.1774Z" fill="url(#paint1_linear_2173_376)"/>
<path d="M233.828 80.3063C230.319 58.3425 209.136 39.1496 190.979 30.5827C173.814 22.4988 153.139 18.5332 127.76 18.4315C93.8108 18.3044 64.8968 24.9901 41.9844 38.4124C25.4294 48.1232 5.79745 61.7235 0.914884 81.0943C-1.19581 89.5087 0.355424 98.1264 5.46686 105.956C12.2312 116.404 24.87 124.615 37.6104 126.852C46.0023 128.327 54.3688 128.022 62.1758 127.157C61.4638 124.564 61.5146 121.768 62.2775 119.2C53.8602 120.192 46.3583 120.37 38.9582 119.073C28.4302 117.218 17.6478 110.227 12.0787 101.685C9.38308 97.5163 6.58578 90.9323 8.56932 83.0263C12.7398 66.5026 30.7443 54.148 45.9515 45.2252C67.6433 32.5401 95.0823 26.1595 127.709 26.312C130.659 26.312 133.507 26.3883 136.304 26.5154C141.517 24.38 147.112 23.1598 152.758 23.1598C158.072 23.1598 163.057 24.1258 167.685 25.7781C182.841 26.7187 195.353 35.1585 202.728 47.2081C214.196 56.258 223.962 68.7143 225.996 81.5265C227.649 91.8474 224.114 101.202 215.468 109.363C212.594 112.057 209.288 114.294 205.779 116.633C203.821 117.929 201.812 119.277 199.854 120.726C192.479 126.191 188.131 131.962 186.529 138.317C185.155 143.833 187.139 150.519 189.046 157.002C191.081 163.916 193.191 171.059 190.496 174.161C189.987 174.745 187.342 174.135 184.749 172.025C177.043 165.823 170.559 157.561 164.277 149.604C163.311 148.384 162.345 147.164 161.353 145.918C159.853 148.028 157.691 149.655 154.792 150.367C155.885 151.714 156.954 153.087 158.047 154.485C164.608 162.798 171.398 171.415 179.79 178.177C182.816 180.618 186.478 182.295 189.911 182.295C192.378 182.295 194.666 181.431 196.497 179.321C202.015 172.941 199.294 163.687 196.65 154.739C195.048 149.274 193.369 143.63 194.234 140.198C195.353 135.673 198.76 131.377 204.584 127.03C206.415 125.683 208.297 124.412 210.179 123.166C213.815 120.726 217.579 118.234 220.91 115.057C231.413 105.193 235.888 93.1439 233.828 80.3063Z" fill="url(#paint2_linear_2173_376)"/>
<path d="M144.371 127.587C140.022 123.901 135.242 120.723 129.799 118.41C121.992 115.08 113.702 113.91 105.336 113.91C98.2154 113.91 91.0187 114.774 84 115.868C85.4749 118.105 86.2378 120.799 86.2124 123.519C100.021 121.409 114.363 120.418 126.722 125.68C131.605 127.765 135.928 130.663 139.895 134.094C140.633 131.502 142.108 129.163 144.371 127.587Z" fill="url(#paint3_linear_2173_376)"/>
<path d="M109.424 99.6751C102.939 99.6751 97.0649 97.0059 92.4621 91.8962C84.9094 83.5073 82.2138 70.1104 85.9266 59.281C97.8024 24.4288 135.591 14.1078 167.76 19.3446C169.617 19.6496 171.473 20.0055 173.33 20.4123C183.934 22.751 192.122 26.4625 198.378 31.8009C208.423 40.3424 213.178 52.9766 210.152 63.2213C208.703 68.1784 204.1 76.8215 189.757 78.7535C184.29 79.4908 178.492 79.7958 172.872 80.1009C159.953 80.7872 146.603 81.499 136.024 87.4475C135.642 87.6509 135.286 87.8797 134.905 88.1085C133.226 89.1253 131.599 90.2439 129.87 91.4386C125.394 94.54 120.766 97.7431 115.044 99.0395C113.162 99.4717 111.28 99.6751 109.424 99.6751ZM151.943 25.9541C127.098 25.9541 102.075 36.3513 93.403 61.8231C90.682 69.8053 92.7927 80.4568 98.3364 86.6086C101.108 89.6846 105.965 92.9893 113.34 91.3115C117.587 90.3455 121.376 87.7018 125.419 84.9054C127.174 83.6852 128.98 82.4396 130.861 81.2956C131.294 81.0414 131.751 80.7618 132.184 80.533C144.365 73.6693 158.656 72.9067 172.49 72.1695C178.187 71.8644 183.578 71.5848 188.715 70.8984C196.166 69.8816 200.972 66.4498 202.574 60.9842C204.685 53.7901 200.845 44.2572 193.267 37.8257C188.028 33.377 180.933 30.1994 171.626 28.1403C169.922 27.7589 168.218 27.4285 166.489 27.1488C161.733 26.3608 156.851 25.9541 151.943 25.9541Z" fill="url(#paint4_linear_2173_376)"/>
<path d="M345.383 76.3036C345.383 46.6886 365.263 26.9453 395.29 26.9453C425.179 26.9453 445.196 46.6886 445.196 76.3036C445.196 105.919 425.179 125.662 395.29 125.662C365.263 125.662 345.383 105.919 345.383 76.3036ZM358.408 76.3036C358.408 99.0633 373.215 114.008 395.29 114.008C417.364 114.008 432.171 99.0633 432.171 76.3036C432.171 53.4069 417.364 38.5994 395.29 38.5994C373.215 38.5994 358.408 53.4069 358.408 76.3036ZM420.517 132.654C420.517 127.719 424.082 124.565 429.429 124.565C434.639 124.565 438.204 127.719 438.204 132.654C438.204 137.453 434.639 140.744 429.429 140.744C424.082 140.744 420.517 137.453 420.517 132.654Z" fill="#181818"/>
<path d="M469.402 92.208C469.402 104.822 478.314 113.46 491.065 113.46C504.227 113.46 513.002 104.959 513.002 92.208V55.7377H526.164V91.1112C526.164 111.814 512.316 125.662 491.613 125.662C470.225 125.662 456.377 111.814 456.377 91.1112V55.7377H469.402V92.208Z" fill="#181818"/>
<path d="M608.263 91.5225H550.541C550.815 104.548 559.865 113.734 573.849 113.734C584.955 113.734 592.496 107.701 594.964 98.3778H608.263C605.247 115.516 592.496 125.662 573.575 125.662C551.912 125.662 537.516 111.403 537.516 90.0143C537.516 68.6257 551.912 54.3666 573.575 54.3666C594.278 54.3666 608.4 66.9804 608.263 87.6835V91.5225ZM551.501 81.5137H594.69C592.633 71.5049 584.955 65.4722 573.712 65.4722C562.47 65.4722 554.243 72.1905 551.501 81.5137Z" fill="#181818"/>
<path d="M618.917 74.3842C618.917 60.8106 629.611 54.2295 650.04 54.2295C660.186 54.2295 668.275 55.3264 675.679 58.0685V70.271C670.88 68.4886 660.734 65.4722 648.669 65.4722C637.426 65.4722 631.942 68.2144 631.942 73.4244C631.942 87.2722 678.558 79.5942 678.558 104.273C678.558 117.71 668.001 125.799 647.435 125.799C637.289 125.799 629.2 124.702 621.796 121.96V109.758C626.595 111.54 636.878 114.556 648.806 114.556C660.049 114.556 665.396 110.443 665.396 105.233C665.396 91.5225 618.917 99.0633 618.917 74.3842Z" fill="#181818"/>
<path d="M686.8 74.3842C686.8 60.8106 697.495 54.2295 717.924 54.2295C728.07 54.2295 736.159 55.3264 743.563 58.0685V70.271C738.764 68.4886 728.618 65.4722 716.553 65.4722C705.31 65.4722 699.826 68.2144 699.826 73.4244C699.826 87.2722 746.442 79.5942 746.442 104.273C746.442 117.71 735.885 125.799 715.319 125.799C705.173 125.799 697.083 124.702 689.68 121.96V109.758C694.478 111.54 704.761 114.556 716.69 114.556C727.932 114.556 733.28 110.443 733.28 105.233C733.28 91.5225 686.8 99.0633 686.8 74.3842Z" fill="#181818"/>
<path d="M826.509 91.5225H768.787C769.061 104.548 778.11 113.734 792.095 113.734C803.201 113.734 810.742 107.701 813.209 98.3778H826.509C823.492 115.516 810.742 125.662 791.821 125.662C770.158 125.662 755.762 111.403 755.762 90.0143C755.762 68.6257 770.158 54.3666 791.821 54.3666C812.524 54.3666 826.646 66.9804 826.509 87.6835V91.5225ZM769.747 81.5137H812.935C810.879 71.5049 803.201 65.4722 791.958 65.4722C780.715 65.4722 772.489 72.1905 769.747 81.5137Z" fill="#181818"/>
<path d="M850.863 87.8206V124.291H837.838V88.9174C837.838 68.2144 851.686 54.3666 873.075 54.3666C893.778 54.3666 907.625 68.2144 907.625 88.9174V124.291H894.463V87.8206C894.463 75.0697 885.688 66.5691 872.526 66.5691C859.775 66.5691 850.863 75.2068 850.863 87.8206Z" fill="#181818"/>
<path d="M932.003 90.0143C932.003 103.999 941.189 113.46 955.036 113.46C966.416 113.46 973.82 107.153 976.425 97.5552H989.724C986.708 114.693 973.957 125.662 955.036 125.662C933.374 125.662 918.977 111.403 918.977 90.0143C918.977 68.6257 933.374 54.3666 955.036 54.3666C973.957 54.3666 986.708 65.3351 989.724 82.4734H976.425C973.82 72.876 966.416 66.5691 955.036 66.5691C941.189 66.5691 932.003 76.0294 932.003 90.0143Z" fill="#181818"/>
<path d="M1071.27 91.5225H1013.54C1013.82 104.548 1022.87 113.734 1036.85 113.734C1047.96 113.734 1055.5 107.701 1057.97 98.3778H1071.27C1068.25 115.516 1055.5 125.662 1036.58 125.662C1014.91 125.662 1000.52 111.403 1000.52 90.0143C1000.52 68.6257 1014.91 54.3666 1036.58 54.3666C1057.28 54.3666 1071.4 66.9804 1071.27 87.6835V91.5225ZM1014.5 81.5137H1057.69C1055.64 71.5049 1047.96 65.4722 1036.71 65.4722C1025.47 65.4722 1017.25 72.1905 1014.5 81.5137Z" fill="#181818"/>
<defs>
<linearGradient id="paint0_linear_2173_376" x1="-0.000596767" y1="100.38" x2="234.309" y2="100.38" gradientUnits="userSpaceOnUse">
<stop stop-color="#39C1F0"/>
<stop offset="1" stop-color="#403E98"/>
</linearGradient>
<linearGradient id="paint1_linear_2173_376" x1="125.467" y1="155.055" x2="119.5" y2="0.12082" gradientUnits="userSpaceOnUse">
<stop stop-color="#EA3560"/>
<stop offset="0.4536" stop-color="#F37A5E"/>
<stop offset="1" stop-color="#FFCA05"/>
</linearGradient>
<linearGradient id="paint2_linear_2173_376" x1="-0.000596767" y1="100.38" x2="234.309" y2="100.38" gradientUnits="userSpaceOnUse">
<stop stop-color="#39C1F0"/>
<stop offset="1" stop-color="#403E98"/>
</linearGradient>
<linearGradient id="paint3_linear_2173_376" x1="0.00462686" y1="124.003" x2="234.315" y2="124.003" gradientUnits="userSpaceOnUse">
<stop stop-color="#39C1F0"/>
<stop offset="1" stop-color="#403E98"/>
</linearGradient>
<linearGradient id="paint4_linear_2173_376" x1="83.4109" y1="64.1708" x2="210.355" y2="49.2625" gradientUnits="userSpaceOnUse">
<stop stop-color="#F0656F"/>
<stop offset="1" stop-color="#DE1669"/>
</linearGradient>
</defs>
</svg>
